<?xml version="1.0" standalone="no"?>
<!DOCTYPE svg PUBLIC "-//W3C//DTD SVG 1.1//EN" "http://www.w3.org/Graphics/SVG/1.1/DTD/svg11.dtd" >
<svg xmlns="http://www.w3.org/2000/svg">
<metadata>
Created by FontPrep 20130207 at Fri Jan 15 15:02:03 2016
 By baxy
Copyright (c) 2014 by Yellow Design Studio. All rights reserved.
</metadata>
<defs>
<font id="a2d741f0132f9d79f9f06880bf20be40" horiz-adv-x='1024' >
  <font-face 
    font-family="EvelethCleanThin"
    font-weight="900"
    font-stretch="normal"
    units-per-em="2048"
    panose-1="2 1 3 4 2 2 0 0 0 3"
    ascent="1638"
    descent="-410"
    x-height="1597"
    cap-height="1597"
    bbox="-98.3333 -643.007 2898 2196.5"
    underline-thickness="102"
    underline-position="-102"
    unicode-range="U+0020-F8FF"
  />
<missing-glyph horiz-adv-x="708" 
 />
    <glyph glyph-name=".notdef" horiz-adv-x="708" 
 />
    <glyph glyph-name=".null" horiz-adv-x="0" 
 />
    <glyph glyph-name="nonmarkingreturn" horiz-adv-x="681" 
 />
    <glyph glyph-name="space" unicode=" " horiz-adv-x="708" 
 />
    <glyph glyph-name="exclam" unicode="!" horiz-adv-x="528" 
d="M264 -25q-43 0 -75 31t-31 74q0 43 31 74q32 30 75 30t75 -30t32 -74q0 -43 -32 -74t-75 -31zM236 1597h57q14 0 25 -10t12 -26l-19 -1112q0 -13 -10 -25t-27 -12h-20q-16 0 -27 11q-10 12 -10 26l-18 1112q0 16 11 26t26 10z" />
    <glyph glyph-name="quotedbl" unicode="&#x22;" horiz-adv-x="917" 
d="M700 1597q37 0 37 -36l-12 -576q0 -13 -10 -25t-27 -12h-20q-16 0 -27 11q-10 11 -10 26l-13 576q0 16 10 26t27 10h45zM258 1597q37 0 37 -36l-12 -576q-1 -13 -11 -25t-26 -12h-21q-16 0 -26 11t-11 26l-12 576q0 36 37 36h45z" />
    <glyph glyph-name="numbersign" unicode="#" horiz-adv-x="1529" 
d="M985 1028h-360q-29 0 -33 -29l-72 -403q-2 -10 6 -19t19 -10h360q29 0 33 29l72 403q2 10 -6 20q-9 9 -19 9zM1425 1065q0 -37 -36 -37h-222q-29 0 -32 -29l-72 -403q-2 -10 6 -19t18 -10h201q14 0 26 -11t11 -26v-41q0 -14 -11 -25t-26 -11h-221q-29 0 -33 -29l-67 -387
q-8 -37 -43 -37h-52q-14 0 -23 11t-7 26l67 387q2 10 -6 19t-18 10h-361q-29 0 -32 -29l-68 -387q-8 -37 -43 -37h-53q-14 0 -24 11q-9 11 -7 26l68 387q1 10 -7 19t-18 10h-199q-14 0 -25 11t-12 25v41q0 14 12 26t25 11h219q29 0 33 29l72 403q2 10 -6 20q-9 9 -19 9h-198
q-16 0 -27 10q-10 10 -10 27v43q0 14 10 26t27 11h219q29 0 33 29l69 387q8 37 43 36h53q13 0 23 -11t8 -25l-69 -387q-2 -10 6 -20t18 -9h361q29 0 32 29l70 387q8 37 43 36h51q14 0 24 -11t7 -25l-70 -387q-2 -10 6 -20t19 -9h201q16 0 26 -11t10 -26v-43z" />
    <glyph glyph-name="dollar" unicode="$" horiz-adv-x="1234" 
d="M170 485h35q33 -2 43 -41q16 -92 120 -152t268 -60q163 0 256 64q93 65 93 169t-90 160q-80 53 -230 99q-149 46 -200 66q-160 61 -229 128q-97 92 -97 223q1 131 107 223t286 106q29 4 29 31v111q0 14 10 25t27 12h43q13 1 25 -11t12 -26v-113q0 -25 29 -33
q162 -20 265 -104t118 -209q2 -13 -10 -25t-25 -12h-43q-37 0 -43 37q-17 97 -115 155t-255 58t-245 -63t-88 -167t89 -162t265 -111t254 -89t102 -57q83 -69 100 -105q36 -80 36 -143q0 -141 -110 -235t-295 -109q-29 -4 -29 -31v-108q0 -14 -11 -26t-26 -11h-43
q-16 0 -27 11q-10 11 -10 26v110q0 27 -29 31q-170 23 -280 105t-123 206q-2 18 10 32t31 15z" />
    <glyph glyph-name="percent" unicode="%" horiz-adv-x="2039" 
d="M475 0h-67q-12 0 -18 10q-5 10 3 21l1106 1536q25 31 60 30h67q12 0 17 -10t-3 -20l-1105 -1536q-25 -31 -60 -31zM1575 621q-109 0 -187 -79t-79 -188q0 -108 79 -186q80 -78 188 -78t186 78t79 186q-1 108 -79 188q-78 79 -187 79zM1575 -23q-159 0 -267 110
q-108 109 -108 267t109 267t267 109t266 -110q110 -108 110 -266t-110 -268t-267 -109zM465 1518q-109 0 -187 -79t-79 -188q0 -109 79 -187q80 -78 188 -79q108 0 186 79q78 80 77 188q1 108 -77 187t-187 79zM465 874q-159 0 -267 111t-108 267t109 266q109 108 267 108
t266 -108t108 -266t-108 -268t-267 -110z" />
    <glyph glyph-name="ampersand" unicode="&#x26;" horiz-adv-x="1576" 
d="M989 1282q-1 88 -79 163t-193 75t-195 -76t-80 -174t47 -172q47 -72 152 -180q20 -20 45 -5q111 72 164 113t96 104q43 64 43 152zM223 334q0 -100 83 -174t224 -74q221 0 478 223q23 20 4 39l-363 389q-20 20 -45 6q-171 -98 -247 -164q-76 -65 -105 -122t-29 -123z
M1464 0h-92q-39 0 -61 27l-178 192q-23 20 -41 2q-287 -252 -562 -252q-202 -1 -316 105t-114 263t121 264t289 204q16 8 23 12q7 3 9 15t-5 20q-106 109 -159 200q-52 91 -52 203q0 160 113 267q114 106 277 106q164 0 276 -106t112 -250t-87 -236q-87 -94 -257 -200
q-8 -4 -10 -16t6 -19l344 -369q18 -18 39 0q119 127 221 275q8 12 23 14t26 -8l35 -29q29 -20 8 -53q-117 -164 -231 -287q-23 -23 0 -41l256 -276q6 -7 2 -17t-15 -10z" />
    <glyph glyph-name="quotesingle" unicode="'" horiz-adv-x="477" 
d="M248 948h-21q-14 0 -25 11t-12 26l-12 576q0 16 11 26t26 10h45q14 0 26 -10t11 -26l-12 -576q1 -13 -11 -25t-26 -12z" />
    <glyph glyph-name="parenleft" unicode="(" horiz-adv-x="759" 
d="M119 799q0 377 139 683t348 490q27 27 51 -4l29 -37q25 -29 -4 -53q-194 -168 -318 -448t-124 -631q0 -352 125 -631t317 -447q29 -25 4 -53l-29 -37q-25 -31 -51 -4q-209 183 -348 489t-139 683z" />
    <glyph glyph-name="parenright" unicode=")" horiz-adv-x="761" 
d="M641 801q0 -377 -139 -683t-348 -491q-27 -27 -52 4l-28 37q-25 29 4 53q193 168 317 448q125 280 125 632t-125 631t-317 446q-29 25 -4 53l28 37q25 31 52 4q209 -184 348 -489t139 -682z" />
    <glyph glyph-name="asterisk" unicode="*" horiz-adv-x="1079" 
d="M520 1597h45q17 0 27 -11t8 -25l-12 -289q-2 -10 6 -16t18 -3l269 101q14 4 28 -2t19 -21l12 -43q10 -35 -22 -45l-281 -76q-8 -2 -11 -12t3 -18l178 -224q23 -27 -8 -51l-35 -24q-31 -23 -51 8l-158 241q-6 11 -16 11t-17 -11l-155 -237q-20 -31 -52 -8l-34 24
q-31 25 -9 52l179 225q6 8 3 18t-14 13l-274 73q-14 3 -20 17t-3 28l15 43q4 15 18 21t29 2l266 -101q10 -3 18 3t7 16l-11 285q-1 14 9 25t26 11z" />
    <glyph glyph-name="plus" unicode="+" horiz-adv-x="1163" 
d="M561 303q-35 0 -37 37v322q0 29 -28 28h-324q-16 0 -27 11q-10 11 -10 26v41q0 14 10 26t27 11h324q28 0 28 29v323q0 13 10 25t27 12h41q16 0 26 -11t11 -26v-323q0 -29 29 -29h323q17 0 27 -11t10 -26v-41q0 -13 -10 -25t-27 -12h-323q-29 0 -29 -28v-322
q0 -37 -37 -37h-41z" />
    <glyph glyph-name="comma" unicode="," horiz-adv-x="499" 
d="M356 63q0 -178 -223 -372q-25 -25 -51 2l-2 4q-25 25 2 51q113 113 145 203q10 25 -18 35q-29 6 -49 32t-20 66q0 39 31 70q32 30 76 30t77 -32q32 -34 32 -89z" />
    <glyph glyph-name="hyphen" unicode="-" horiz-adv-x="907" 
d="M213 723h483q16 0 26 -11t11 -26v-41q0 -14 -10 -25t-27 -12h-483q-17 0 -27 12t-10 25v41q0 14 10 26q11 11 27 11z" />
    <glyph glyph-name="period" unicode="." horiz-adv-x="495" 
d="M248 -25q-43 0 -75 31t-32 74t32 74q32 30 75 30t74 -30q30 -30 30 -75q0 -44 -30 -74t-74 -30z" />
    <glyph glyph-name="slash" unicode="/" horiz-adv-x="1380" 
d="M1223 1901h59q12 1 20 -11t1 -22l-1090 -2138q-16 -33 -53 -33h-60q-12 -1 -19 11t-1 22l1089 2138q16 33 54 33z" />
    <glyph glyph-name="zero" unicode="0" horiz-adv-x="1490" 
d="M744 1509q-222 1 -354 -201t-132 -509t132 -509t354 -202t356 202q133 202 133 509t-133 509q-134 201 -356 201zM743 -31q-190 0 -330 115t-208 300q-68 184 -68 414t68 415t208 300t330 115q285 0 448 -238t163 -591q0 -352 -163 -591t-448 -239z" />
    <glyph glyph-name="one" unicode="1" horiz-adv-x="704" 
d="M434 0q-35 0 -37 37v1390q0 11 -9 17t-17 2l-252 -84q-12 -4 -24 3q-11 7 -11 21v54q0 35 35 49l280 96q31 12 72 12h10q13 0 25 -10t12 -26v-1524q0 -17 -11 -27t-26 -10h-47z" />
    <glyph glyph-name="two" unicode="2" horiz-adv-x="1314" 
d="M352 121h791q16 0 26 -11t11 -26v-47q0 -17 -10 -27t-27 -10h-983q-16 0 -27 10q-10 10 -10 27v18q0 37 27 64l606 588q197 192 243 277q45 86 45 173q0 160 -107 256t-273 96t-284 -99t-118 -292q0 -27 -20 -26h-76q-23 0 -23 26q0 130 46 230t123 159q158 121 361 121
q204 0 348 -129t144 -326t-148 -368q-58 -69 -83 -93t-98 -96l-492 -475q-6 -6 -3 -13t11 -7z" />
    <glyph glyph-name="three" unicode="3" horiz-adv-x="1290" 
d="M613 -31q-230 0 -459 133q-12 6 -16 22t5 28l23 38q23 31 51 13q201 -115 390 -115t308 96t119 245t-143 245t-391 104q-16 0 -27 10q-10 10 -10 27v33q0 35 37 37q236 8 360 111q124 102 123 230q0 128 -101 208q-100 80 -242 80t-238 -64q-96 -63 -113 -164
q-8 -43 -45 -39h-41q-15 3 -25 17t-8 28q16 140 148 238t320 98t326 -108t138 -283q0 -117 -78 -223t-227 -168q-6 -2 -6 -9t6 -10q170 -55 265 -160t95 -249q0 -193 -157 -321t-387 -128z" />
    <glyph glyph-name="four" unicode="4" horiz-adv-x="1388" 
d="M991 0q-35 0 -37 37v272q0 29 -28 29h-811q-16 0 -27 11q-10 11 -10 26v16q0 33 18 70l617 1104q20 33 55 32h63q13 0 19 -11t0 -21l-608 -1086q-4 -8 1 -16t13 -8h670q29 0 28 28v375q0 14 10 26t27 11h45q16 0 26 -11t11 -26v-375q0 -29 29 -28h166q14 -1 25 -11
t12 -26v-43q1 -13 -11 -25t-26 -12h-166q-29 0 -29 -29v-272q0 -37 -37 -37h-45z" />
    <glyph glyph-name="five" unicode="5" horiz-adv-x="1355" 
d="M1098 1597q35 0 37 -36v-48q-1 -14 -11 -25t-26 -11h-637q-29 0 -33 -29l-94 -571q-2 -7 5 -11t13 0q158 123 379 123t367 -144t147 -359q0 -215 -164 -366t-405 -151q-176 0 -324 83t-235 222q-8 10 -4 26t16 24l41 22q31 16 53 -12q76 -114 193 -180t258 -66
q194 0 322 117t128 283t-114 278t-312 113q-200 0 -376 -162q-27 -27 -62 -10l-37 16q-33 14 -26 51l135 787q8 36 43 36h723z" />
    <glyph glyph-name="six" unicode="6" horiz-adv-x="1337" 
d="M676 963q-219 0 -350 -179q-84 -115 -84 -260q0 -182 126 -309t309 -127t311 126t128 309t-128 311t-312 129zM809 1597h76q12 0 17 -10t-3 -20l-375 -512q-4 -4 0 -9t11 -4q78 23 153 23q229 0 388 -157t159 -386t-164 -391t-394 -162t-392 162t-162 389q0 188 110 344
l517 703q24 30 59 30z" />
    <glyph glyph-name="seven" unicode="7" horiz-adv-x="1222" 
d="M1004 1477h-871q-14 0 -25 11t-12 25v48q0 16 12 26t25 10h1004q14 0 25 -10t12 -26v-23q0 -41 -17 -70l-708 -1435q-16 -33 -54 -33h-63q-12 0 -20 11t-1 22l709 1417q4 10 -1 18t-15 9z" />
    <glyph glyph-name="eight" unicode="8" horiz-adv-x="1392" 
d="M695 1520q-161 0 -271 -90t-109 -220q0 -130 110 -221q111 -90 271 -90t271 90t111 220t-111 221q-111 90 -272 90zM694 799q-186 1 -313 -103t-127 -257t127 -256t313 -103t315 103q128 103 128 256q-1 153 -129 257t-314 103zM694 -31q-233 0 -398 132t-165 331
q0 139 83 247t220 163q8 2 8 10t-8 12q-112 52 -176 142t-63 206q0 176 147 296t353 120q207 0 355 -120t148 -296q0 -116 -66 -206t-178 -142q-8 -4 -8 -12t8 -10q138 -55 222 -163t84 -247q0 -199 -166 -331t-400 -132z" />
    <glyph glyph-name="nine" unicode="9" horiz-adv-x="1337" 
d="M662 635q219 0 350 178q84 115 84 260q0 182 -126 309t-309 127t-311 -126t-129 -309q1 -183 129 -311t312 -128zM528 0h-75q-12 0 -18 10q-5 10 3 21l375 512q4 4 0 9q-4 4 -46 -8t-118 -12q-229 0 -388 157t-159 386t164 391t394 162t393 -162q162 -162 161 -389
q0 -188 -110 -344l-516 -702q-25 -31 -60 -31z" />
    <glyph glyph-name="colon" unicode=":" horiz-adv-x="573" 
d="M287 707q-43 1 -75 31t-32 73t32 74t75 31t73 -32q30 -30 31 -74q-1 -44 -31 -74t-73 -29zM287 -25q-43 0 -75 31t-32 74t32 74q32 30 75 30t73 -30t31 -75q-1 -44 -31 -74t-73 -30z" />
    <glyph glyph-name="semicolon" unicode=";" horiz-adv-x="698" 
d="M371 707q-43 1 -75 31t-32 73t32 74t75 31t73 -32q30 -30 31 -74q-1 -44 -31 -74t-73 -29zM475 63q0 -178 -223 -372q-25 -25 -51 2l-2 4q-25 25 2 51q113 113 145 203q10 25 -18 35q-29 6 -49 32q-21 26 -21 66q0 39 32 70q32 30 76 30t76 -33t33 -88z" />
    <glyph glyph-name="less" unicode="&#x3c;" horiz-adv-x="1230" 
d="M111 764q0 37 32 53l858 420q9 6 21 -1t12 -19v-58q0 -37 -33 -53l-714 -344q-8 -4 -8 -12t8 -13l714 -344q33 -16 33 -53v-57q0 -12 -11 -20q-12 -7 -22 -1l-858 420q-33 16 -32 53v29z" />
    <glyph glyph-name="equal" unicode="=" horiz-adv-x="1265" 
d="M1040 432h-817q-14 0 -25 11t-12 26v39q0 16 12 26t25 11h817q16 0 26 -10t11 -27v-39q0 -14 -10 -26q-11 -11 -27 -11zM1040 954h-817q-14 0 -25 10t-12 27v41q0 16 12 26t25 11h817q16 0 26 -10t11 -27v-41q-1 -17 -11 -27t-26 -10z" />
    <glyph glyph-name="greater" unicode="&#x3e;" horiz-adv-x="1230" 
d="M1120 764v-29q0 -37 -33 -53l-858 -420q-10 -6 -21 1t-11 20v57q0 37 32 53l715 344q10 5 10 13t-10 12l-715 344q-33 16 -32 53v58q0 12 11 19t21 1l858 -420q33 -16 33 -53z" />
    <glyph glyph-name="question" unicode="?" horiz-adv-x="1089" 
d="M479 -25q-43 0 -75 31t-31 74q0 43 31 74q32 30 75 30t74 -30t31 -75q0 -44 -31 -74t-74 -30zM532 600v-33q0 -29 -28 -28h-45q-14 0 -25 10q-10 10 -10 24v39q0 119 70 191t167 140q98 67 149 129q50 62 50 174t-86 189t-219 77t-230 -74t-98 -203v-23q0 -20 -18 -20
h-76q-25 0 -24 25v26q0 179 136 281t313 102t300 -108t123 -283q0 -131 -66 -214q-65 -83 -153 -145t-106 -76q-92 -74 -108 -116q-16 -41 -16 -84z" />
    <glyph glyph-name="at" unicode="@" horiz-adv-x="2035" 
d="M1051 1110q-131 0 -233 -100t-103 -230q0 -130 83 -216q83 -85 214 -85q131 1 234 101q104 100 104 230t-84 215t-215 85zM988 379q-154 -1 -264 111t-110 284t136 304t309 132q171 0 281 -112t110 -256q0 -146 -74 -254q-16 -23 -2 -47q52 -103 166 -103t204 102t91 312
q0 313 -211 529t-524 216q-354 0 -614 -254t-259 -608q0 -309 210 -525t524 -216q182 0 354 78q33 18 51 -17l12 -18q18 -31 -14 -47q-197 -92 -412 -92q-352 0 -588 240t-237 591q0 260 134 485q135 226 361 356t486 130q352 0 591 -244t238 -596q1 -260 -119 -390
t-275 -130t-238 125q-14 25 -37 6q-126 -92 -280 -92z" />
    <glyph glyph-name="A" unicode="A" horiz-adv-x="1654" 
d="M408 475h839q10 0 16 8q5 9 1 19l-424 938q-12 20 -25 0l-424 -938q-4 -10 1 -18t16 -9zM856 1597q35 0 53 -32l701 -1532q6 -9 0 -21t-21 -12h-59q-37 0 -51 33l-138 301q-14 27 -41 26h-946q-27 0 -41 -26l-135 -301q-14 -33 -51 -33h-61q-14 0 -21 11q-6 12 0 22
l700 1532q18 33 54 32h57z" />
    <glyph glyph-name="B" unicode="B" horiz-adv-x="1613" 
d="M977 860q141 0 230 94t89 221q0 128 -93 218t-259 90h-565q-29 0 -29 -29v-565q0 -29 29 -29h598zM1362 437q0 133 -97 227t-255 94h-631q-29 0 -29 -29v-588q0 -29 29 -28h631q158 0 255 96t97 228zM266 0q-35 0 -37 37v1524q1 16 11 26t26 10h684q221 -1 345 -119
t124 -292q0 -115 -58 -210t-157 -147q-8 -4 -8 -11t8 -9q131 -47 206 -149t75 -234q0 -178 -129 -302t-336 -124h-754z" />
    <glyph glyph-name="C" unicode="C" horiz-adv-x="1759" 
d="M948 90q180 0 335 84t251 229q23 29 53 13l43 -25q14 -6 18 -21t-6 -26q-114 -172 -296 -273t-398 -102q-346 0 -590 243t-244 586q0 342 244 586t590 244q212 0 396 -101t296 -274q8 -10 6 -25t-18 -22l-41 -22q-33 -18 -53 12q-98 143 -252 227t-334 84
q-293 0 -502 -208q-208 -209 -208 -501t208 -500t502 -208z" />
    <glyph glyph-name="D" unicode="D" horiz-adv-x="1722" 
d="M1477 799q0 299 -167 489t-462 191h-469q-29 0 -29 -29v-1303q0 -29 29 -28h469q295 1 462 191t167 489zM266 0q-35 0 -37 37v1524q1 16 11 26t26 10h588q352 0 548 -225t196 -574t-196 -574q-196 -224 -548 -224h-588z" />
    <glyph glyph-name="E" unicode="E" horiz-adv-x="1454" 
d="M1327 1516q0 -37 -37 -37h-911q-29 0 -29 -29v-580q0 -29 29 -28h766q14 0 25 -12t12 -25v-41q0 -14 -12 -26t-25 -11h-766q-29 0 -29 -29v-551q0 -29 29 -28h911q16 0 26 -10t11 -27v-45q0 -16 -10 -27q-11 -10 -27 -10h-1024q-35 0 -37 37v1524q1 16 11 26t26 10h1024
q37 0 37 -36v-45z" />
    <glyph glyph-name="F" unicode="F" horiz-adv-x="1402" 
d="M1286 1516q0 -37 -37 -37h-870q-29 0 -29 -29v-633q0 -29 29 -29h745q14 0 26 -11t11 -25v-41q0 -13 -11 -25t-26 -12h-745q-29 0 -29 -29v-608q0 -16 -11 -27q-12 -10 -26 -10h-47q-35 0 -37 37v1524q1 16 11 26t26 10h983q37 0 37 -36v-45z" />
    <glyph glyph-name="G" unicode="G" horiz-adv-x="1810" 
d="M948 -31q-346 0 -590 243t-244 586q0 342 244 586t590 244q190 0 360 -83t285 -226q8 -9 6 -25t-14 -24l-39 -27q-29 -23 -53 6q-101 121 -243 190t-302 68q-293 0 -502 -208q-208 -209 -208 -501t208 -500t502 -208q180 0 335 85t253 233q14 25 14 51v227q1 29 -28 29
h-518q-16 0 -27 11q-10 11 -10 26v32q0 14 10 26t27 11h624q14 0 26 -11t11 -26v-747q0 -17 -11 -27t-26 -10h-29q-14 0 -25 10t-11 27v160l-2 49l-2 4q-1 6 -7 8t-10 -4q-100 -133 -257 -209t-337 -76z" />
    <glyph glyph-name="H" unicode="H" horiz-adv-x="1798" 
d="M266 0q-35 0 -37 37v1524q1 16 11 26t26 10h47q13 0 25 -10t12 -26v-691q0 -29 29 -28h1040q29 -1 29 28v691q0 16 11 26t26 10h47q37 0 37 -36v-1524q0 -37 -37 -37h-47q-14 0 -26 10q-11 10 -11 27v661q0 29 -29 29h-1040q-29 0 -29 -29v-661q0 -17 -11 -27t-26 -10
h-47z" />
    <glyph glyph-name="I" unicode="I" horiz-adv-x="577" 
d="M229 37v1524q1 16 11 26t26 10h47q13 0 25 -10t12 -26v-1524q0 -17 -11 -27t-26 -10h-47q-16 0 -26 10t-11 27z" />
    <glyph glyph-name="J" unicode="J" horiz-adv-x="1394" 
d="M90 631q0 35 37 37h49q16 0 26 -10t11 -27v-99q0 -216 122 -330t303 -114t303 114t122 330v1029q0 16 11 26t26 10h47q37 0 37 -36v-1029q0 -266 -157 -414t-388 -148t-390 149q-159 150 -159 413v99z" />
    <glyph glyph-name="K" unicode="K" horiz-adv-x="1593" 
d="M266 0q-35 0 -37 37v1524q1 16 11 26t26 10h47q13 0 25 -10t12 -26v-910q0 -8 7 -11t14 3l983 930q29 25 63 24h90q11 0 15 -9t-4 -15l-648 -615q-18 -23 -2 -43l682 -886q8 -9 2 -19t-16 -10h-80q-35 0 -59 29l-619 800q-18 23 -39 2l-368 -348q-20 -20 -21 -49v-397
q0 -16 -11 -27q-12 -10 -26 -10h-47z" />
    <glyph glyph-name="L" unicode="L" horiz-adv-x="1341" 
d="M266 0q-35 0 -37 37v1524q1 16 11 26t26 10h47q13 0 25 -10t12 -26v-1414q0 -29 29 -28h858q17 0 27 -10t10 -27v-45q0 -16 -10 -27q-11 -10 -27 -10h-971z" />
    <glyph glyph-name="M" unicode="M" horiz-adv-x="2078" 
d="M1851 37q0 -37 -36 -37h-48q-14 0 -25 10t-11 27v1300q0 6 -6 8q-5 1 -9 -4l-616 -1042q-16 -31 -56 -31h-10q-39 0 -55 31l-614 1038q-6 8 -13 2l-2 -6v-1296q0 -17 -11 -27t-26 -10h-47q-35 0 -37 37v1524q1 16 11 26t26 10h41q39 0 55 -32l664 -1125q4 -8 14 -8t15 8
l663 1125q16 33 56 32h41q16 0 26 -10t10 -26v-1524z" />
    <glyph glyph-name="N" unicode="N" horiz-adv-x="1792" 
d="M1528 1597q35 0 37 -36v-1524q-1 -17 -11 -27t-26 -10h-35q-37 0 -59 29l-1065 1337q-3 6 -11 4t-8 -10v-1323q0 -17 -11 -27t-26 -10h-47q-35 0 -37 37v1524q1 16 11 26t26 10h35q35 0 59 -28l1065 -1340q4 -6 12 -4q7 2 7 11v1325q0 16 11 26t26 10h47z" />
    <glyph glyph-name="O" unicode="O" 
d="M948 1507q-293 0 -502 -208q-208 -209 -208 -501t208 -500t502 -208q293 0 501 208t208 500t-208 500t-501 209zM947 -31q-345 0 -589 243t-244 586q0 342 244 586t589 244t589 -244t244 -586t-244 -586q-244 -243 -589 -243z" />
    <glyph glyph-name="P" unicode="P" horiz-adv-x="1519" 
d="M842 612q213 0 340 128t127 310q0 181 -126 307t-341 126h-463q-29 0 -29 -29v-813q0 -29 29 -29h463zM266 0q-35 0 -37 37v1524q1 16 11 26t26 10h580q270 -1 428 -159t158 -389t-159 -391t-427 -160h-467q-29 0 -29 -29v-432q0 -16 -11 -27q-12 -10 -26 -10h-47z" />
    <glyph glyph-name="Q" unicode="Q" horiz-adv-x="1888" 
d="M944 1507q-291 0 -499 -208q-207 -209 -207 -501t206 -500t499 -208q292 0 499 208t207 501t-207 501t-498 207zM115 812q1 330 243 572q242 244 585 244t587 -244t244 -585q0 -279 -165 -497t-423 -296q-8 -2 -8 -10t6 -10q43 -23 147 -80q105 -57 159 -84
q161 -80 277 -80q117 0 193 82q25 27 53 4l37 -31q24 -24 4 -51q-113 -123 -293 -123q-106 0 -238 53q-133 52 -237 116q-283 172 -440 183q-311 35 -521 271t-210 566z" />
    <glyph glyph-name="R" unicode="R" horiz-adv-x="1626" 
d="M1360 1081q0 168 -115 285t-315 117h-551q-29 0 -29 -29v-745q0 -29 29 -29h551q202 0 316 116t114 285zM229 37v1524q1 16 11 26t26 10h668q250 0 397 -148t148 -366q0 -166 -89 -297t-249 -188q-24 -10 -11 -33l383 -534q6 -11 1 -21t-17 -10h-74q-37 0 -57 31
l-369 518q-16 16 -36 16h-582q-29 0 -29 -28v-500q0 -17 -11 -27t-26 -10h-47q-16 0 -26 10t-11 27z" />
    <glyph glyph-name="S" unicode="S" horiz-adv-x="1441" 
d="M744 -31q-263 1 -435 107t-186 278q-2 16 11 32t30 13h35q39 -4 43 -41q18 -124 152 -200t349 -76t335 82t120 205t-85 195q-85 73 -253 129q-56 19 -158 50q-339 104 -447 202q-48 44 -85 113t-37 152q0 188 155 303q156 115 410 115t420 -108t178 -279q2 -13 -8 -29
t-24 -16h-45q-37 0 -41 41q-16 125 -144 202t-336 77q-206 0 -322 -82t-116 -202t68 -180q37 -34 79 -65t145 -65q208 -71 320 -104q111 -33 179 -70q160 -86 205 -152q73 -101 71 -211q0 -188 -160 -302t-423 -114z" />
    <glyph glyph-name="T" unicode="T" horiz-adv-x="1384" 
d="M602 1479h-510q-14 0 -25 10t-12 27v45q-1 16 11 26t26 10h1200q14 0 26 -10t11 -26v-45q0 -16 -11 -26t-26 -11h-512q-29 0 -28 -29v-1413q0 -17 -12 -27t-25 -10h-47q-16 0 -27 10q-10 10 -10 27v1413q0 29 -29 29z" />
    <glyph glyph-name="U" unicode="U" horiz-adv-x="1753" 
d="M291 1597q35 0 37 -36v-953q0 -232 144 -376t406 -144t404 144q143 144 143 376v953q1 16 11 26t26 10h47q13 0 25 -10t12 -26v-957q0 -279 -176 -457t-493 -178t-494 178q-176 178 -176 457v957q0 16 11 26t26 10h47z" />
    <glyph glyph-name="V" unicode="V" horiz-adv-x="1654" 
d="M856 0h-55q-35 0 -53 33l-703 1532q-6 10 0 21t21 11h61q37 0 51 -32l637 -1409q12 -20 25 0l639 1409q14 33 51 32h59q15 0 21 -11t0 -21l-701 -1532q-18 -33 -53 -33z" />
    <glyph glyph-name="W" unicode="W" horiz-adv-x="2320" 
d="M659 0h-59q-35 0 -49 35l-490 1528q-5 12 3 23t22 11h57q37 0 47 -34l433 -1356q2 -6 8 -6t8 6l448 1356q14 35 50 34h45q35 0 49 -34l448 -1356q3 -6 9 -6t8 6l434 1356q10 35 47 34h57q14 0 22 -11t3 -23l-490 -1528q-14 -35 -49 -35h-59q-35 0 -49 35l-445 1341
q-2 6 -8 6t-8 -6l-442 -1341q-14 -35 -50 -35z" />
    <glyph glyph-name="X" unicode="X" horiz-adv-x="1538" 
d="M1454 1597q10 0 15 -10t-1 -18l-606 -742q-18 -23 0 -45l619 -753q6 -9 1 -19t-16 -10h-75q-37 0 -60 29l-543 663q-18 23 -36 0l-543 -663q-23 -29 -59 -29h-78q-10 0 -16 10q-5 10 1 19l619 753q18 23 0 45l-606 742q-6 8 -1 18t15 10h74q37 0 59 -28l533 -651
q18 -23 36 0l535 651q23 29 59 28h74z" />
    <glyph glyph-name="Y" unicode="Y" horiz-adv-x="1624" 
d="M872 37q0 -37 -36 -37h-48q-14 0 -25 10t-11 27v518q0 29 -17 51l-686 961q-7 10 -1 20t18 10h71q37 0 58 -30l600 -838q16 -20 32 0l603 838q20 31 57 30h72q12 0 17 -10t-1 -20l-686 -959q-16 -23 -17 -51v-520z" />
    <glyph glyph-name="Z" unicode="Z" horiz-adv-x="1392" 
d="M1270 119q35 0 37 -37v-45q-1 -17 -11 -27t-26 -10h-1166q-14 0 -25 10t-11 27v18q0 39 22 66l1028 1335q6 8 3 16t-13 7h-969q-35 0 -37 37v45q0 16 10 26t27 10h1135q35 0 37 -36v-19q0 -39 -23 -65l-1030 -1336q-6 -8 -3 -15t13 -7h1002z" />
    <glyph glyph-name="bracketleft" unicode="[" horiz-adv-x="749" 
d="M221 -381q-35 0 -37 37v2288q0 14 10 25t27 11h420q13 0 25 -11t12 -25v-43q0 -17 -11 -27t-26 -10h-307q-29 0 -29 -29v-2071q0 -28 29 -28h307q13 0 25 -11t12 -26v-43q0 -16 -11 -26t-26 -11h-420z" />
    <glyph glyph-name="backslash" unicode="\" horiz-adv-x="1380" 
d="M1282 -305h-59q-37 0 -54 33l-1089 2138q-6 10 1 21t19 11h60q37 1 53 -32l1090 -2138q6 -10 -1 -22t-20 -11z" />
    <glyph glyph-name="bracketright" unicode="]" horiz-adv-x="749" 
d="M565 -344q0 -37 -37 -37h-419q-14 0 -26 10q-11 10 -11 27v43q0 13 11 25t26 12h307q29 0 28 28v2071q1 29 -28 29h-307q-14 0 -26 10q-11 10 -11 27v43q0 14 11 25t26 11h419q16 0 26 -11t11 -25v-2288z" />
    <glyph glyph-name="asciicircum" unicode="^" horiz-adv-x="1249" 
d="M639 1597q37 0 53 -32l420 -820q6 -10 -1 -21t-19 -11h-58q-37 0 -53 32l-344 676q-2 9 -12 9t-13 -9l-344 -676q-16 -33 -53 -32h-57q-12 0 -20 11q-7 11 -1 21l418 820q16 33 53 32h31z" />
    <glyph glyph-name="underscore" unicode="_" horiz-adv-x="1284" 
d="M1204 -238q0 -36 -37 -36h-1050q-14 0 -26 10q-11 10 -11 26v37q0 16 11 27q12 10 26 10h1050q17 0 27 -10t10 -27v-37z" />
    <glyph glyph-name="grave" unicode="`" horiz-adv-x="563" 
d="M90 2097l442 -268q31 -18 13 -51l-10 -17q-18 -33 -52 -14l-450 246q-33 18 -15 51l23 39q18 32 49 14z" />
    <glyph glyph-name="a" unicode="a" horiz-adv-x="1654" 
d="M408 475h839q10 0 16 8q5 9 1 19l-424 938q-12 20 -25 0l-424 -938q-4 -10 1 -18t16 -9zM856 1597q35 0 53 -32l701 -1532q6 -9 0 -21t-21 -12h-59q-37 0 -51 33l-138 301q-14 27 -41 26h-946q-27 0 -41 -26l-135 -301q-14 -33 -51 -33h-61q-14 0 -21 11q-6 12 0 22
l700 1532q18 33 54 32h57z" />
    <glyph glyph-name="b" unicode="b" horiz-adv-x="1613" 
d="M977 860q141 0 230 94t89 221q0 128 -93 218t-259 90h-565q-29 0 -29 -29v-565q0 -29 29 -29h598zM1362 437q0 133 -97 227t-255 94h-631q-29 0 -29 -29v-588q0 -29 29 -28h631q158 0 255 96t97 228zM266 0q-35 0 -37 37v1524q1 16 11 26t26 10h684q221 -1 345 -119
t124 -292q0 -115 -58 -210t-157 -147q-8 -4 -8 -11t8 -9q131 -47 206 -149t75 -234q0 -178 -129 -302t-336 -124h-754z" />
    <glyph glyph-name="c" unicode="c" horiz-adv-x="1759" 
d="M948 90q180 0 335 84t251 229q23 29 53 13l43 -25q14 -6 18 -21t-6 -26q-114 -172 -296 -273t-398 -102q-346 0 -590 243t-244 586q0 342 244 586t590 244q212 0 396 -101t296 -274q8 -10 6 -25t-18 -22l-41 -22q-33 -18 -53 12q-98 143 -252 227t-334 84
q-293 0 -502 -208q-208 -209 -208 -501t208 -500t502 -208z" />
    <glyph glyph-name="d" unicode="d" horiz-adv-x="1722" 
d="M1477 799q0 299 -167 489t-462 191h-469q-29 0 -29 -29v-1303q0 -29 29 -28h469q295 1 462 191t167 489zM266 0q-35 0 -37 37v1524q1 16 11 26t26 10h588q352 0 548 -225t196 -574t-196 -574q-196 -224 -548 -224h-588z" />
    <glyph glyph-name="e" unicode="e" horiz-adv-x="1454" 
d="M1327 1516q0 -37 -37 -37h-911q-29 0 -29 -29v-580q0 -29 29 -28h766q14 0 25 -12t12 -25v-41q0 -14 -12 -26t-25 -11h-766q-29 0 -29 -29v-551q0 -29 29 -28h911q16 0 26 -10t11 -27v-45q0 -16 -10 -27q-11 -10 -27 -10h-1024q-35 0 -37 37v1524q1 16 11 26t26 10h1024
q37 0 37 -36v-45z" />
    <glyph glyph-name="f" unicode="f" horiz-adv-x="1402" 
d="M1286 1516q0 -37 -37 -37h-870q-29 0 -29 -29v-633q0 -29 29 -29h745q14 0 26 -11t11 -25v-41q0 -13 -11 -25t-26 -12h-745q-29 0 -29 -29v-608q0 -16 -11 -27q-12 -10 -26 -10h-47q-35 0 -37 37v1524q1 16 11 26t26 10h983q37 0 37 -36v-45z" />
    <glyph glyph-name="g" unicode="g" horiz-adv-x="1810" 
d="M948 -31q-346 0 -590 243t-244 586q0 342 244 586t590 244q190 0 360 -83t285 -226q8 -9 6 -25t-14 -24l-39 -27q-29 -23 -53 6q-101 121 -243 190t-302 68q-293 0 -502 -208q-208 -209 -208 -501t208 -500t502 -208q180 0 335 85t253 233q14 25 14 51v227q1 29 -28 29
h-518q-16 0 -27 11q-10 11 -10 26v32q0 14 10 26t27 11h624q14 0 26 -11t11 -26v-747q0 -17 -11 -27t-26 -10h-29q-14 0 -25 10t-11 27v160l-2 49l-2 4q-1 6 -7 8t-10 -4q-100 -133 -257 -209t-337 -76z" />
    <glyph glyph-name="h" unicode="h" horiz-adv-x="1798" 
d="M266 0q-35 0 -37 37v1524q1 16 11 26t26 10h47q13 0 25 -10t12 -26v-691q0 -29 29 -28h1040q29 -1 29 28v691q0 16 11 26t26 10h47q37 0 37 -36v-1524q0 -37 -37 -37h-47q-14 0 -26 10q-11 10 -11 27v661q0 29 -29 29h-1040q-29 0 -29 -29v-661q0 -17 -11 -27t-26 -10
h-47z" />
    <glyph glyph-name="i" unicode="i" horiz-adv-x="577" 
d="M229 37v1524q1 16 11 26t26 10h47q13 0 25 -10t12 -26v-1524q0 -17 -11 -27t-26 -10h-47q-16 0 -26 10t-11 27z" />
    <glyph glyph-name="j" unicode="j" horiz-adv-x="1394" 
d="M90 631q0 35 37 37h49q16 0 26 -10t11 -27v-99q0 -216 122 -330t303 -114t303 114t122 330v1029q0 16 11 26t26 10h47q37 0 37 -36v-1029q0 -266 -157 -414t-388 -148t-390 149q-159 150 -159 413v99z" />
    <glyph glyph-name="k" unicode="k" horiz-adv-x="1593" 
d="M266 0q-35 0 -37 37v1524q1 16 11 26t26 10h47q13 0 25 -10t12 -26v-910q0 -8 7 -11t14 3l983 930q29 25 63 24h90q11 0 15 -9t-4 -15l-648 -615q-18 -23 -2 -43l682 -886q8 -9 2 -19t-16 -10h-80q-35 0 -59 29l-619 800q-18 23 -39 2l-368 -348q-20 -20 -21 -49v-397
q0 -16 -11 -27q-12 -10 -26 -10h-47z" />
    <glyph glyph-name="l" unicode="l" horiz-adv-x="1341" 
d="M266 0q-35 0 -37 37v1524q1 16 11 26t26 10h47q13 0 25 -10t12 -26v-1414q0 -29 29 -28h858q17 0 27 -10t10 -27v-45q0 -16 -10 -27q-11 -10 -27 -10h-971z" />
    <glyph glyph-name="m" unicode="m" horiz-adv-x="2078" 
d="M1851 37q0 -37 -36 -37h-48q-14 0 -25 10t-11 27v1300q0 6 -6 8q-5 1 -9 -4l-616 -1042q-16 -31 -56 -31h-10q-39 0 -55 31l-614 1038q-6 8 -13 2l-2 -6v-1296q0 -17 -11 -27t-26 -10h-47q-35 0 -37 37v1524q1 16 11 26t26 10h41q39 0 55 -32l664 -1125q4 -8 14 -8t15 8
l663 1125q16 33 56 32h41q16 0 26 -10t10 -26v-1524z" />
    <glyph glyph-name="n" unicode="n" horiz-adv-x="1796" 
d="M266 0q-35 0 -37 37v1524q1 16 11 26t26 10h35q37 0 59 -28l1065 -1338q4 -6 12 -4q7 2 7 11v1323q0 16 11 26t26 10h49q14 0 25 -10t12 -26v-1524q1 -17 -11 -27t-26 -10h-37q-35 0 -59 29l-1065 1339q-3 6 -11 4t-8 -10v-1325q0 -17 -11 -27t-26 -10h-47z" />
    <glyph glyph-name="o" unicode="o" 
d="M948 1507q-293 0 -502 -208q-208 -209 -208 -501t208 -500t502 -208q293 0 501 208t208 500t-208 500t-501 209zM947 -31q-345 0 -589 243t-244 586q0 342 244 586t589 244t589 -244t244 -586t-244 -586q-244 -243 -589 -243z" />
    <glyph glyph-name="p" unicode="p" horiz-adv-x="1519" 
d="M842 612q213 0 340 128t127 310q0 181 -126 307t-341 126h-463q-29 0 -29 -29v-813q0 -29 29 -29h463zM266 0q-35 0 -37 37v1524q1 16 11 26t26 10h580q270 -1 428 -159t158 -389t-159 -391t-427 -160h-467q-29 0 -29 -29v-432q0 -16 -11 -27q-12 -10 -26 -10h-47z" />
    <glyph glyph-name="q" unicode="q" horiz-adv-x="1888" 
d="M944 1507q-291 0 -499 -208q-207 -209 -207 -501t206 -500t499 -208q292 0 499 208t207 501t-207 501t-498 207zM115 812q1 330 243 572q242 244 585 244t587 -244t244 -585q0 -279 -165 -497t-423 -296q-8 -2 -8 -10t6 -10q43 -23 147 -80q105 -57 159 -84
q161 -80 277 -80q117 0 193 82q25 27 53 4l37 -31q24 -24 4 -51q-113 -123 -293 -123q-106 0 -238 53q-133 52 -237 116q-283 172 -440 183q-311 35 -521 271t-210 566z" />
    <glyph glyph-name="r" unicode="r" horiz-adv-x="1626" 
d="M1360 1081q0 168 -115 285t-315 117h-551q-29 0 -29 -29v-745q0 -29 29 -29h551q202 0 316 116t114 285zM229 37v1524q1 16 11 26t26 10h668q250 0 397 -148t148 -366q0 -166 -89 -297t-249 -188q-24 -10 -11 -33l383 -534q6 -11 1 -21t-17 -10h-74q-37 0 -57 31
l-369 518q-16 16 -36 16h-582q-29 0 -29 -28v-500q0 -17 -11 -27t-26 -10h-47q-16 0 -26 10t-11 27z" />
    <glyph glyph-name="s" unicode="s" horiz-adv-x="1441" 
d="M744 -31q-263 1 -435 107t-186 278q-2 16 11 32t30 13h35q39 -4 43 -41q18 -124 152 -200t349 -76t335 82t120 205t-85 195q-85 73 -253 129q-56 19 -158 50q-339 104 -447 202q-48 44 -85 113t-37 152q0 188 155 303q156 115 410 115t420 -108t178 -279q2 -13 -8 -29
t-24 -16h-45q-37 0 -41 41q-16 125 -144 202t-336 77q-206 0 -322 -82t-116 -202t68 -180q37 -34 79 -65t145 -65q208 -71 320 -104q111 -33 179 -70q160 -86 205 -152q73 -101 71 -211q0 -188 -160 -302t-423 -114z" />
    <glyph glyph-name="t" unicode="t" horiz-adv-x="1384" 
d="M602 1479h-510q-14 0 -25 10t-12 27v45q-1 16 11 26t26 10h1200q14 0 26 -10t11 -26v-45q0 -16 -11 -26t-26 -11h-512q-29 0 -28 -29v-1413q0 -17 -12 -27t-25 -10h-47q-16 0 -27 10q-10 10 -10 27v1413q0 29 -29 29z" />
    <glyph glyph-name="u" unicode="u" horiz-adv-x="1753" 
d="M291 1597q35 0 37 -36v-953q0 -232 144 -376t406 -144t404 144q143 144 143 376v953q1 16 11 26t26 10h47q13 0 25 -10t12 -26v-957q0 -279 -176 -457t-493 -178t-494 178q-176 178 -176 457v957q0 16 11 26t26 10h47z" />
    <glyph glyph-name="v" unicode="v" horiz-adv-x="1654" 
d="M856 0h-55q-35 0 -53 33l-703 1532q-6 10 0 21t21 11h61q37 0 51 -32l637 -1409q12 -20 25 0l639 1409q14 33 51 32h59q15 0 21 -11t0 -21l-701 -1532q-18 -33 -53 -33z" />
    <glyph glyph-name="w" unicode="w" horiz-adv-x="2320" 
d="M659 0h-59q-35 0 -49 35l-490 1528q-5 12 3 23t22 11h57q37 0 47 -34l433 -1356q2 -6 8 -6t8 6l448 1356q14 35 50 34h45q35 0 49 -34l448 -1356q3 -6 9 -6t8 6l434 1356q10 35 47 34h57q14 0 22 -11t3 -23l-490 -1528q-14 -35 -49 -35h-59q-35 0 -49 35l-445 1341
q-2 6 -8 6t-8 -6l-442 -1341q-14 -35 -50 -35z" />
    <glyph glyph-name="x" unicode="x" horiz-adv-x="1538" 
d="M1454 1597q10 0 15 -10t-1 -18l-606 -742q-18 -23 0 -45l619 -753q6 -9 1 -19t-16 -10h-75q-37 0 -60 29l-543 663q-18 23 -36 0l-543 -663q-23 -29 -59 -29h-78q-10 0 -16 10q-5 10 1 19l619 753q18 23 0 45l-606 742q-6 8 -1 18t15 10h74q37 0 59 -28l533 -651
q18 -23 36 0l535 651q23 29 59 28h74z" />
    <glyph glyph-name="y" unicode="y" horiz-adv-x="1624" 
d="M872 37q0 -37 -36 -37h-48q-14 0 -25 10t-11 27v518q0 29 -17 51l-686 961q-7 10 -1 20t18 10h71q37 0 58 -30l600 -838q16 -20 32 0l603 838q20 31 57 30h72q12 0 17 -10t-1 -20l-686 -959q-16 -23 -17 -51v-520z" />
    <glyph glyph-name="z" unicode="z" horiz-adv-x="1392" 
d="M1270 119q35 0 37 -37v-45q-1 -17 -11 -27t-26 -10h-1166q-14 0 -25 10t-11 27v18q0 39 22 66l1028 1335q6 8 3 16t-13 7h-969q-35 0 -37 37v45q0 16 10 26t27 10h1135q35 0 37 -36v-19q0 -39 -23 -65l-1030 -1336q-6 -8 -3 -15t13 -7h1002z" />
    <glyph glyph-name="braceleft" unicode="{" horiz-adv-x="690" 
d="M186 -56q0 130 77 322t77 270q0 77 -51 138t-144 69q-18 1 -31 15t-12 35v20q4 37 43 41q91 8 143 70t52 138t-77 270t-77 324t89 226q89 98 270 98h24q18 0 19 -18v-74q0 -20 -19 -20h-24q-133 0 -189 -68t-55 -164q0 -96 79 -288t79 -285q0 -164 -133 -250
q-20 -16 0 -29q133 -86 133 -249q0 -90 -79 -284t-79 -289t55 -163t189 -67h24q18 0 19 -21v-73q0 -18 -19 -19h-24q-180 0 -270 97q-89 98 -89 228z" />
    <glyph glyph-name="bar" unicode="|" horiz-adv-x="485" 
d="M266 1978q37 0 37 -36v-2284q0 -14 -10 -26t-27 -11h-45q-17 -1 -27 11t-10 26v2284q0 16 10 26t27 10h45z" />
    <glyph glyph-name="braceright" unicode="}" horiz-adv-x="690" 
d="M350 1062q0 -77 51 -138t144 -70q17 -2 31 -15t12 -34v-21q-4 -37 -43 -41q-91 -8 -143 -69t-52 -138t77 -271q77 -193 77 -323t-89 -228t-270 -97h-24q-18 0 -19 18v74q0 20 19 21h24q133 0 189 67q55 68 55 164t-79 289t-79 285q0 164 134 249q20 16 0 29
q-133 86 -134 250q0 90 79 284q79 195 79 289t-55 162t-189 68h-24q-18 0 -19 20v74q0 18 19 18h24q179 0 269 -97t90 -227t-77 -323q-77 -192 -77 -269z" />
    <glyph glyph-name="asciitilde" unicode="~" horiz-adv-x="1157" 
d="M393 715q-38 0 -70 -41t-40 -107q-4 -37 -41 -37h-19q-14 0 -24 12t-9 25q8 102 62 177t154 75q51 1 96 -23q46 -24 124 -102t130 -78t82 41q31 41 34 107q4 37 41 37h21q14 0 24 -11t9 -26q-7 -102 -57 -177t-150 -75q-51 0 -90 24t-108 85t-100 78q-31 16 -69 16z" />
    <glyph glyph-name="uni00A0" unicode="&#xa0;" horiz-adv-x="708" 
 />
    <glyph glyph-name="exclamdown" unicode="&#xa1;" horiz-adv-x="528" 
d="M264 1622q43 0 75 -31t32 -73t-32 -74q-32 -31 -75 -31t-75 31t-31 74q0 44 32 74t74 30zM293 0h-57q-14 0 -26 10q-11 10 -11 27l18 1112q0 13 10 25t27 12h20q16 0 27 -11q10 -12 10 -26l19 -1112q0 -17 -12 -27t-25 -10z" />
    <glyph glyph-name="cent" unicode="&#xa2;" horiz-adv-x="1318" 
d="M698 242q219 0 355 172q20 31 53 12l43 -23q31 -20 10 -49q-152 -199 -395 -229q-29 -4 -29 -31v-108q0 -14 -11 -26t-26 -11h-43q-16 0 -26 11t-11 26v112q0 29 -28 33q-199 39 -330 196t-131 357t131 356t330 195q29 4 28 33v114q0 14 10 26t27 11h43q14 0 26 -11
t11 -26v-110q0 -27 29 -31q244 -31 393 -227q20 -29 -10 -49l-41 -23q-33 -18 -53 12q-135 172 -355 172q-186 0 -317 -130t-131 -312t131 -312t317 -130z" />
    <glyph glyph-name="sterling" unicode="&#xa3;" horiz-adv-x="1228" 
d="M872 680q0 -37 -36 -37h-363q-28 -1 -21 -53t7 -119q0 -199 -97 -328q-6 -8 -3 -15t14 -7h663q16 0 26 -11t11 -26v-47q0 -16 -10 -27q-11 -10 -27 -10h-862q-14 0 -26 10q-11 10 -11 27v16q0 37 31 60q100 71 136 155t36 174t-14 172q-4 29 -33 29h-113q-35 0 -37 37v39
q1 14 11 25t26 12h88q10 0 18 8q7 8 3 21q-5 13 -23 73t-24 84q-6 25 -22 88t-15 146q0 212 128 332t313 120t309 -108t135 -281q2 -15 -10 -29t-25 -14h-45q-16 -2 -28 10q-11 12 -13 31q-11 125 -99 199t-222 74t-229 -90q-95 -89 -95 -244q0 -84 20 -155t40 -135t28 -98
q10 -33 37 -32h387q16 0 26 -12t10 -25v-39z" />
    <glyph glyph-name="yen" unicode="&#xa5;" horiz-adv-x="1718" 
d="M1380 778q0 -35 -37 -37h-284q-29 0 -45 -22l-78 -111q-16 -20 -16 -51v-55q-1 -29 28 -29h395q17 0 27 -11t10 -26v-33q0 -14 -10 -25t-27 -11h-395q-29 0 -28 -29v-301q0 -17 -12 -27t-25 -10h-47q-16 0 -27 10q-10 10 -10 27v301q0 29 -29 29h-393q-16 0 -27 11
q-10 11 -10 25v33q0 14 10 26t27 11h393q29 0 29 29v55q0 31 -17 51l-77 111q-16 23 -46 22h-282q-17 1 -27 11t-10 26v33q0 37 37 37h207q8 0 12 8t0 14l-500 697q-6 10 -1 20t18 10h71q37 0 58 -30l600 -838q16 -20 32 0l603 838q20 31 57 30h72q12 0 17 -10t-1 -20
l-500 -697q-4 -6 0 -14t13 -8h208q17 0 27 -10t10 -27v-33z" />
    <glyph glyph-name="brokenbar" unicode="&#xa6;" horiz-adv-x="509" 
d="M233 942q-36 0 -36 37v963q0 16 10 26t26 10h46q16 0 26 -10t10 -26v-963q0 -37 -36 -37h-46zM197 -342v963q0 14 10 25t26 11h46q16 0 26 -11t10 -25v-963q0 -14 -10 -26t-26 -11h-46q-16 -1 -26 11t-10 26z" />
    <glyph glyph-name="section" unicode="&#xa7;" horiz-adv-x="1122" 
d="M862 780q0 82 -70 128q-71 46 -235 104q-16 6 -37 6q-112 -6 -186 -60t-74 -138q0 -83 70 -130t225 -102q33 -8 53 -6q115 10 185 63q69 53 69 135zM766 508q0 -8 6 -12q168 -90 168 -244q0 -127 -101 -205t-273 -78t-280 79t-116 228q-2 14 8 26t25 13h41q37 0 41 -36
q23 -209 283 -209q120 0 189 53t69 127t-50 118q-49 44 -123 74q-74 29 -140 54t-102 38q-37 13 -95 45q-58 31 -91 61q-84 74 -84 196q1 70 55 139q54 68 152 104q8 3 9 11t-7 12q-170 94 -170 244q0 126 102 204t272 78q171 0 281 -81t117 -230q0 -13 -9 -25t-23 -12h-43
q-37 0 -41 37q-10 109 -86 160t-196 51t-188 -53t-69 -128q0 -75 54 -122t123 -73q70 -26 132 -48t134 -53q73 -31 109 -58t69 -59q63 -62 63 -154q0 -184 -207 -262q-8 -2 -8 -10z" />
    <glyph glyph-name="dieresis" unicode="&#xa8;" horiz-adv-x="634" 
d="M541 1798q-39 0 -67 27t-28 65t28 67q28 28 67 28t67 -28t27 -67q1 -40 -27 -66t-67 -26zM94 1798q-38 0 -66 27t-28 65t28 67q28 28 66 28t66 -28q26 -28 26 -67q0 -40 -26 -66t-66 -26z" />
    <glyph glyph-name="copyright" unicode="&#xa9;" horiz-adv-x="1914" 
d="M643 800q0 -130 92 -222q93 -92 233 -91q140 0 234 119q23 31 53 10l23 -12q31 -20 10 -49q-57 -78 -144 -123t-188 -45q-170 0 -292 122t-121 292q0 170 122 292t291 121q100 0 188 -45t144 -122q20 -29 -10 -50l-23 -14q-31 -20 -53 10q-94 119 -234 119t-233 -91
q-92 -91 -92 -221zM957 1530q-302 0 -516 -215t-214 -517t214 -515t516 -213t517 214q214 214 214 515t-214 516q-215 215 -517 215zM956 -31q-346 0 -586 242t-241 588q0 345 241 587q240 242 586 242t588 -242t242 -588t-242 -588q-242 -241 -588 -241z" />
    <glyph glyph-name="ordfeminine" unicode="&#xaa;" horiz-adv-x="1019" 
d="M480 1532q-105 0 -179 -75t-74 -180t73 -178t179 -73t180 73t74 178t-74 180t-179 75zM795 948h-23q-14 0 -26 11q-11 11 -11 26v41q0 8 -7 10t-11 -4q-97 -104 -241 -104t-246 102q-101 102 -101 248t101 248q102 102 246 102t241 -106q4 -6 11 -4t7 10v43q0 14 11 25
t26 12h23q16 0 26 -12t10 -25v-586q0 -13 -10 -25t-26 -12z" />
    <glyph glyph-name="guillemotleft" unicode="&#xab;" horiz-adv-x="1380" 
d="M666 760q0 39 26 61l463 414q8 8 17 3t10 -15v-78q0 -39 -27 -62l-352 -315q-18 -18 0 -37l352 -315q27 -23 27 -62v-78q0 -10 -10 -15t-17 3l-463 412q-27 23 -26 61v23zM123 737v23q0 39 27 61l462 414q8 8 18 3t9 -15v-78q0 -39 -27 -62l-352 -315q-18 -18 0 -37
l352 -315q27 -23 27 -62v-78q1 -10 -9 -15t-18 3l-462 412q-27 23 -27 61z" />
    <glyph glyph-name="registered" unicode="&#xae;" horiz-adv-x="1245" 
d="M768 1227q0 37 -29 65t-75 29h-129q-29 0 -29 -29v-131q0 -29 29 -28h129q48 1 76 29t28 65zM807 901h-4q-33 0 -49 29l-70 117q-18 25 -43 24h-106q-29 0 -29 -29v-112q0 -29 -29 -29h-4q-29 0 -29 29v416q0 14 12 25t25 11h185q76 0 120 -45t43 -123q0 -78 -69 -118
q-28 -14 -10 -39l73 -127q6 -8 0 -18t-16 -11zM623 1563q-181 0 -307 -126q-126 -127 -126 -307t126 -306t306 -126t307 126q126 126 126 306t-126 306t-306 127zM623 633q-205 0 -352 146q-146 146 -146 351q0 206 146 352q145 146 351 146t352 -146t146 -352t-146 -351
q-146 -146 -351 -146z" />
    <glyph glyph-name="macron" unicode="&#xaf;" horiz-adv-x="669" 
d="M37 1898h596q14 0 25 -11t12 -25v-27q0 -17 -12 -27t-25 -10h-596q-16 0 -27 10q-10 10 -10 27v27q0 14 10 25q11 11 27 11z" />
    <glyph glyph-name="degree" unicode="&#xb0;" horiz-adv-x="983" 
d="M489 1534q-113 0 -191 -79t-77 -191q0 -112 78 -192q79 -79 191 -79t192 79t80 192q0 114 -80 192t-193 78zM490 901q-151 1 -257 107t-106 257t106 257t257 106t259 -106q107 -106 107 -257t-108 -257t-258 -107z" />
    <glyph glyph-name="plusminus" unicode="&#xb1;" horiz-adv-x="1261" 
d="M221 211h819q16 0 26 -11t11 -26v-41q0 -14 -10 -25t-27 -12h-819q-16 0 -26 12t-11 25v41q0 14 10 26t27 11zM221 709q-35 0 -37 36v41q0 16 10 26t27 11h324q28 0 28 29v324q1 16 11 26t26 10h41q37 0 37 -36v-324q0 -29 29 -29h323q16 0 26 -10t11 -27v-41
q0 -36 -37 -36h-323q-29 0 -29 -29v-322q0 -14 -10 -25t-27 -11h-41q-16 0 -26 11t-11 25v322q0 29 -28 29h-324z" />
    <glyph glyph-name="twosuperior" unicode="&#xb2;" horiz-adv-x="931" 
d="M293 655h491q14 0 26 -10t11 -27v-22q0 -14 -11 -26t-26 -11h-651q-14 0 -24 10t-11 25v4q0 33 27 59l401 369q68 61 100 94t62 85t29 104q0 98 -70 156q-70 59 -175 59t-181 -56t-82 -170q-4 -35 -41 -34h-23q-14 0 -23 10t-9 24q4 109 61 184q103 136 299 136
q141 0 241 -85t99 -224q0 -72 -39 -143q-39 -70 -74 -106t-110 -106l-305 -280q-4 -4 -2 -12t10 -7z" />
    <glyph glyph-name="threesuperior" unicode="&#xb3;" horiz-adv-x="917" 
d="M434 539q-156 0 -307 82q-34 14 -2 65q23 29 53 12q129 -66 251 -66t200 60t78 150q1 90 -91 148t-251 67q-16 0 -27 10q-10 10 -10 27v8q0 35 37 37q151 8 229 70q78 63 78 141t-66 128t-156 50t-151 -35t-78 -92q-10 -41 -47 -39h-14q-14 2 -25 15q-10 13 -8 28
q18 93 107 153t215 60q127 0 223 -72t96 -186q0 -74 -47 -142t-139 -108q-8 -4 -8 -10t8 -8q106 -37 164 -104t59 -154q1 -127 -107 -211t-264 -84z" />
    <glyph glyph-name="acute" unicode="&#xb4;" horiz-adv-x="563" 
d="M25 1825l454 276q23 14 39 -10l31 -55q14 -23 -10 -39l-467 -254q-23 -14 -39 10l-19 33q-16 25 11 39z" />
    <glyph glyph-name="paragraph" unicode="&#xb6;" horiz-adv-x="1456" 
d="M602 1483q-160 0 -274 -117t-115 -279q0 -161 115 -277t274 -116h92q29 0 29 29v731q0 29 -29 29h-92zM1233 1597q37 0 37 -36v-1524q0 -37 -37 -37h-47q-14 0 -26 10q-11 10 -11 27v1417q0 29 -29 29h-250q-29 0 -28 -29v-1417q0 -17 -12 -27t-25 -10h-45q-14 0 -26 10
q-11 10 -11 27v514q0 29 -29 29h-92q-213 0 -360 148q-148 148 -148 360t148 360t360 149h631z" />
    <glyph glyph-name="periodcentered" unicode="&#xb7;" horiz-adv-x="567" 
d="M285 645q-43 0 -75 31t-32 74q0 44 32 74t75 30t73 -31t31 -75q-1 -44 -31 -73q-30 -30 -73 -30z" />
    <glyph glyph-name="cedilla" unicode="&#xb8;" horiz-adv-x="557" 
d="M268 12h4q14 0 22 -11t3 -24l-25 -73q-4 -10 2 -20t17 -11q113 -13 172 -73t59 -140t-66 -142t-176 -62q-108 0 -227 50q-12 4 -17 20t9 44q14 35 49 18q96 -41 177 -41t124 38t43 91q0 52 -50 92t-152 37q-25 -2 -46 21q-20 22 -10 45l39 106q10 35 49 35z" />
    <glyph glyph-name="onesuperior" unicode="&#xb9;" horiz-adv-x="522" 
d="M74 1454v29q0 35 35 49l174 55q27 10 59 10h4q12 0 22 -9t9 -21v-971q0 -14 -10 -26t-27 -11h-23q-14 0 -25 11t-11 26v860q-1 10 -9 18t-18 3l-145 -47q-12 -4 -24 3q-11 7 -11 21z" />
    <glyph glyph-name="ordmasculine" unicode="&#xba;" horiz-adv-x="960" 
d="M480 1532q-105 0 -179 -75t-74 -180t73 -178t179 -73t180 73t74 178t-74 180t-179 75zM479 928q-145 0 -248 102q-102 102 -102 248t102 248q101 102 247 102t250 -102t103 -248q0 -146 -103 -248q-104 -102 -249 -102z" />
    <glyph glyph-name="guillemotright" unicode="&#xbb;" horiz-adv-x="1382" 
d="M1260 762v-23q0 -39 -27 -61l-463 -414q-8 -8 -17 -3t-10 15v78q0 39 27 62l352 315q18 18 0 37l-352 315q-27 23 -27 62v78q-1 10 9 15t18 -3l463 -412q27 -23 27 -61zM715 762v-23q0 -39 -27 -61l-463 -414q-8 -8 -17 -3t-9 15v78q0 39 26 62l353 315q18 18 0 37
l-353 315q-27 23 -26 62v78q0 10 9 15t17 -3l463 -412q27 -23 27 -61z" />
    <glyph glyph-name="onequarter" unicode="&#xbc;" horiz-adv-x="1937" 
d="M428 0h-35q-12 0 -18 10t0 21l909 1536q16 31 55 30h35q12 0 18 -10t1 -20l-910 -1536q-16 -31 -55 -31zM1606 549q0 35 36 37h21q17 0 27 -10t10 -27v-213q0 -29 29 -29h88q14 0 25 -10t11 -27v-16q0 -16 -11 -26t-25 -11h-88q-29 0 -29 -29v-151q0 -37 -37 -37h-21
q-36 0 -36 37v151q0 29 -29 29h-526q-14 0 -25 10q-10 10 -10 25v4q0 35 16 61l408 689q16 33 55 32h33q12 0 18 -11t0 -21l-397 -674q-4 -8 1 -16t13 -9h414q29 0 29 29v213zM88 1454v29q0 35 35 49l174 55q27 10 59 10h4q12 0 22 -9t9 -21v-971q0 -14 -11 -26t-26 -11h-22
q-16 0 -27 11q-10 11 -10 26v860q0 10 -8 18q-9 7 -19 3l-145 -47q-12 -4 -24 3q-11 7 -11 21z" />
    <glyph glyph-name="onehalf" unicode="&#xbd;" horiz-adv-x="2078" 
d="M426 0h-35q-12 0 -18 10t0 21l909 1536q16 31 55 30h35q12 0 18 -10t1 -20l-910 -1536q-16 -31 -55 -31zM1958 37q0 -37 -37 -37h-651q-14 0 -25 10q-10 10 -10 25v4q0 33 27 59l401 369q67 61 99 94t62 85t29 104q0 98 -69 156q-70 58 -175 58t-181 -54
q-76 -56 -82 -171q-4 -35 -41 -34h-23q-14 0 -24 10q-9 10 -9 24q3 109 61 184q104 136 300 136q141 0 240 -85t100 -224q0 -72 -39 -143t-74 -107t-111 -105l-305 -280q-4 -4 -2 -12q3 -7 11 -7h491q17 0 27 -11t10 -26v-22zM86 1454v29q0 35 35 49l174 55q27 10 59 10h4
q12 0 22 -9t9 -21v-971q0 -14 -10 -26t-27 -11h-22q-14 0 -26 11q-11 11 -11 26v860q0 10 -8 18q-9 7 -19 3l-145 -47q-12 -4 -24 3q-11 7 -11 21z" />
    <glyph glyph-name="threequarters" unicode="&#xbe;" horiz-adv-x="2187" 
d="M360 1102q0 16 10 26t27 11q152 8 230 70q78 63 78 141t-66 128t-156 50t-151 -35t-78 -92q-10 -41 -47 -39h-14q-14 2 -25 15q-10 13 -8 28q18 93 107 153t215 60t222 -72t97 -186q0 -74 -47 -142t-140 -108q-8 -4 -7 -10t7 -8q106 -37 164 -104t60 -154
q0 -127 -108 -211t-263 -84q-156 0 -307 82q-37 16 0 66q21 28 51 11q129 -66 251 -66t200 60t78 150t-92 148q-91 58 -251 67q-35 0 -37 37v8zM678 0h-35q-12 0 -18 10t0 21l909 1536q16 31 55 30h35q12 0 18 -10t0 -20l-909 -1536q-16 -31 -55 -31zM1892 0q-35 0 -37 37
v151q0 29 -28 29h-527q-14 0 -24 10t-10 25v4q0 35 16 61l408 689q16 33 55 32h33q12 0 18 -11t0 -21l-397 -674q-4 -8 1 -16t13 -9h414q29 0 28 29v213q1 16 11 26t26 11h21q35 0 37 -37v-213q0 -29 28 -29h88q14 0 26 -10t11 -27v-16q0 -16 -11 -26t-26 -11h-88
q-28 0 -28 -29v-151q0 -17 -10 -27t-27 -10h-21z" />
    <glyph glyph-name="questiondown" unicode="&#xbf;" horiz-adv-x="1089" 
d="M610 1620q43 0 75 -31t32 -73t-32 -74q-32 -31 -75 -31q-44 0 -74 31t-30 75q0 43 30 73t74 30zM557 995v33q0 29 29 29h45q14 0 24 -10t11 -25v-39q0 -150 -147 -263q-29 -24 -109 -80t-130 -117q-50 -62 -50 -174q0 -113 85 -189t219 -76t231 74t97 202v23q0 20 19 20
h75q25 0 25 -24v-27q0 -178 -136 -280t-313 -102t-301 107q-123 108 -122 283q0 131 65 214q66 82 154 144t106 78t58 51q65 60 65 148z" />
    <glyph glyph-name="Agrave" unicode="&#xc0;" horiz-adv-x="1654" 
d="M408 475h839q10 0 16 8q5 9 1 19l-424 938q-12 20 -25 0l-424 -938q-4 -10 1 -18t16 -9zM856 1597q35 0 53 -32l701 -1532q6 -9 0 -21t-21 -12h-59q-37 0 -51 33l-138 301q-14 27 -41 26h-946q-27 0 -41 -26l-135 -301q-14 -33 -51 -33h-61q-14 0 -21 11q-6 12 0 22
l700 1532q18 33 54 32h57zM637 2097l442 -268q31 -18 13 -51l-11 -17q-18 -33 -51 -14l-450 246q-33 18 -15 51l23 39q18 32 49 14z" />
    <glyph glyph-name="Aacute" unicode="&#xc1;" horiz-adv-x="1654" 
d="M408 475h839q10 0 16 8q5 9 1 19l-424 938q-12 20 -25 0l-424 -938q-4 -10 1 -18t16 -9zM856 1597q35 0 53 -32l701 -1532q6 -9 0 -21t-21 -12h-59q-37 0 -51 33l-138 301q-14 27 -41 26h-946q-27 0 -41 -26l-135 -301q-14 -33 -51 -33h-61q-14 0 -21 11q-6 12 0 22
l700 1532q18 33 54 32h57zM571 1825l455 276q23 14 39 -10l31 -55q14 -23 -11 -39l-467 -254q-23 -14 -38 10l-19 33q-17 25 10 39z" />
    <glyph glyph-name="Acircumflex" unicode="&#xc2;" horiz-adv-x="1654" 
d="M408 475h839q10 0 16 8q5 9 1 19l-424 938q-12 20 -25 0l-424 -938q-4 -10 1 -18t16 -9zM856 1597q35 0 53 -32l701 -1532q6 -9 0 -21t-21 -12h-59q-37 0 -51 33l-138 301q-14 27 -41 26h-946q-27 0 -41 -26l-135 -301q-14 -33 -51 -33h-61q-14 0 -21 11q-6 12 0 22
l700 1532q18 33 54 32h57zM854 2081l301 -219q27 -23 6 -52l-16 -18q-20 -29 -53 -8l-244 176q-23 18 -45 0l-240 -174q-31 -23 -53 6l-16 18q-20 29 6 52l297 219q28 25 57 0z" />
    <glyph glyph-name="Atilde" unicode="&#xc3;" horiz-adv-x="1654" 
d="M640 1952q-38 0 -70 -41t-40 -107q-4 -37 -41 -37h-18q-15 -1 -25 11t-8 26q8 102 62 177t153 75q51 0 97 -24t124 -100q78 -78 130 -78t82 40q30 41 34 107q4 37 41 37h21q14 0 24 -12t8 -25q-8 -102 -57 -177t-149 -75q-51 0 -90 24t-108 85t-100 78q-32 16 -70 16z
M408 475h839q10 0 16 8q5 9 1 19l-424 938q-12 20 -25 0l-424 -938q-4 -10 1 -18t16 -9zM856 1597q35 0 53 -32l701 -1532q6 -9 0 -21t-21 -12h-59q-37 0 -51 33l-138 301q-14 27 -41 26h-946q-27 0 -41 -26l-135 -301q-14 -33 -51 -33h-61q-14 0 -21 11q-6 12 0 22
l700 1532q18 33 54 32h57z" />
    <glyph glyph-name="Adieresis" unicode="&#xc4;" horiz-adv-x="1654" 
d="M1051 1798q-39 0 -67 27t-28 65t28 67q28 28 67 28t67 -28t27 -67q1 -40 -27 -66t-67 -26zM604 1798q-38 0 -66 27t-28 65t28 67q28 28 66 28t66 -28q26 -28 26 -67q0 -40 -26 -66t-66 -26zM408 475h839q10 0 16 8q5 9 1 19l-424 938q-12 20 -25 0l-424 -938
q-4 -10 1 -18t16 -9zM856 1597q35 0 53 -32l701 -1532q6 -9 0 -21t-21 -12h-59q-37 0 -51 33l-138 301q-14 27 -41 26h-946q-27 0 -41 -26l-135 -301q-14 -33 -51 -33h-61q-14 0 -21 11q-6 12 0 22l700 1532q18 33 54 32h57z" />
    <glyph glyph-name="Aring" unicode="&#xc5;" horiz-adv-x="1654" 
d="M408 475h839q10 0 16 8q5 9 1 19l-424 938q-12 20 -25 0l-424 -938q-4 -10 1 -18t16 -9zM856 1597q35 0 53 -32l701 -1532q6 -9 0 -21t-21 -12h-59q-37 0 -51 33l-138 301q-14 27 -41 26h-946q-27 0 -41 -26l-135 -301q-14 -33 -51 -33h-61q-14 0 -21 11q-6 12 0 22
l700 1532q18 33 54 32h57zM828 2103q-60 0 -103 -43t-43 -103q0 -59 43 -103t103 -44t104 43q43 43 43 103t-43 103q-44 44 -104 44zM827 1722q-97 0 -165 68t-68 167t68 167t166 68t166 -68q69 -68 69 -166t-69 -167t-167 -69z" />
    <glyph glyph-name="AE" unicode="&#xc6;" horiz-adv-x="2557" 
d="M586 475h717q29 0 28 29v899q0 8 -7 10t-11 -4l-738 -911q-6 -8 -3 -16t14 -7zM2429 1516q0 -37 -37 -37h-911q-29 0 -29 -29v-580q0 -29 29 -28h766q14 0 25 -12t12 -25v-41q0 -14 -12 -26t-25 -11h-766q-29 0 -29 -29v-551q0 -29 29 -28h911q16 0 26 -10t11 -27v-45
q0 -16 -10 -27q-11 -10 -27 -10h-1024q-16 0 -27 10q-10 10 -10 27v295q0 29 -28 28h-809q-29 0 -48 -22l-249 -309q-23 -29 -60 -29h-84q-10 0 -15 10t1 19l1249 1540q23 29 60 28h1044q37 0 37 -36v-45z" />
    <glyph glyph-name="Ccedilla" unicode="&#xc7;" horiz-adv-x="1759" 
d="M948 90q180 0 335 84t251 229q23 29 53 13l45 -25q12 -6 16 -20t-6 -27q-112 -166 -286 -266t-381 -109q-27 0 -37 -28l-23 -64q-3 -10 3 -19t16 -12q113 -12 172 -72t59 -140t-66 -143q-67 -62 -175 -62t-228 51q-34 11 -8 63q14 35 49 19q96 -41 177 -41t124 38t43 91
t-50 92t-152 37q-27 -2 -45 18l-3 2q-18 23 -8 45l37 103q4 8 -2 18t-16 12q-309 39 -518 273t-209 562q-1 328 243 572t590 244q212 0 396 -101t296 -274q8 -10 6 -25t-18 -22l-41 -22q-33 -18 -53 12q-98 143 -252 227t-334 84q-293 0 -502 -208q-208 -209 -208 -501
t208 -500t502 -208z" />
    <glyph glyph-name="Egrave" unicode="&#xc8;" horiz-adv-x="1454" 
d="M586 2097l442 -268q31 -18 12 -51l-10 -17q-18 -33 -51 -14l-451 246q-33 18 -14 51l23 39q18 32 49 14zM1327 1516q0 -37 -37 -37h-911q-29 0 -29 -29v-580q0 -29 29 -28h766q14 0 25 -12t12 -25v-41q0 -14 -12 -26t-25 -11h-766q-29 0 -29 -29v-551q0 -29 29 -28h911
q16 0 26 -10t11 -27v-45q0 -16 -10 -27q-11 -10 -27 -10h-1024q-35 0 -37 37v1524q1 16 11 26t26 10h1024q37 0 37 -36v-45z" />
    <glyph glyph-name="Eacute" unicode="&#xc9;" horiz-adv-x="1454" 
d="M1327 1516q0 -37 -37 -37h-911q-29 0 -29 -29v-580q0 -29 29 -28h766q14 0 25 -12t12 -25v-41q0 -14 -12 -26t-25 -11h-766q-29 0 -29 -29v-551q0 -29 29 -28h911q16 0 26 -10t11 -27v-45q0 -16 -10 -27q-11 -10 -27 -10h-1024q-35 0 -37 37v1524q1 16 11 26t26 10h1024
q37 0 37 -36v-45zM520 1825l455 276q23 14 39 -10l30 -55q14 -23 -10 -39l-467 -254q-23 -14 -39 10l-18 33q-17 25 10 39z" />
    <glyph glyph-name="Ecircumflex" unicode="&#xca;" horiz-adv-x="1454" 
d="M1327 1516q0 -37 -37 -37h-911q-29 0 -29 -29v-580q0 -29 29 -28h766q14 0 25 -12t12 -25v-41q0 -14 -12 -26t-25 -11h-766q-29 0 -29 -29v-551q0 -29 29 -28h911q16 0 26 -10t11 -27v-45q0 -16 -10 -27q-11 -10 -27 -10h-1024q-35 0 -37 37v1524q1 16 11 26t26 10h1024
q37 0 37 -36v-45zM805 2081l301 -219q27 -23 6 -52l-16 -18q-20 -29 -54 -8l-243 176q-23 18 -45 0l-240 -174q-31 -23 -53 6l-17 18q-20 29 7 52l297 219q28 25 57 0z" />
    <glyph glyph-name="Edieresis" unicode="&#xcb;" horiz-adv-x="1454" 
d="M1001 1798q-39 0 -67 27t-27 65q0 38 28 67q29 28 67 28t66 -28t28 -67q0 -40 -28 -66t-67 -26zM555 1798q-39 0 -67 27t-28 65t28 67q28 28 67 28t66 -28t27 -67q0 -40 -28 -66q-26 -26 -65 -26zM1327 1516q0 -37 -37 -37h-911q-29 0 -29 -29v-580q0 -29 29 -28h766
q14 0 25 -12t12 -25v-41q0 -14 -12 -26t-25 -11h-766q-29 0 -29 -29v-551q0 -29 29 -28h911q16 0 26 -10t11 -27v-45q0 -16 -10 -27q-11 -10 -27 -10h-1024q-35 0 -37 37v1524q1 16 11 26t26 10h1024q37 0 37 -36v-45z" />
    <glyph glyph-name="Igrave" unicode="&#xcc;" horiz-adv-x="577" 
d="M98 2097l443 -268q31 -18 12 -51l-10 -17q-18 -33 -51 -14l-451 246q-33 18 -14 51l22 39q18 32 49 14zM229 37v1524q1 16 11 26t26 10h47q13 0 25 -10t12 -26v-1524q0 -17 -11 -27t-26 -10h-47q-16 0 -26 10t-11 27z" />
    <glyph glyph-name="Iacute" unicode="&#xcd;" horiz-adv-x="577" 
d="M229 37v1524q1 16 11 26t26 10h47q13 0 25 -10t12 -26v-1524q0 -17 -11 -27t-26 -10h-47q-16 0 -26 10t-11 27zM33 1825l454 276q23 14 39 -10l31 -55q14 -23 -10 -39l-467 -254q-23 -14 -39 10l-18 33q-17 25 10 39z" />
    <glyph glyph-name="Icircumflex" unicode="&#xce;" horiz-adv-x="577" 
d="M229 37v1524q1 16 11 26t26 10h47q13 0 25 -10t12 -26v-1524q0 -17 -11 -27t-26 -10h-47q-16 0 -26 10t-11 27zM317 2081l301 -219q27 -23 7 -52l-17 -18q-20 -29 -53 -8l-244 176q-23 18 -45 0l-239 -174q-31 -23 -54 6l-16 18q-20 29 6 52l297 219q28 25 57 0z" />
    <glyph glyph-name="Idieresis" unicode="&#xcf;" horiz-adv-x="577" 
d="M512 1798q-39 0 -67 27q-27 27 -27 65t27 67q28 28 67 28t67 -28q27 -28 27 -67q0 -40 -28 -66t-66 -26zM66 1798q-39 0 -67 27t-28 65t28 67q28 28 67 28q40 0 66 -28t26 -67q0 -40 -26 -66t-66 -26zM229 37v1524q1 16 11 26t26 10h47q13 0 25 -10t12 -26v-1524
q0 -17 -11 -27t-26 -10h-47q-16 0 -26 10t-11 27z" />
    <glyph glyph-name="Eth" unicode="&#xd0;" horiz-adv-x="1724" 
d="M381 850h508q16 0 26 -11t11 -26v-35q0 -16 -10 -26t-27 -11h-508q-29 0 -29 -28v-566q0 -29 29 -28h469q295 0 462 190q167 189 167 489t-167 490t-462 191h-469q-29 0 -29 -29v-571q0 -29 29 -29zM856 0h-588q-14 0 -25 10t-12 27v676q0 29 -28 28h-115q-14 1 -26 11
t-11 26v35q0 13 11 25t26 12h115q29 0 28 29v682q-1 16 11 26t26 10h588q352 0 548 -225t196 -574t-196 -574q-196 -224 -548 -224z" />
    <glyph glyph-name="Ntilde" unicode="&#xd1;" horiz-adv-x="1792" 
d="M710 1952q-38 0 -70 -41t-40 -107q-4 -37 -41 -37h-18q-15 -1 -25 11t-8 26q8 102 61 177t154 75q51 0 96 -24t124 -100q79 -78 130 -78t82 40q31 41 35 107q4 37 41 37h20q15 0 25 -12t8 -25q-8 -102 -57 -177t-150 -75q-51 0 -90 24t-108 85t-100 78q-31 16 -69 16z
M1528 1597q35 0 37 -36v-1524q-1 -17 -11 -27t-26 -10h-35q-37 0 -59 29l-1065 1337q-3 6 -11 4t-8 -10v-1323q0 -17 -11 -27t-26 -10h-47q-35 0 -37 37v1524q1 16 11 26t26 10h35q35 0 59 -28l1065 -1340q4 -6 12 -4q7 2 7 11v1325q0 16 11 26t26 10h47z" />
    <glyph glyph-name="Ograve" unicode="&#xd2;" 
d="M948 1507q-293 0 -502 -208q-208 -209 -208 -501t208 -500t502 -208q293 0 501 208t208 500t-208 500t-501 209zM947 -31q-345 0 -589 243t-244 586q0 342 244 586t589 244t589 -244t244 -586t-244 -586q-244 -243 -589 -243zM756 2097l442 -268q31 -18 12 -51l-10 -17
q-18 -33 -51 -14l-451 246q-33 18 -14 51l23 39q18 32 49 14z" />
    <glyph glyph-name="Oacute" unicode="&#xd3;" 
d="M948 1507q-293 0 -502 -208q-208 -209 -208 -501t208 -500t502 -208q293 0 501 208t208 500t-208 500t-501 209zM947 -31q-345 0 -589 243t-244 586q0 342 244 586t589 244t589 -244t244 -586t-244 -586q-244 -243 -589 -243zM690 1825l455 276q23 14 39 -10l30 -55
q14 -23 -10 -39l-467 -254q-23 -14 -39 10l-18 33q-17 25 10 39z" />
    <glyph glyph-name="Ocircumflex" unicode="&#xd4;" 
d="M948 1507q-293 0 -502 -208q-208 -209 -208 -501t208 -500t502 -208q293 0 501 208t208 500t-208 500t-501 209zM947 -31q-345 0 -589 243t-244 586q0 342 244 586t589 244t589 -244t244 -586t-244 -586q-244 -243 -589 -243zM975 2081l301 -219q27 -23 6 -52l-16 -18
q-20 -29 -54 -8l-243 176q-23 18 -45 0l-240 -174q-31 -23 -53 6l-17 18q-20 29 7 52l297 219q28 25 57 0z" />
    <glyph glyph-name="Otilde" unicode="&#xd5;" 
d="M771 1952q-48 0 -80 -41t-40 -107q-4 -37 -41 -37h-18q-14 -1 -24 11t-9 26q7 102 61 177t154 75q51 0 96 -24t124 -100q79 -78 130 -78t82 40q31 41 35 107q4 37 41 37h21q14 0 24 -12t8 -25q-8 -102 -57 -177t-150 -75q-51 0 -90 24t-95 74t-73 63q-51 42 -99 42z
M948 1507q-293 0 -502 -208q-208 -209 -208 -501t208 -500t502 -208q293 0 501 208t208 500t-208 500t-501 209zM947 -31q-345 0 -589 243t-244 586q0 342 244 586t589 244t589 -244t244 -586t-244 -586q-244 -243 -589 -243z" />
    <glyph glyph-name="Odieresis" unicode="&#xd6;" 
d="M1171 1798q-39 0 -67 27t-27 65q0 38 28 67q29 28 67 28t66 -28t28 -67q0 -40 -28 -66t-67 -26zM725 1798q-39 0 -67 27t-28 65t28 67q28 28 67 28t66 -28t27 -67q0 -40 -28 -66q-26 -26 -65 -26zM948 1507q-293 0 -502 -208q-208 -209 -208 -501t208 -500t502 -208
q293 0 501 208t208 500t-208 500t-501 209zM947 -31q-345 0 -589 243t-244 586q0 342 244 586t589 244t589 -244t244 -586t-244 -586q-244 -243 -589 -243z" />
    <glyph glyph-name="multiply" unicode="&#xd7;" horiz-adv-x="1218" 
d="M588 647l-303 -303q-27 -27 -54 0l-26 27q-27 27 0 53l303 303q20 20 0 41l-303 305q-27 27 0 53l26 27q27 27 54 0l303 -305q20 -20 41 0l305 305q27 27 53 0l27 -27q27 -27 0 -53l-305 -305q-20 -20 0 -41l305 -303q27 -27 0 -53l-27 -27q-27 -27 -53 0l-305 303
q-21 20 -41 0z" />
    <glyph glyph-name="Oslash" unicode="&#xd8;" 
d="M948 1507q-293 0 -502 -208q-208 -208 -208 -489t176 -480q20 -18 39 0l921 999q18 18 -4 39q-193 139 -422 139zM948 90q293 0 501 208t208 488t-178 480q-16 20 -37 0l-922 -998q-18 -18 4 -39q188 -139 424 -139zM115 810q-1 332 243 574q244 244 590 244
q279 0 504 -172q20 -16 43 2l102 113q23 27 62 26h51q10 0 15 -9t-3 -17l-159 -174q-23 -18 0 -41q217 -238 217 -570t-244 -574q-244 -243 -588 -243q-283 0 -508 170q-20 16 -43 -2l-100 -110q-23 -27 -61 -27h-52q-10 0 -15 9t3 18l158 172q23 18 0 41q-215 238 -215 570
z" />
    <glyph glyph-name="Ugrave" unicode="&#xd9;" horiz-adv-x="1753" 
d="M684 2097l442 -268q31 -18 13 -51l-11 -17q-18 -33 -51 -14l-450 246q-33 18 -15 51l23 39q18 32 49 14zM291 1597q35 0 37 -36v-953q0 -232 144 -376t406 -144t404 144q143 144 143 376v953q1 16 11 26t26 10h47q13 0 25 -10t12 -26v-957q0 -279 -176 -457t-493 -178
t-494 178q-176 178 -176 457v957q0 16 11 26t26 10h47z" />
    <glyph glyph-name="Uacute" unicode="&#xda;" horiz-adv-x="1753" 
d="M291 1597q35 0 37 -36v-953q0 -232 144 -376t406 -144t404 144q143 144 143 376v953q1 16 11 26t26 10h47q13 0 25 -10t12 -26v-957q0 -279 -176 -457t-493 -178t-494 178q-176 178 -176 457v957q0 16 11 26t26 10h47zM618 1825l455 276q23 14 39 -10l31 -55
q14 -23 -10 -39l-467 -254q-23 -14 -39 10l-19 33q-17 25 10 39z" />
    <glyph glyph-name="Ucircumflex" unicode="&#xdb;" horiz-adv-x="1746" 
d="M899 2081l301 -219q27 -23 6 -52l-16 -18q-20 -29 -53 -8l-244 176q-23 18 -45 0l-240 -174q-31 -23 -53 6l-16 18q-20 29 6 52l297 219q28 25 57 0zM287 1597q35 0 37 -36v-953q0 -232 144 -376t405 -144t405 143q143 144 143 377v953q1 16 11 26t26 10h47q13 0 25 -10
t12 -26v-957q0 -279 -176 -457t-494 -178t-493 178q-176 178 -176 457v957q0 16 11 26t26 10h47z" />
    <glyph glyph-name="Udieresis" unicode="&#xdc;" horiz-adv-x="1753" 
d="M291 1597q35 0 37 -36v-953q0 -232 144 -376t406 -144t404 144q143 144 143 376v953q1 16 11 26t26 10h47q13 0 25 -10t12 -26v-957q0 -279 -176 -457t-493 -178t-494 178q-176 178 -176 457v957q0 16 11 26t26 10h47zM1100 1798q-39 0 -67 27q-27 27 -27 65t27 67
q28 28 67 28q38 0 66 -28t28 -67q0 -40 -28 -66t-66 -26zM653 1798q-39 0 -67 27t-27 65q0 38 28 67q29 28 67 28t65 -28t27 -67q0 -40 -28 -66q-26 -26 -65 -26z" />
    <glyph glyph-name="Yacute" unicode="&#xdd;" horiz-adv-x="1624" 
d="M872 37q0 -37 -36 -37h-48q-14 0 -25 10t-11 27v518q0 29 -17 51l-686 961q-7 10 -1 20t18 10h71q37 0 58 -30l600 -838q16 -20 32 0l603 838q20 31 57 30h72q12 0 17 -10t-1 -20l-686 -959q-16 -23 -17 -51v-520zM555 1825l455 276q23 14 39 -10l30 -55q14 -23 -10 -39
l-467 -254q-23 -14 -39 10l-18 33q-17 25 10 39z" />
    <glyph glyph-name="Thorn" unicode="&#xde;" horiz-adv-x="1521" 
d="M1309 801q0 182 -126 308t-341 126h-463q-29 0 -29 -29v-813q0 -29 29 -28h463q213 0 340 127t127 309zM266 0q-35 0 -37 37v1524q1 16 11 26t26 10h47q13 0 25 -10t12 -26v-183q0 -29 29 -28h467q270 0 428 -159t158 -390t-159 -391t-427 -160h-467q-29 0 -29 -29v-184
q0 -16 -11 -27q-12 -10 -26 -10h-47z" />
    <glyph glyph-name="germandbls" unicode="&#xdf;" horiz-adv-x="1863" 
d="M1223 -33q-311 0 -527 244q-10 9 -8 25t14 24l37 25q29 23 56 -9q178 -197 422 -196q188 0 305 104q116 104 116 272t-158 276t-405 59q-37 -6 -59 22l-17 25q-20 29 7 55l485 446q8 5 6 15t-12 14q-305 125 -592 125t-428 -148t-141 -382v-926q0 -17 -10 -27t-27 -10
h-43q-14 0 -26 10q-11 10 -11 27v932q0 264 160 444q80 90 219 142t323 53q346 0 703 -156q33 -14 33 -51v-27q0 -39 -27 -61l-432 -398q-4 -6 -2 -12t10 -6q242 20 402 -111q160 -130 161 -338q0 -208 -148 -344t-386 -137z" />
    <glyph glyph-name="agrave" unicode="&#xe0;" horiz-adv-x="1654" 
d="M408 475h839q10 0 16 8q5 9 1 19l-424 938q-12 20 -25 0l-424 -938q-4 -10 1 -18t16 -9zM856 1597q35 0 53 -32l701 -1532q6 -9 0 -21t-21 -12h-59q-37 0 -51 33l-138 301q-14 27 -41 26h-946q-27 0 -41 -26l-135 -301q-14 -33 -51 -33h-61q-14 0 -21 11q-6 12 0 22
l700 1532q18 33 54 32h57zM637 2097l442 -268q31 -18 13 -51l-11 -17q-18 -33 -51 -14l-450 246q-33 18 -15 51l23 39q18 32 49 14z" />
    <glyph glyph-name="aacute" unicode="&#xe1;" horiz-adv-x="1654" 
d="M408 475h839q10 0 16 8q5 9 1 19l-424 938q-12 20 -25 0l-424 -938q-4 -10 1 -18t16 -9zM856 1597q35 0 53 -32l701 -1532q6 -9 0 -21t-21 -12h-59q-37 0 -51 33l-138 301q-14 27 -41 26h-946q-27 0 -41 -26l-135 -301q-14 -33 -51 -33h-61q-14 0 -21 11q-6 12 0 22
l700 1532q18 33 54 32h57zM571 1825l455 276q23 14 39 -10l31 -55q14 -23 -11 -39l-467 -254q-23 -14 -38 10l-19 33q-17 25 10 39z" />
    <glyph glyph-name="acircumflex" unicode="&#xe2;" horiz-adv-x="1654" 
d="M408 475h839q10 0 16 8q5 9 1 19l-424 938q-12 20 -25 0l-424 -938q-4 -10 1 -18t16 -9zM856 1597q35 0 53 -32l701 -1532q6 -9 0 -21t-21 -12h-59q-37 0 -51 33l-138 301q-14 27 -41 26h-946q-27 0 -41 -26l-135 -301q-14 -33 -51 -33h-61q-14 0 -21 11q-6 12 0 22
l700 1532q18 33 54 32h57zM854 2081l301 -219q27 -23 6 -52l-16 -18q-20 -29 -53 -8l-244 176q-23 18 -45 0l-240 -174q-31 -23 -53 6l-16 18q-20 29 6 52l297 219q28 25 57 0z" />
    <glyph glyph-name="atilde" unicode="&#xe3;" horiz-adv-x="1654" 
d="M640 1952q-38 0 -70 -41t-40 -107q-4 -37 -41 -37h-18q-15 -1 -25 11t-8 26q8 102 62 177t153 75q51 0 97 -24t124 -100q78 -78 130 -78t82 40q30 41 34 107q4 37 41 37h21q14 0 24 -12t8 -25q-8 -102 -57 -177t-149 -75q-51 0 -90 24t-108 85t-100 78q-32 16 -70 16z
M408 475h839q10 0 16 8q5 9 1 19l-424 938q-12 20 -25 0l-424 -938q-4 -10 1 -18t16 -9zM856 1597q35 0 53 -32l701 -1532q6 -9 0 -21t-21 -12h-59q-37 0 -51 33l-138 301q-14 27 -41 26h-946q-27 0 -41 -26l-135 -301q-14 -33 -51 -33h-61q-14 0 -21 11q-6 12 0 22
l700 1532q18 33 54 32h57z" />
    <glyph glyph-name="adieresis" unicode="&#xe4;" horiz-adv-x="1654" 
d="M1051 1798q-39 0 -67 27t-28 65t28 67q28 28 67 28t67 -28t27 -67q1 -40 -27 -66t-67 -26zM604 1798q-38 0 -66 27t-28 65t28 67q28 28 66 28t66 -28q26 -28 26 -67q0 -40 -26 -66t-66 -26zM408 475h839q10 0 16 8q5 9 1 19l-424 938q-12 20 -25 0l-424 -938
q-4 -10 1 -18t16 -9zM856 1597q35 0 53 -32l701 -1532q6 -9 0 -21t-21 -12h-59q-37 0 -51 33l-138 301q-14 27 -41 26h-946q-27 0 -41 -26l-135 -301q-14 -33 -51 -33h-61q-14 0 -21 11q-6 12 0 22l700 1532q18 33 54 32h57z" />
    <glyph glyph-name="aring" unicode="&#xe5;" horiz-adv-x="1654" 
d="M408 475h839q10 0 16 8q5 9 1 19l-424 938q-12 20 -25 0l-424 -938q-4 -10 1 -18t16 -9zM856 1597q35 0 53 -32l701 -1532q6 -9 0 -21t-21 -12h-59q-37 0 -51 33l-138 301q-14 27 -41 26h-946q-27 0 -41 -26l-135 -301q-14 -33 -51 -33h-61q-14 0 -21 11q-6 12 0 22
l700 1532q18 33 54 32h57zM828 2103q-60 0 -103 -43t-43 -103q0 -59 43 -103t103 -44t104 43q43 43 43 103t-43 103q-44 44 -104 44zM827 1722q-97 0 -165 68t-68 167t68 167t166 68t166 -68q69 -68 69 -166t-69 -167t-167 -69z" />
    <glyph glyph-name="ae" unicode="&#xe6;" horiz-adv-x="2555" 
d="M586 475h717q29 0 28 29v899q0 8 -7 10t-11 -4l-738 -911q-6 -8 -3 -16t14 -7zM2429 1516q0 -37 -37 -37h-911q-29 0 -29 -29v-580q0 -29 29 -28h766q14 0 25 -12t12 -25v-41q0 -14 -12 -26t-25 -11h-766q-29 0 -29 -29v-551q0 -29 29 -28h911q16 0 26 -10t11 -27v-45
q0 -16 -10 -27q-11 -10 -27 -10h-1024q-16 0 -27 10q-10 10 -10 27v295q0 29 -28 28h-809q-29 0 -48 -22l-249 -309q-23 -29 -60 -29h-84q-10 0 -15 10t1 19l1249 1540q23 29 60 28h1044q37 0 37 -36v-45z" />
    <glyph glyph-name="ccedilla" unicode="&#xe7;" horiz-adv-x="1759" 
d="M948 90q180 0 335 84t251 229q23 29 53 13l45 -25q12 -6 16 -20t-6 -27q-112 -166 -286 -266t-381 -109q-27 0 -37 -28l-23 -64q-3 -10 3 -19t16 -12q113 -12 172 -72t59 -140t-66 -143q-67 -62 -175 -62t-228 51q-34 11 -8 63q14 35 49 19q96 -41 177 -41t124 38t43 91
t-50 92t-152 37q-27 -2 -45 18l-3 2q-18 23 -8 45l37 103q4 8 -2 18t-16 12q-309 39 -518 273t-209 562q-1 328 243 572t590 244q212 0 396 -101t296 -274q8 -10 6 -25t-18 -22l-41 -22q-33 -18 -53 12q-98 143 -252 227t-334 84q-293 0 -502 -208q-208 -209 -208 -501
t208 -500t502 -208z" />
    <glyph glyph-name="egrave" unicode="&#xe8;" horiz-adv-x="1454" 
d="M586 2097l442 -268q31 -18 12 -51l-10 -17q-18 -33 -51 -14l-451 246q-33 18 -14 51l23 39q18 32 49 14zM1327 1516q0 -37 -37 -37h-911q-29 0 -29 -29v-580q0 -29 29 -28h766q14 0 25 -12t12 -25v-41q0 -14 -12 -26t-25 -11h-766q-29 0 -29 -29v-551q0 -29 29 -28h911
q16 0 26 -10t11 -27v-45q0 -16 -10 -27q-11 -10 -27 -10h-1024q-35 0 -37 37v1524q1 16 11 26t26 10h1024q37 0 37 -36v-45z" />
    <glyph glyph-name="eacute" unicode="&#xe9;" horiz-adv-x="1454" 
d="M1327 1516q0 -37 -37 -37h-911q-29 0 -29 -29v-580q0 -29 29 -28h766q14 0 25 -12t12 -25v-41q0 -14 -12 -26t-25 -11h-766q-29 0 -29 -29v-551q0 -29 29 -28h911q16 0 26 -10t11 -27v-45q0 -16 -10 -27q-11 -10 -27 -10h-1024q-35 0 -37 37v1524q1 16 11 26t26 10h1024
q37 0 37 -36v-45zM520 1825l455 276q23 14 39 -10l30 -55q14 -23 -10 -39l-467 -254q-23 -14 -39 10l-18 33q-17 25 10 39z" />
    <glyph glyph-name="ecircumflex" unicode="&#xea;" horiz-adv-x="1454" 
d="M1327 1516q0 -37 -37 -37h-911q-29 0 -29 -29v-580q0 -29 29 -28h766q14 0 25 -12t12 -25v-41q0 -14 -12 -26t-25 -11h-766q-29 0 -29 -29v-551q0 -29 29 -28h911q16 0 26 -10t11 -27v-45q0 -16 -10 -27q-11 -10 -27 -10h-1024q-35 0 -37 37v1524q1 16 11 26t26 10h1024
q37 0 37 -36v-45zM805 2081l301 -219q27 -23 6 -52l-16 -18q-20 -29 -54 -8l-243 176q-23 18 -45 0l-240 -174q-31 -23 -53 6l-17 18q-20 29 7 52l297 219q28 25 57 0z" />
    <glyph glyph-name="edieresis" unicode="&#xeb;" horiz-adv-x="1454" 
d="M1001 1798q-39 0 -67 27t-27 65q0 38 28 67q29 28 67 28t66 -28t28 -67q0 -40 -28 -66t-67 -26zM555 1798q-39 0 -67 27t-28 65t28 67q28 28 67 28t66 -28t27 -67q0 -40 -28 -66q-26 -26 -65 -26zM1327 1516q0 -37 -37 -37h-911q-29 0 -29 -29v-580q0 -29 29 -28h766
q14 0 25 -12t12 -25v-41q0 -14 -12 -26t-25 -11h-766q-29 0 -29 -29v-551q0 -29 29 -28h911q16 0 26 -10t11 -27v-45q0 -16 -10 -27q-11 -10 -27 -10h-1024q-35 0 -37 37v1524q1 16 11 26t26 10h1024q37 0 37 -36v-45z" />
    <glyph glyph-name="igrave" unicode="&#xec;" horiz-adv-x="577" 
d="M229 37v1524q1 16 11 26t26 10h47q13 0 25 -10t12 -26v-1524q0 -17 -11 -27t-26 -10h-47q-16 0 -26 10t-11 27zM98 2097l443 -268q31 -18 12 -51l-10 -17q-18 -33 -51 -14l-451 246q-33 18 -14 51l22 39q18 32 49 14z" />
    <glyph glyph-name="iacute" unicode="&#xed;" horiz-adv-x="577" 
d="M229 37v1524q1 16 11 26t26 10h47q13 0 25 -10t12 -26v-1524q0 -17 -11 -27t-26 -10h-47q-16 0 -26 10t-11 27zM33 1825l454 276q23 14 39 -10l31 -55q14 -23 -10 -39l-467 -254q-23 -14 -39 10l-18 33q-17 25 10 39z" />
    <glyph glyph-name="icircumflex" unicode="&#xee;" horiz-adv-x="577" 
d="M229 37v1524q1 16 11 26t26 10h47q13 0 25 -10t12 -26v-1524q0 -17 -11 -27t-26 -10h-47q-16 0 -26 10t-11 27zM317 2081l301 -219q27 -23 7 -52l-17 -18q-20 -29 -53 -8l-244 176q-23 18 -45 0l-239 -174q-31 -23 -54 6l-16 18q-20 29 6 52l297 219q28 25 57 0z" />
    <glyph glyph-name="idieresis" unicode="&#xef;" horiz-adv-x="577" 
d="M512 1798q-39 0 -67 27q-27 27 -27 65t27 67q28 28 67 28t67 -28q27 -28 27 -67q0 -40 -28 -66t-66 -26zM66 1798q-39 0 -67 27t-28 65t28 67q28 28 67 28q40 0 66 -28t26 -67q0 -40 -26 -66t-66 -26zM229 37v1524q1 16 11 26t26 10h47q13 0 25 -10t12 -26v-1524
q0 -17 -11 -27t-26 -10h-47q-16 0 -26 10t-11 27z" />
    <glyph glyph-name="eth" unicode="&#xf0;" horiz-adv-x="1724" 
d="M381 850h508q16 0 26 -11t11 -26v-35q0 -16 -10 -26t-27 -11h-508q-29 0 -29 -28v-566q0 -29 29 -28h469q295 0 462 190q167 189 167 489t-167 490t-462 191h-469q-29 0 -29 -29v-571q0 -29 29 -29zM856 0h-588q-14 0 -25 10t-12 27v676q0 29 -28 28h-115q-14 1 -26 11
t-11 26v35q0 13 11 25t26 12h115q29 0 28 29v682q-1 16 11 26t26 10h588q352 0 548 -225t196 -574t-196 -574q-196 -224 -548 -224z" />
    <glyph glyph-name="ntilde" unicode="&#xf1;" horiz-adv-x="1796" 
d="M722 1952q-48 0 -80 -41t-40 -107q-4 -37 -41 -37h-18q-15 -1 -25 11t-8 26q8 102 61 177t154 75q51 0 96 -24t124 -100q79 -78 130 -78t82 40q31 41 35 107q4 37 41 37h20q15 0 25 -12t8 -25q-8 -102 -57 -177t-150 -75q-51 0 -90 24t-95 74t-73 63q-51 42 -99 42z
M266 0q-35 0 -37 37v1524q1 16 11 26t26 10h35q37 0 59 -28l1065 -1338q4 -6 12 -4q7 2 7 11v1323q0 16 11 26t26 10h49q14 0 25 -10t12 -26v-1524q1 -17 -11 -27t-26 -10h-37q-35 0 -59 29l-1065 1339q-3 6 -11 4t-8 -10v-1325q0 -17 -11 -27t-26 -10h-47z" />
    <glyph glyph-name="ograve" unicode="&#xf2;" 
d="M948 1507q-293 0 -502 -208q-208 -209 -208 -501t208 -500t502 -208q293 0 501 208t208 500t-208 500t-501 209zM947 -31q-345 0 -589 243t-244 586q0 342 244 586t589 244t589 -244t244 -586t-244 -586q-244 -243 -589 -243zM756 2097l442 -268q31 -18 12 -51l-10 -17
q-18 -33 -51 -14l-451 246q-33 18 -14 51l23 39q18 32 49 14z" />
    <glyph glyph-name="oacute" unicode="&#xf3;" 
d="M948 1507q-293 0 -502 -208q-208 -209 -208 -501t208 -500t502 -208q293 0 501 208t208 500t-208 500t-501 209zM947 -31q-345 0 -589 243t-244 586q0 342 244 586t589 244t589 -244t244 -586t-244 -586q-244 -243 -589 -243zM690 1825l455 276q23 14 39 -10l30 -55
q14 -23 -10 -39l-467 -254q-23 -14 -39 10l-18 33q-17 25 10 39z" />
    <glyph glyph-name="ocircumflex" unicode="&#xf4;" 
d="M948 1507q-293 0 -502 -208q-208 -209 -208 -501t208 -500t502 -208q293 0 501 208t208 500t-208 500t-501 209zM947 -31q-345 0 -589 243t-244 586q0 342 244 586t589 244t589 -244t244 -586t-244 -586q-244 -243 -589 -243zM975 2081l301 -219q27 -23 6 -52l-16 -18
q-20 -29 -54 -8l-243 176q-23 18 -45 0l-240 -174q-31 -23 -53 6l-17 18q-20 29 7 52l297 219q28 25 57 0z" />
    <glyph glyph-name="otilde" unicode="&#xf5;" 
d="M771 1952q-48 0 -80 -41t-40 -107q-4 -37 -41 -37h-18q-14 -1 -24 11t-9 26q7 102 61 177t154 75q51 0 96 -24t124 -100q79 -78 130 -78t82 40q31 41 35 107q4 37 41 37h21q14 0 24 -12t8 -25q-8 -102 -57 -177t-150 -75q-51 0 -90 24t-95 74t-73 63q-51 42 -99 42z
M948 1507q-293 0 -502 -208q-208 -209 -208 -501t208 -500t502 -208q293 0 501 208t208 500t-208 500t-501 209zM947 -31q-345 0 -589 243t-244 586q0 342 244 586t589 244t589 -244t244 -586t-244 -586q-244 -243 -589 -243z" />
    <glyph glyph-name="odieresis" unicode="&#xf6;" 
d="M1171 1798q-39 0 -67 27t-27 65q0 38 28 67q29 28 67 28t66 -28t28 -67q0 -40 -28 -66t-67 -26zM725 1798q-39 0 -67 27t-28 65t28 67q28 28 67 28t66 -28t27 -67q0 -40 -28 -66q-26 -26 -65 -26zM948 1507q-293 0 -502 -208q-208 -209 -208 -501t208 -500t502 -208
q293 0 501 208t208 500t-208 500t-501 209zM947 -31q-345 0 -589 243t-244 586q0 342 244 586t589 244t589 -244t244 -586t-244 -586q-244 -243 -589 -243z" />
    <glyph glyph-name="divide" unicode="&#xf7;" horiz-adv-x="1245" 
d="M623 244q-43 0 -75 30t-32 74q0 43 32 74t75 31t73 -31t31 -75q-1 -43 -31 -73t-73 -30zM623 1040q-43 0 -75 31t-32 74t32 74t75 31t73 -32q30 -30 31 -74q-1 -44 -31 -74t-73 -30zM213 805h819q16 0 26 -11t11 -26v-41q0 -13 -10 -25t-27 -12h-819q-16 0 -27 11
q-10 11 -10 26v41q0 14 10 26q11 11 27 11z" />
    <glyph glyph-name="oslash" unicode="&#xf8;" 
d="M948 1507q-293 0 -502 -208q-208 -208 -208 -489t176 -480q20 -18 39 0l921 999q18 18 -4 39q-193 139 -422 139zM948 90q293 0 501 208t208 488t-178 480q-16 20 -37 0l-922 -998q-18 -18 4 -39q188 -139 424 -139zM115 810q-1 332 243 574q244 244 590 244
q279 0 504 -172q20 -16 43 2l102 113q23 27 62 26h51q10 0 15 -9t-3 -17l-159 -174q-23 -18 0 -41q217 -238 217 -570t-244 -574q-244 -243 -588 -243q-283 0 -508 170q-20 16 -43 -2l-100 -110q-23 -27 -61 -27h-52q-10 0 -15 9t3 18l158 172q23 18 0 41q-215 238 -215 570
z" />
    <glyph glyph-name="ugrave" unicode="&#xf9;" horiz-adv-x="1753" 
d="M684 2097l442 -268q31 -18 13 -51l-11 -17q-18 -33 -51 -14l-450 246q-33 18 -15 51l23 39q18 32 49 14zM291 1597q35 0 37 -36v-953q0 -232 144 -376t406 -144t404 144q143 144 143 376v953q1 16 11 26t26 10h47q13 0 25 -10t12 -26v-957q0 -279 -176 -457t-493 -178
t-494 178q-176 178 -176 457v957q0 16 11 26t26 10h47z" />
    <glyph glyph-name="uacute" unicode="&#xfa;" horiz-adv-x="1753" 
d="M291 1597q35 0 37 -36v-953q0 -232 144 -376t406 -144t404 144q143 144 143 376v953q1 16 11 26t26 10h47q13 0 25 -10t12 -26v-957q0 -279 -176 -457t-493 -178t-494 178q-176 178 -176 457v957q0 16 11 26t26 10h47zM618 1825l455 276q23 14 39 -10l31 -55
q14 -23 -10 -39l-467 -254q-23 -14 -39 10l-19 33q-17 25 10 39z" />
    <glyph glyph-name="ucircumflex" unicode="&#xfb;" horiz-adv-x="1746" 
d="M899 2081l301 -219q27 -23 6 -52l-16 -18q-20 -29 -53 -8l-244 176q-23 18 -45 0l-240 -174q-31 -23 -53 6l-16 18q-20 29 6 52l297 219q28 25 57 0zM287 1597q35 0 37 -36v-953q0 -232 144 -376t405 -144t405 143q143 144 143 377v953q1 16 11 26t26 10h47q13 0 25 -10
t12 -26v-957q0 -279 -176 -457t-494 -178t-493 178q-176 178 -176 457v957q0 16 11 26t26 10h47z" />
    <glyph glyph-name="udieresis" unicode="&#xfc;" horiz-adv-x="1753" 
d="M291 1597q35 0 37 -36v-953q0 -232 144 -376t406 -144t404 144q143 144 143 376v953q1 16 11 26t26 10h47q13 0 25 -10t12 -26v-957q0 -279 -176 -457t-493 -178t-494 178q-176 178 -176 457v957q0 16 11 26t26 10h47zM1100 1798q-39 0 -67 27q-27 27 -27 65t27 67
q28 28 67 28q38 0 66 -28t28 -67q0 -40 -28 -66t-66 -26zM653 1798q-39 0 -67 27t-27 65q0 38 28 67q29 28 67 28t65 -28t27 -67q0 -40 -28 -66q-26 -26 -65 -26z" />
    <glyph glyph-name="yacute" unicode="&#xfd;" horiz-adv-x="1624" 
d="M872 37q0 -37 -36 -37h-48q-14 0 -25 10t-11 27v518q0 29 -17 51l-686 961q-7 10 -1 20t18 10h71q37 0 58 -30l600 -838q16 -20 32 0l603 838q20 31 57 30h72q12 0 17 -10t-1 -20l-686 -959q-16 -23 -17 -51v-520zM555 1825l455 276q23 14 39 -10l30 -55q14 -23 -10 -39
l-467 -254q-23 -14 -39 10l-18 33q-17 25 10 39z" />
    <glyph glyph-name="thorn" unicode="&#xfe;" horiz-adv-x="1521" 
d="M1309 801q0 182 -126 308t-341 126h-463q-29 0 -29 -29v-813q0 -29 29 -28h463q213 0 340 127t127 309zM266 0q-35 0 -37 37v1524q1 16 11 26t26 10h47q13 0 25 -10t12 -26v-183q0 -29 29 -28h467q270 0 428 -159t158 -390t-159 -391t-427 -160h-467q-29 0 -29 -29v-184
q0 -16 -11 -27q-12 -10 -26 -10h-47z" />
    <glyph glyph-name="ydieresis" unicode="&#xff;" horiz-adv-x="1624" 
d="M1034 1798q-38 0 -66 27t-28 65t28 67q28 28 66 28t67 -28q27 -28 27 -67q0 -40 -28 -66t-66 -26zM588 1798q-39 0 -67 27q-27 27 -27 65t27 67q28 28 67 28q40 0 66 -28t26 -67q0 -40 -26 -66t-66 -26zM872 37q0 -37 -36 -37h-48q-14 0 -25 10t-11 27v518q0 29 -17 51
l-686 961q-7 10 -1 20t18 10h71q37 0 58 -30l600 -838q16 -20 32 0l603 838q20 31 57 30h72q12 0 17 -10t-1 -20l-686 -959q-16 -23 -17 -51v-520z" />
    <glyph glyph-name="Amacron" unicode="&#x100;" horiz-adv-x="1654" 
d="M1163 1835q0 -37 -37 -37h-596q-14 0 -25 10t-11 27v27q0 14 11 25t25 11h596q16 0 26 -11t11 -25v-27zM408 475h839q10 0 16 8q5 9 1 19l-424 938q-12 20 -25 0l-424 -938q-4 -10 1 -18t16 -9zM856 1597q35 0 53 -32l701 -1532q6 -9 0 -21t-21 -12h-59q-37 0 -51 33
l-138 301q-14 27 -41 26h-946q-27 0 -41 -26l-135 -301q-14 -33 -51 -33h-61q-14 0 -21 11q-6 12 0 22l700 1532q18 33 54 32h57z" />
    <glyph glyph-name="amacron" unicode="&#x101;" horiz-adv-x="1654" 
d="M1163 1835q0 -37 -37 -37h-596q-14 0 -25 10t-11 27v27q0 14 11 25t25 11h596q16 0 26 -11t11 -25v-27zM408 475h839q10 0 16 8q5 9 1 19l-424 938q-12 20 -25 0l-424 -938q-4 -10 1 -18t16 -9zM856 1597q35 0 53 -32l701 -1532q6 -9 0 -21t-21 -12h-59q-37 0 -51 33
l-138 301q-14 27 -41 26h-946q-27 0 -41 -26l-135 -301q-14 -33 -51 -33h-61q-14 0 -21 11q-6 12 0 22l700 1532q18 33 54 32h57z" />
    <glyph glyph-name="Abreve" unicode="&#x102;" horiz-adv-x="1654" 
d="M825 1763q-111 -1 -199 57t-145 154q-16 33 15 49l20 13q31 16 51 -15q92 -153 259 -153t259 153q20 31 52 15l20 -13q31 -16 14 -49q-55 -94 -145 -152t-201 -59zM408 475h839q10 0 16 8q5 9 1 19l-424 938q-12 20 -25 0l-424 -938q-4 -10 1 -18t16 -9zM856 1597
q35 0 53 -32l701 -1532q6 -9 0 -21t-21 -12h-59q-37 0 -51 33l-138 301q-14 27 -41 26h-946q-27 0 -41 -26l-135 -301q-14 -33 -51 -33h-61q-14 0 -21 11q-6 12 0 22l700 1532q18 33 54 32h57z" />
    <glyph glyph-name="abreve" unicode="&#x103;" horiz-adv-x="1654" 
d="M825 1763q-111 -1 -199 57t-145 154q-16 33 15 49l20 13q31 16 51 -15q92 -153 259 -153t259 153q20 31 52 15l20 -13q31 -16 14 -49q-55 -94 -145 -152t-201 -59zM408 475h839q10 0 16 8q5 9 1 19l-424 938q-12 20 -25 0l-424 -938q-4 -10 1 -18t16 -9zM856 1597
q35 0 53 -32l701 -1532q6 -9 0 -21t-21 -12h-59q-37 0 -51 33l-138 301q-14 27 -41 26h-946q-27 0 -41 -26l-135 -301q-14 -33 -51 -33h-61q-14 0 -21 11q-6 12 0 22l700 1532q18 33 54 32h57z" />
    <glyph glyph-name="Aogonek" unicode="&#x104;" horiz-adv-x="1652" 
d="M406 475h839q10 0 16 8q5 9 1 19l-424 938q-12 20 -25 0l-424 -938q-4 -10 1 -18t16 -9zM854 1597q35 0 53 -32l701 -1530q16 -35 -13 -60q-184 -160 -184 -278q0 -61 49 -89t133 -18q37 4 43 -32l4 -23q2 -15 -7 -27t-23 -14q-127 -16 -209 34t-82 150q0 147 197 312
q4 2 2 6t-7 4h-4q-16 0 -22 14l-146 320q-12 27 -41 26h-946q-29 0 -41 -26l-135 -301q-14 -33 -51 -33h-62q-14 0 -20 12t0 21l700 1532q18 33 54 32h57z" />
    <glyph glyph-name="aogonek" unicode="&#x105;" horiz-adv-x="1652" 
d="M406 475h839q10 0 16 8q5 9 1 19l-424 938q-12 20 -25 0l-424 -938q-4 -10 1 -18t16 -9zM854 1597q35 0 53 -32l701 -1530q16 -35 -13 -60q-184 -160 -184 -278q0 -61 49 -89t133 -18q37 4 43 -32l4 -23q2 -15 -7 -27t-23 -14q-127 -16 -209 34t-82 150q0 147 197 312
q4 2 2 6t-7 4h-4q-16 0 -22 14l-146 320q-12 27 -41 26h-946q-29 0 -41 -26l-135 -301q-14 -33 -51 -33h-62q-14 0 -20 12t0 21l700 1532q18 33 54 32h57z" />
    <glyph glyph-name="Cacute" unicode="&#x106;" horiz-adv-x="1759" 
d="M948 90q180 0 335 84t251 229q23 29 53 13l43 -25q14 -6 18 -21t-6 -26q-114 -172 -296 -273t-398 -102q-346 0 -590 243t-244 586q0 342 244 586t590 244q212 0 396 -101t296 -274q8 -10 6 -25t-18 -22l-41 -22q-33 -18 -53 12q-98 143 -252 227t-334 84
q-293 0 -502 -208q-208 -209 -208 -501t208 -500t502 -208zM690 1825l455 276q23 14 39 -10l30 -55q14 -23 -10 -39l-467 -254q-23 -14 -39 10l-18 33q-17 25 10 39z" />
    <glyph glyph-name="cacute" unicode="&#x107;" horiz-adv-x="1759" 
d="M948 90q180 0 335 84t251 229q23 29 53 13l43 -25q14 -6 18 -21t-6 -26q-114 -172 -296 -273t-398 -102q-346 0 -590 243t-244 586q0 342 244 586t590 244q212 0 396 -101t296 -274q8 -10 6 -25t-18 -22l-41 -22q-33 -18 -53 12q-98 143 -252 227t-334 84
q-293 0 -502 -208q-208 -209 -208 -501t208 -500t502 -208zM690 1825l455 276q23 14 39 -10l30 -55q14 -23 -10 -39l-467 -254q-23 -14 -39 10l-18 33q-17 25 10 39z" />
    <glyph glyph-name="Cdotaccent" unicode="&#x10a;" horiz-adv-x="1759" 
d="M948 90q180 0 335 84t251 229q23 29 53 13l43 -25q14 -6 18 -21t-6 -26q-114 -172 -296 -273t-398 -102q-346 0 -590 243t-244 586q0 342 244 586t590 244q212 0 396 -101t296 -274q8 -10 6 -25t-18 -22l-41 -22q-33 -18 -53 12q-98 143 -252 227t-334 84
q-293 0 -502 -208q-208 -209 -208 -501t208 -500t502 -208zM948 1778q-38 0 -66 26t-28 66q0 38 28 66t66 28t66 -28q26 -28 26 -66t-26 -66q-27 -26 -66 -26z" />
    <glyph glyph-name="cdotaccent" unicode="&#x10b;" horiz-adv-x="1759" 
d="M948 90q180 0 335 84t251 229q23 29 53 13l43 -25q14 -6 18 -21t-6 -26q-114 -172 -296 -273t-398 -102q-346 0 -590 243t-244 586q0 342 244 586t590 244q212 0 396 -101t296 -274q8 -10 6 -25t-18 -22l-41 -22q-33 -18 -53 12q-98 143 -252 227t-334 84
q-293 0 -502 -208q-208 -209 -208 -501t208 -500t502 -208zM948 1778q-38 0 -66 26t-28 66q0 38 28 66t66 28t66 -28q26 -28 26 -66t-26 -66q-27 -26 -66 -26z" />
    <glyph glyph-name="Ccaron" unicode="&#x10c;" horiz-adv-x="1759" 
d="M1284 2011l-313 -231q-20 -16 -45 0l-310 231q-23 16 -4 39l25 31q18 20 41 6l240 -174q31 -23 61 -2l244 176q23 14 41 -6l24 -31q19 -23 -4 -39zM948 90q180 0 335 84t251 229q23 29 53 13l43 -25q14 -6 18 -21t-6 -26q-114 -172 -296 -273t-398 -102q-346 0 -590 243
t-244 586q0 342 244 586t590 244q212 0 396 -101t296 -274q8 -10 6 -25t-18 -22l-41 -22q-33 -18 -53 12q-98 143 -252 227t-334 84q-293 0 -502 -208q-208 -209 -208 -501t208 -500t502 -208z" />
    <glyph glyph-name="ccaron" unicode="&#x10d;" horiz-adv-x="1759" 
d="M1284 2011l-313 -231q-20 -16 -45 0l-310 231q-23 16 -4 39l25 31q18 20 41 6l240 -174q31 -23 61 -2l244 176q23 14 41 -6l24 -31q19 -23 -4 -39zM948 90q180 0 335 84t251 229q23 29 53 13l43 -25q14 -6 18 -21t-6 -26q-114 -172 -296 -273t-398 -102q-346 0 -590 243
t-244 586q0 342 244 586t590 244q212 0 396 -101t296 -274q8 -10 6 -25t-18 -22l-41 -22q-33 -18 -53 12q-98 143 -252 227t-334 84q-293 0 -502 -208q-208 -209 -208 -501t208 -500t502 -208z" />
    <glyph glyph-name="Dcaron" unicode="&#x10e;" horiz-adv-x="1722" 
d="M1477 799q0 299 -167 489t-462 191h-469q-29 0 -29 -29v-1303q0 -29 29 -28h469q295 1 462 191t167 489zM266 0q-35 0 -37 37v1524q1 16 11 26t26 10h588q352 0 548 -225t196 -574t-196 -574q-196 -224 -548 -224h-588zM1247 2011l-313 -231q-20 -16 -45 0l-309 231
q-23 16 -5 39l25 31q18 20 41 6l240 -174q31 -23 61 -2l244 176q23 14 41 -6l24 -31q19 -23 -4 -39z" />
    <glyph glyph-name="dcaron" unicode="&#x10f;" horiz-adv-x="1722" 
d="M1477 799q0 299 -167 489t-462 191h-469q-29 0 -29 -29v-1303q0 -29 29 -28h469q295 1 462 191t167 489zM266 0q-35 0 -37 37v1524q1 16 11 26t26 10h588q352 0 548 -225t196 -574t-196 -574q-196 -224 -548 -224h-588zM1247 2011l-313 -231q-20 -16 -45 0l-309 231
q-23 16 -5 39l25 31q18 20 41 6l240 -174q31 -23 61 -2l244 176q23 14 41 -6l24 -31q19 -23 -4 -39z" />
    <glyph glyph-name="Dcroat" unicode="&#x110;" horiz-adv-x="1724" 
d="M381 850h508q16 0 26 -11t11 -26v-35q0 -16 -10 -26t-27 -11h-508q-29 0 -29 -28v-566q0 -29 29 -28h469q295 0 462 190q167 189 167 489t-167 490t-462 191h-469q-29 0 -29 -29v-571q0 -29 29 -29zM856 0h-588q-14 0 -25 10t-12 27v676q0 29 -28 28h-115q-14 1 -26 11
t-11 26v35q0 13 11 25t26 12h115q29 0 28 29v682q-1 16 11 26t26 10h588q352 0 548 -225t196 -574t-196 -574q-196 -224 -548 -224z" />
    <glyph glyph-name="dcroat" unicode="&#x111;" horiz-adv-x="1724" 
d="M381 850h508q16 0 26 -11t11 -26v-35q0 -16 -10 -26t-27 -11h-508q-29 0 -29 -28v-566q0 -29 29 -28h469q295 0 462 190q167 189 167 489t-167 490t-462 191h-469q-29 0 -29 -29v-571q0 -29 29 -29zM856 0h-588q-14 0 -25 10t-12 27v676q0 29 -28 28h-115q-14 1 -26 11
t-11 26v35q0 13 11 25t26 12h115q29 0 28 29v682q-1 16 11 26t26 10h588q352 0 548 -225t196 -574t-196 -574q-196 -224 -548 -224z" />
    <glyph glyph-name="Emacron" unicode="&#x112;" horiz-adv-x="1454" 
d="M1327 1516q0 -37 -37 -37h-911q-29 0 -29 -29v-580q0 -29 29 -28h766q14 0 25 -12t12 -25v-41q0 -14 -12 -26t-25 -11h-766q-29 0 -29 -29v-551q0 -29 29 -28h911q16 0 26 -10t11 -27v-45q0 -16 -10 -27q-11 -10 -27 -10h-1024q-35 0 -37 37v1524q1 16 11 26t26 10h1024
q37 0 37 -36v-45zM481 1798q-35 0 -37 37v27q0 14 10 25t27 11h596q13 0 25 -11t12 -25v-27q0 -17 -11 -27t-26 -10h-596z" />
    <glyph glyph-name="emacron" unicode="&#x113;" horiz-adv-x="1454" 
d="M1327 1516q0 -37 -37 -37h-911q-29 0 -29 -29v-580q0 -29 29 -28h766q14 0 25 -12t12 -25v-41q0 -14 -12 -26t-25 -11h-766q-29 0 -29 -29v-551q0 -29 29 -28h911q16 0 26 -10t11 -27v-45q0 -16 -10 -27q-11 -10 -27 -10h-1024q-35 0 -37 37v1524q1 16 11 26t26 10h1024
q37 0 37 -36v-45zM481 1798q-35 0 -37 37v27q0 14 10 25t27 11h596q13 0 25 -11t12 -25v-27q0 -17 -11 -27t-26 -10h-596z" />
    <glyph glyph-name="Edotaccent" unicode="&#x116;" horiz-adv-x="1454" 
d="M1327 1516q0 -37 -37 -37h-911q-29 0 -29 -29v-580q0 -29 29 -28h766q14 0 25 -12t12 -25v-41q0 -14 -12 -26t-25 -11h-766q-29 0 -29 -29v-551q0 -29 29 -28h911q16 0 26 -10t11 -27v-45q0 -16 -10 -27q-11 -10 -27 -10h-1024q-35 0 -37 37v1524q1 16 11 26t26 10h1024
q37 0 37 -36v-45zM778 1778q-38 0 -66 26t-28 66q0 38 28 66t66 28t66 -28q26 -28 26 -66t-26 -66q-27 -26 -66 -26z" />
    <glyph glyph-name="edotaccent" unicode="&#x117;" horiz-adv-x="1454" 
d="M1327 1516q0 -37 -37 -37h-911q-29 0 -29 -29v-580q0 -29 29 -28h766q14 0 25 -12t12 -25v-41q0 -14 -12 -26t-25 -11h-766q-29 0 -29 -29v-551q0 -29 29 -28h911q16 0 26 -10t11 -27v-45q0 -16 -10 -27q-11 -10 -27 -10h-1024q-35 0 -37 37v1524q1 16 11 26t26 10h1024
q37 0 37 -36v-45zM778 1778q-38 0 -66 26t-28 66q0 38 28 66t66 28t66 -28q26 -28 26 -66t-26 -66q-27 -26 -66 -26z" />
    <glyph glyph-name="Eogonek" unicode="&#x118;" horiz-adv-x="1452" 
d="M1202 0h-938q-14 0 -25 10t-12 27v1524q-1 16 11 26t26 10h1024q14 0 26 -10t11 -26v-45q0 -16 -11 -26t-26 -11h-911q-29 0 -29 -29v-580q0 -29 29 -28h766q16 0 26 -12t11 -25v-41q0 -14 -10 -26t-27 -11h-766q-29 0 -29 -29v-551q0 -29 29 -28h911q14 0 26 -10t11 -27
v-43q0 -39 -27 -62q-184 -168 -184 -280q0 -61 49 -89t133 -18q37 4 43 -32l4 -23q2 -15 -7 -27t-23 -14q-127 -16 -209 34t-82 150q0 145 186 304q6 4 4 11t-10 7z" />
    <glyph glyph-name="eogonek" unicode="&#x119;" horiz-adv-x="1452" 
d="M1202 0h-938q-14 0 -25 10t-12 27v1524q-1 16 11 26t26 10h1024q14 0 26 -10t11 -26v-45q0 -16 -11 -26t-26 -11h-911q-29 0 -29 -29v-580q0 -29 29 -28h766q16 0 26 -12t11 -25v-41q0 -14 -10 -26t-27 -11h-766q-29 0 -29 -29v-551q0 -29 29 -28h911q14 0 26 -10t11 -27
v-43q0 -39 -27 -62q-184 -168 -184 -280q0 -61 49 -89t133 -18q37 4 43 -32l4 -23q2 -15 -7 -27t-23 -14q-127 -16 -209 34t-82 150q0 145 186 304q6 4 4 11t-10 7z" />
    <glyph glyph-name="Ecaron" unicode="&#x11a;" horiz-adv-x="1454" 
d="M1112 2011l-313 -231q-20 -16 -45 0l-310 231q-23 16 -4 39l25 31q18 20 41 6l239 -174q31 -23 62 -2l244 176q23 14 41 -6l24 -31q19 -23 -4 -39zM1327 1516q0 -37 -37 -37h-911q-29 0 -29 -29v-580q0 -29 29 -28h766q14 0 25 -12t12 -25v-41q0 -14 -12 -26t-25 -11
h-766q-29 0 -29 -29v-551q0 -29 29 -28h911q16 0 26 -10t11 -27v-45q0 -16 -10 -27q-11 -10 -27 -10h-1024q-35 0 -37 37v1524q1 16 11 26t26 10h1024q37 0 37 -36v-45z" />
    <glyph glyph-name="ecaron" unicode="&#x11b;" horiz-adv-x="1454" 
d="M1112 2011l-313 -231q-20 -16 -45 0l-310 231q-23 16 -4 39l25 31q18 20 41 6l239 -174q31 -23 62 -2l244 176q23 14 41 -6l24 -31q19 -23 -4 -39zM1327 1516q0 -37 -37 -37h-911q-29 0 -29 -29v-580q0 -29 29 -28h766q14 0 25 -12t12 -25v-41q0 -14 -12 -26t-25 -11
h-766q-29 0 -29 -29v-551q0 -29 29 -28h911q16 0 26 -10t11 -27v-45q0 -16 -10 -27q-11 -10 -27 -10h-1024q-35 0 -37 37v1524q1 16 11 26t26 10h1024q37 0 37 -36v-45z" />
    <glyph glyph-name="Gbreve" unicode="&#x11e;" horiz-adv-x="1810" 
d="M948 -31q-346 0 -590 243t-244 586q0 342 244 586t590 244q190 0 360 -83t285 -226q8 -9 6 -25t-14 -24l-39 -27q-29 -23 -53 6q-101 121 -243 190t-302 68q-293 0 -502 -208q-208 -209 -208 -501t208 -500t502 -208q180 0 335 85t253 233q14 25 14 51v227q1 29 -28 29
h-518q-16 0 -27 11q-10 11 -10 26v32q0 14 10 26t27 11h624q14 0 26 -11t11 -26v-747q0 -17 -11 -27t-26 -10h-29q-14 0 -25 10t-11 27v160l-2 49l-2 4q-1 6 -7 8t-10 -4q-100 -133 -257 -209t-337 -76zM948 1763q-112 -1 -200 57t-144 154q-16 33 14 49l21 13q31 16 51 -15
q92 -153 259 -153t259 153q20 31 52 15l20 -13q31 -16 14 -49q-55 -94 -145 -152t-201 -59z" />
    <glyph glyph-name="gbreve" unicode="&#x11f;" horiz-adv-x="1810" 
d="M948 -31q-346 0 -590 243t-244 586q0 342 244 586t590 244q190 0 360 -83t285 -226q8 -9 6 -25t-14 -24l-39 -27q-29 -23 -53 6q-101 121 -243 190t-302 68q-293 0 -502 -208q-208 -209 -208 -501t208 -500t502 -208q180 0 335 85t253 233q14 25 14 51v227q1 29 -28 29
h-518q-16 0 -27 11q-10 11 -10 26v32q0 14 10 26t27 11h624q14 0 26 -11t11 -26v-747q0 -17 -11 -27t-26 -10h-29q-14 0 -25 10t-11 27v160l-2 49l-2 4q-1 6 -7 8t-10 -4q-100 -133 -257 -209t-337 -76zM948 1763q-112 -1 -200 57t-144 154q-16 33 14 49l21 13q31 16 51 -15
q92 -153 259 -153t259 153q20 31 52 15l20 -13q31 -16 14 -49q-55 -94 -145 -152t-201 -59z" />
    <glyph glyph-name="Gdotaccent" unicode="&#x120;" horiz-adv-x="1810" 
d="M948 1778q-38 0 -66 26t-28 66q0 38 28 66t66 28t66 -28q26 -28 26 -66t-26 -66q-27 -26 -66 -26zM948 -31q-346 0 -590 243t-244 586q0 342 244 586t590 244q190 0 360 -83t285 -226q8 -9 6 -25t-14 -24l-39 -27q-29 -23 -53 6q-101 121 -243 190t-302 68
q-293 0 -502 -208q-208 -209 -208 -501t208 -500t502 -208q180 0 335 85t253 233q14 25 14 51v227q1 29 -28 29h-518q-16 0 -27 11q-10 11 -10 26v32q0 14 10 26t27 11h624q14 0 26 -11t11 -26v-747q0 -17 -11 -27t-26 -10h-29q-14 0 -25 10t-11 27v160l-2 49l-2 4
q-1 6 -7 8t-10 -4q-100 -133 -257 -209t-337 -76z" />
    <glyph glyph-name="gdotaccent" unicode="&#x121;" horiz-adv-x="1810" 
d="M948 1778q-38 0 -66 26t-28 66q0 38 28 66t66 28t66 -28q26 -28 26 -66t-26 -66q-27 -26 -66 -26zM948 -31q-346 0 -590 243t-244 586q0 342 244 586t590 244q190 0 360 -83t285 -226q8 -9 6 -25t-14 -24l-39 -27q-29 -23 -53 6q-101 121 -243 190t-302 68
q-293 0 -502 -208q-208 -209 -208 -501t208 -500t502 -208q180 0 335 85t253 233q14 25 14 51v227q1 29 -28 29h-518q-16 0 -27 11q-10 11 -10 26v32q0 14 10 26t27 11h624q14 0 26 -11t11 -26v-747q0 -17 -11 -27t-26 -10h-29q-14 0 -25 10t-11 27v160l-2 49l-2 4
q-1 6 -7 8t-10 -4q-100 -133 -257 -209t-337 -76z" />
    <glyph glyph-name="Gcommaaccent" unicode="&#x122;" horiz-adv-x="1810" 
d="M1047 -238q0 -160 -201 -340q-25 -20 -43 3l-2 4q-23 23 2 43q104 111 137 188q10 25 -18 35q-25 6 -43 29q-19 22 -19 56t27 60t65 27q38 0 66 -29q29 -29 29 -76zM948 -31q-346 0 -590 243t-244 586q0 342 244 586t590 244q190 0 360 -83t285 -226q8 -9 6 -25t-14 -24
l-39 -27q-29 -23 -53 6q-101 121 -243 190t-302 68q-293 0 -502 -208q-208 -209 -208 -501t208 -500t502 -208q180 0 335 85t253 233q14 25 14 51v227q1 29 -28 29h-518q-16 0 -27 11q-10 11 -10 26v32q0 14 10 26t27 11h624q14 0 26 -11t11 -26v-747q0 -17 -11 -27t-26 -10
h-29q-14 0 -25 10t-11 27v160l-2 49l-2 4q-1 6 -7 8t-10 -4q-100 -133 -257 -209t-337 -76z" />
    <glyph glyph-name="gcommaaccent" unicode="&#x123;" horiz-adv-x="1810" 
d="M1047 -238q0 -160 -201 -340q-25 -20 -43 3l-2 4q-23 23 2 43q104 111 137 188q10 25 -18 35q-25 6 -43 29q-19 22 -19 56t27 60t65 27q38 0 66 -29q29 -29 29 -76zM948 -31q-346 0 -590 243t-244 586q0 342 244 586t590 244q190 0 360 -83t285 -226q8 -9 6 -25t-14 -24
l-39 -27q-29 -23 -53 6q-101 121 -243 190t-302 68q-293 0 -502 -208q-208 -209 -208 -501t208 -500t502 -208q180 0 335 85t253 233q14 25 14 51v227q1 29 -28 29h-518q-16 0 -27 11q-10 11 -10 26v32q0 14 10 26t27 11h624q14 0 26 -11t11 -26v-747q0 -17 -11 -27t-26 -10
h-29q-14 0 -25 10t-11 27v160l-2 49l-2 4q-1 6 -7 8t-10 -4q-100 -133 -257 -209t-337 -76z" />
    <glyph glyph-name="Hbar" unicode="&#x126;" horiz-adv-x="1798" 
d="M1419 1169h-1040q-29 0 -29 -28v-271q0 -29 29 -28h1040q29 0 29 28v271q0 28 -29 28zM78 1233q0 37 37 37h86q29 0 28 28v263q1 16 11 26t26 10h47q13 0 25 -10t12 -26v-263q0 -29 29 -28h1040q29 -1 29 28v263q0 16 11 26t26 10h47q37 0 37 -36v-263q0 -29 28 -28h86
q17 0 27 -10t10 -27v-27q0 -14 -10 -25t-27 -12h-86q-29 0 -28 -28v-1104q0 -37 -37 -37h-47q-14 0 -26 10q-11 10 -11 27v661q0 29 -29 29h-1040q-29 0 -29 -29v-661q0 -17 -11 -27t-26 -10h-47q-35 0 -37 37v1104q0 29 -28 28h-86q-17 -1 -27 11t-10 26v27z" />
    <glyph glyph-name="hbar" unicode="&#x127;" horiz-adv-x="1798" 
d="M1419 1169h-1040q-29 0 -29 -28v-271q0 -29 29 -28h1040q29 0 29 28v271q0 28 -29 28zM78 1233q0 37 37 37h86q29 0 28 28v263q1 16 11 26t26 10h47q13 0 25 -10t12 -26v-263q0 -29 29 -28h1040q29 -1 29 28v263q0 16 11 26t26 10h47q37 0 37 -36v-263q0 -29 28 -28h86
q17 0 27 -10t10 -27v-27q0 -14 -10 -25t-27 -12h-86q-29 0 -28 -28v-1104q0 -37 -37 -37h-47q-14 0 -26 10q-11 10 -11 27v661q0 29 -29 29h-1040q-29 0 -29 -29v-661q0 -17 -11 -27t-26 -10h-47q-35 0 -37 37v1104q0 29 -28 28h-86q-17 -1 -27 11t-10 26v27z" />
    <glyph glyph-name="Itilde" unicode="&#x128;" horiz-adv-x="577" 
d="M229 37v1524q1 16 11 26t26 10h47q13 0 25 -10t12 -26v-1524q0 -17 -11 -27t-26 -10h-47q-16 0 -26 10t-11 27zM104 1952q-38 0 -70 -41t-40 -107q-4 -37 -41 -37h-19q-14 -1 -24 11t-8 26q8 102 61 177t154 75q51 0 96 -24t124 -100q79 -78 130 -78t82 40q31 41 35 107
q4 37 41 37h20q15 0 25 -12t8 -25q-8 -102 -57 -177t-150 -75q-51 0 -90 24t-108 85t-100 78q-31 16 -69 16z" />
    <glyph glyph-name="itilde" unicode="&#x129;" horiz-adv-x="577" 
d="M104 1952q-38 0 -70 -41t-40 -107q-4 -37 -41 -37h-19q-14 -1 -24 11t-8 26q8 102 61 177t154 75q51 0 96 -24t124 -100q79 -78 130 -78t82 40q31 41 35 107q4 37 41 37h20q15 0 25 -12t8 -25q-8 -102 -57 -177t-150 -75q-51 0 -90 24t-108 85t-100 78q-31 16 -69 16z
M229 37v1524q1 16 11 26t26 10h47q13 0 25 -10t12 -26v-1524q0 -17 -11 -27t-26 -10h-47q-16 0 -26 10t-11 27z" />
    <glyph glyph-name="Imacron" unicode="&#x12a;" horiz-adv-x="577" 
d="M-8 1898h596q14 0 25 -11t12 -25v-27q1 -17 -11 -27t-26 -10h-596q-16 0 -27 10q-10 10 -10 27v27q0 14 10 25q11 11 27 11zM229 37v1524q1 16 11 26t26 10h47q13 0 25 -10t12 -26v-1524q0 -17 -11 -27t-26 -10h-47q-16 0 -26 10t-11 27z" />
    <glyph glyph-name="imacron" unicode="&#x12b;" horiz-adv-x="577" 
d="M229 37v1524q1 16 11 26t26 10h47q13 0 25 -10t12 -26v-1524q0 -17 -11 -27t-26 -10h-47q-16 0 -26 10t-11 27zM-8 1898h596q14 0 25 -11t12 -25v-27q1 -17 -11 -27t-26 -10h-596q-16 0 -27 10q-10 10 -10 27v27q0 14 10 25q11 11 27 11z" />
    <glyph glyph-name="Ibreve" unicode="&#x12c;" horiz-adv-x="577" 
d="M289 1763q-111 -1 -200 57t-144 154q-16 33 14 49l21 13q31 16 51 -15q92 -153 259 -153t259 153q20 31 51 15l21 -13q31 -16 14 -49q-55 -94 -145 -152t-201 -59zM229 37v1524q1 16 11 26t26 10h47q13 0 25 -10t12 -26v-1524q0 -17 -11 -27t-26 -10h-47q-16 0 -26 10
t-11 27z" />
    <glyph glyph-name="ibreve" unicode="&#x12d;" horiz-adv-x="577" 
d="M289 1763q-111 -1 -200 57t-144 154q-16 33 14 49l21 13q31 16 51 -15q92 -153 259 -153t259 153q20 31 51 15l21 -13q31 -16 14 -49q-55 -94 -145 -152t-201 -59zM229 37v1524q1 16 11 26t26 10h47q13 0 25 -10t12 -26v-1524q0 -17 -11 -27t-26 -10h-47q-16 0 -26 10
t-11 27z" />
    <glyph glyph-name="Iogonek" unicode="&#x12e;" horiz-adv-x="579" 
d="M315 1597q37 0 37 -36v-1524q0 -37 -28 -62q-184 -160 -185 -278q0 -61 49 -89t134 -18q37 4 43 -32l4 -23q3 -15 -7 -27t-24 -14q-127 -16 -209 34t-82 150q0 150 201 316q0 4 -2 6h-4q-11 0 -11 10v1551q-1 16 11 26t26 10h47z" />
    <glyph glyph-name="iogonek" unicode="&#x12f;" horiz-adv-x="579" 
d="M315 1597q37 0 37 -36v-1524q0 -37 -28 -62q-184 -160 -185 -278q0 -61 49 -89t134 -18q37 4 43 -32l4 -23q3 -15 -7 -27t-24 -14q-127 -16 -209 34t-82 150q0 150 201 316q0 4 -2 6h-4q-11 0 -11 10v1551q-1 16 11 26t26 10h47z" />
    <glyph glyph-name="Idotaccent" unicode="&#x130;" horiz-adv-x="577" 
d="M229 37v1524q1 16 11 26t26 10h47q13 0 25 -10t12 -26v-1524q0 -17 -11 -27t-26 -10h-47q-16 0 -26 10t-11 27zM289 1778q-39 0 -67 26t-27 66q-1 38 27 66t67 28t65 -28t27 -66q-1 -38 -27 -66q-26 -26 -65 -26z" />
    <glyph glyph-name="dotlessi" unicode="&#x131;" horiz-adv-x="577" 
d="M229 37v1524q1 16 11 26t26 10h47q13 0 25 -10t12 -26v-1524q0 -17 -11 -27t-26 -10h-47q-16 0 -26 10t-11 27z" />
    <glyph glyph-name="IJ" unicode="&#x132;" horiz-adv-x="1896" 
d="M1565 1561q0 36 37 36h47q14 0 25 -10t12 -26v-1029q0 -266 -157 -414t-388 -148t-390 149q-159 150 -159 413v99q0 16 11 26t26 11h49q14 0 25 -10t12 -27v-99q0 -216 122 -330t303 -114t303 114t122 330v1029zM229 37v1524q1 16 11 26t26 10h47q13 0 25 -10t12 -26
v-1524q0 -17 -11 -27t-26 -10h-47q-16 0 -26 10t-11 27z" />
    <glyph glyph-name="ij" unicode="&#x133;" horiz-adv-x="1896" 
d="M1565 1561q0 36 37 36h47q14 0 25 -10t12 -26v-1029q0 -266 -157 -414t-388 -148t-390 149q-159 150 -159 413v99q0 16 11 26t26 11h49q14 0 25 -10t12 -27v-99q0 -216 122 -330t303 -114t303 114t122 330v1029zM229 37v1524q1 16 11 26t26 10h47q13 0 25 -10t12 -26
v-1524q0 -17 -11 -27t-26 -10h-47q-16 0 -26 10t-11 27z" />
    <glyph glyph-name="Jcircumflex" unicode="&#x134;" horiz-adv-x="1394" 
d="M90 631q0 35 37 37h49q16 0 26 -10t11 -27v-99q0 -216 122 -330t303 -114t303 114t122 330v1029q0 16 11 26t26 10h47q37 0 37 -36v-1029q0 -266 -157 -414t-388 -148t-390 149q-159 150 -159 413v99zM1151 2081l301 -219q27 -23 6 -52l-16 -18q-20 -29 -53 -8l-244 176
q-23 18 -45 0l-240 -174q-31 -23 -53 6l-16 18q-20 29 6 52l297 219q28 25 57 0z" />
    <glyph glyph-name="jcircumflex" unicode="&#x135;" horiz-adv-x="1394" 
d="M90 631q0 35 37 37h49q16 0 26 -10t11 -27v-99q0 -216 122 -330t303 -114t303 114t122 330v1029q0 16 11 26t26 10h47q37 0 37 -36v-1029q0 -266 -157 -414t-388 -148t-390 149q-159 150 -159 413v99zM1151 2081l301 -219q27 -23 6 -52l-16 -18q-20 -29 -53 -8l-244 176
q-23 18 -45 0l-240 -174q-31 -23 -53 6l-16 18q-20 29 6 52l297 219q28 25 57 0z" />
    <glyph glyph-name="Kcommaaccent" unicode="&#x136;" horiz-adv-x="1593" 
d="M995 -238q0 -160 -200 -340q-25 -20 -43 3l-2 4q-23 23 2 43q104 111 137 188q10 25 -19 35q-25 6 -43 29q-18 22 -18 56t27 60q26 26 64 27q38 0 66 -29t29 -76zM266 0q-35 0 -37 37v1524q1 16 11 26t26 10h47q13 0 25 -10t12 -26v-910q0 -8 7 -11t14 3l983 930
q29 25 63 24h90q11 0 15 -9t-4 -15l-648 -615q-18 -23 -2 -43l682 -886q8 -9 2 -19t-16 -10h-80q-35 0 -59 29l-619 800q-18 23 -39 2l-368 -348q-20 -20 -21 -49v-397q0 -16 -11 -27q-12 -10 -26 -10h-47z" />
    <glyph glyph-name="kcommaaccent" unicode="&#x137;" horiz-adv-x="1593" 
d="M995 -238q0 -160 -200 -340q-25 -20 -43 3l-2 4q-23 23 2 43q104 111 137 188q10 25 -19 35q-25 6 -43 29q-18 22 -18 56t27 60q26 26 64 27q38 0 66 -29t29 -76zM266 0q-35 0 -37 37v1524q1 16 11 26t26 10h47q13 0 25 -10t12 -26v-910q0 -8 7 -11t14 3l983 930
q29 25 63 24h90q11 0 15 -9t-4 -15l-648 -615q-18 -23 -2 -43l682 -886q8 -9 2 -19t-16 -10h-80q-35 0 -59 29l-619 800q-18 23 -39 2l-368 -348q-20 -20 -21 -49v-397q0 -16 -11 -27q-12 -10 -26 -10h-47z" />
    <glyph glyph-name="Lacute" unicode="&#x139;" horiz-adv-x="1341" 
d="M266 0q-35 0 -37 37v1524q1 16 11 26t26 10h47q13 0 25 -10t12 -26v-1414q0 -29 29 -28h858q17 0 27 -10t10 -27v-45q0 -16 -10 -27q-11 -10 -27 -10h-971zM33 1825l454 276q23 14 39 -10l31 -55q14 -23 -10 -39l-467 -254q-23 -14 -39 10l-18 33q-17 25 10 39z" />
    <glyph glyph-name="lacute" unicode="&#x13a;" horiz-adv-x="1341" 
d="M266 0q-35 0 -37 37v1524q1 16 11 26t26 10h47q13 0 25 -10t12 -26v-1414q0 -29 29 -28h858q17 0 27 -10t10 -27v-45q0 -16 -10 -27q-11 -10 -27 -10h-971zM33 1825l454 276q23 14 39 -10l31 -55q14 -23 -10 -39l-467 -254q-23 -14 -39 10l-18 33q-17 25 10 39z" />
    <glyph glyph-name="Lcommaaccent" unicode="&#x13b;" horiz-adv-x="1341" 
d="M848 -238q0 -160 -201 -340q-25 -20 -43 3l-2 4q-23 23 2 43q104 111 137 188q10 25 -18 35q-25 6 -43 29q-18 22 -18 56t26 60t65 27q39 0 67 -29t28 -76zM266 0q-35 0 -37 37v1524q1 16 11 26t26 10h47q13 0 25 -10t12 -26v-1414q0 -29 29 -28h858q17 0 27 -10t10 -27
v-45q0 -16 -10 -27q-11 -10 -27 -10h-971z" />
    <glyph glyph-name="lcommaaccent" unicode="&#x13c;" horiz-adv-x="1341" 
d="M848 -238q0 -160 -201 -340q-25 -20 -43 3l-2 4q-23 23 2 43q104 111 137 188q10 25 -18 35q-25 6 -43 29q-18 22 -18 56t26 60t65 27q39 0 67 -29t28 -76zM266 0q-35 0 -37 37v1524q1 16 11 26t26 10h47q13 0 25 -10t12 -26v-1414q0 -29 29 -28h858q17 0 27 -10t10 -27
v-45q0 -16 -10 -27q-11 -10 -27 -10h-971z" />
    <glyph glyph-name="Lcaron" unicode="&#x13d;" horiz-adv-x="1341" 
d="M797 1513q0 -160 -201 -339q-25 -20 -43 2l-2 4q-23 23 2 43q104 111 137 188q10 25 -18 35q-25 6 -43 29q-19 23 -19 57t27 60t65 26t66 -29q29 -29 29 -76zM266 0q-35 0 -37 37v1524q1 16 11 26t26 10h47q13 0 25 -10t12 -26v-1414q0 -29 29 -28h858q17 0 27 -10
t10 -27v-45q0 -16 -10 -27q-11 -10 -27 -10h-971z" />
    <glyph glyph-name="lcaron" unicode="&#x13e;" horiz-adv-x="1341" 
d="M797 1513q0 -160 -201 -339q-25 -20 -43 2l-2 4q-23 23 2 43q104 111 137 188q10 25 -18 35q-25 6 -43 29q-19 23 -19 57t27 60t65 26t66 -29q29 -29 29 -76zM266 0q-35 0 -37 37v1524q1 16 11 26t26 10h47q13 0 25 -10t12 -26v-1414q0 -29 29 -28h858q17 0 27 -10
t10 -27v-45q0 -16 -10 -27q-11 -10 -27 -10h-971z" />
    <glyph glyph-name="Ldot" unicode="&#x13f;" horiz-adv-x="1341" 
d="M811 764q-39 0 -67 27t-28 65t28 67q28 27 67 27t66 -28t27 -66q0 -40 -28 -66q-26 -26 -65 -26zM266 0q-35 0 -37 37v1524q1 16 11 26t26 10h47q13 0 25 -10t12 -26v-1414q0 -29 29 -28h858q17 0 27 -10t10 -27v-45q0 -16 -10 -27q-11 -10 -27 -10h-971z" />
    <glyph glyph-name="ldot" unicode="&#x140;" horiz-adv-x="1341" 
d="M811 764q-39 0 -67 27t-28 65t28 67q28 27 67 27t66 -28t27 -66q0 -40 -28 -66q-26 -26 -65 -26zM266 0q-35 0 -37 37v1524q1 16 11 26t26 10h47q13 0 25 -10t12 -26v-1414q0 -29 29 -28h858q17 0 27 -10t10 -27v-45q0 -16 -10 -27q-11 -10 -27 -10h-971z" />
    <glyph glyph-name="Lslash" unicode="&#x141;" horiz-adv-x="1341" 
d="M266 0q-35 0 -37 37v620q0 9 -8 15t-18 2l-101 -45q-10 -4 -21 2t-11 20v54q0 37 32 51l101 45q26 14 26 41v719q1 16 11 26t26 10h47q13 0 25 -10t12 -26v-664q0 -10 8 -15t19 -1l440 200q9 4 21 -2t12 -20v-53q0 -37 -33 -52l-440 -200q-27 -12 -27 -41v-566
q0 -29 29 -28h860q13 0 25 -10t12 -27v-45q0 -17 -11 -27t-26 -10h-973z" />
    <glyph glyph-name="lslash" unicode="&#x142;" horiz-adv-x="1341" 
d="M266 0q-35 0 -37 37v620q0 9 -8 15t-18 2l-101 -45q-10 -4 -21 2t-11 20v54q0 37 32 51l101 45q26 14 26 41v719q1 16 11 26t26 10h47q13 0 25 -10t12 -26v-664q0 -10 8 -15t19 -1l440 200q9 4 21 -2t12 -20v-53q0 -37 -33 -52l-440 -200q-27 -12 -27 -41v-566
q0 -29 29 -28h860q13 0 25 -10t12 -27v-45q0 -17 -11 -27t-26 -10h-973z" />
    <glyph glyph-name="Nacute" unicode="&#x143;" horiz-adv-x="1792" 
d="M1528 1597q35 0 37 -36v-1524q-1 -17 -11 -27t-26 -10h-35q-37 0 -59 29l-1065 1337q-3 6 -11 4t-8 -10v-1323q0 -17 -11 -27t-26 -10h-47q-35 0 -37 37v1524q1 16 11 26t26 10h35q35 0 59 -28l1065 -1340q4 -6 12 -4q7 2 7 11v1325q0 16 11 26t26 10h47zM641 1825
l455 276q23 14 39 -10l30 -55q14 -23 -10 -39l-467 -254q-23 -14 -39 10l-18 33q-17 25 10 39z" />
    <glyph glyph-name="nacute" unicode="&#x144;" horiz-adv-x="1796" 
d="M266 0q-35 0 -37 37v1524q1 16 11 26t26 10h35q37 0 59 -28l1065 -1338q4 -6 12 -4q7 2 7 11v1323q0 16 11 26t26 10h49q14 0 25 -10t12 -26v-1524q1 -17 -11 -27t-26 -10h-37q-35 0 -59 29l-1065 1339q-3 6 -11 4t-8 -10v-1325q0 -17 -11 -27t-26 -10h-47zM641 1825
l455 276q23 14 39 -10l30 -55q14 -23 -10 -39l-467 -254q-23 -14 -39 10l-18 33q-17 25 10 39z" />
    <glyph glyph-name="Ncommaaccent" unicode="&#x145;" horiz-adv-x="1792" 
d="M993 -238q0 -160 -200 -340q-25 -20 -43 3l-2 4q-23 23 2 43q104 111 137 188q10 25 -19 35q-25 6 -43 29q-18 22 -18 56t27 60q26 26 64 27q38 0 66 -29t29 -76zM1528 1597q35 0 37 -36v-1524q-1 -17 -11 -27t-26 -10h-35q-37 0 -59 29l-1065 1337q-3 6 -11 4t-8 -10
v-1323q0 -17 -11 -27t-26 -10h-47q-35 0 -37 37v1524q1 16 11 26t26 10h35q35 0 59 -28l1065 -1340q4 -6 12 -4q7 2 7 11v1325q0 16 11 26t26 10h47z" />
    <glyph glyph-name="ncommaaccent" unicode="&#x146;" horiz-adv-x="1796" 
d="M993 -238q0 -160 -200 -340q-25 -20 -43 3l-2 4q-23 23 2 43q104 111 137 188q10 25 -19 35q-25 6 -43 29q-18 22 -18 56t27 60q26 26 64 27q38 0 66 -29t29 -76zM266 0q-35 0 -37 37v1524q1 16 11 26t26 10h35q37 0 59 -28l1065 -1338q4 -6 12 -4q7 2 7 11v1323
q0 16 11 26t26 10h49q14 0 25 -10t12 -26v-1524q1 -17 -11 -27t-26 -10h-37q-35 0 -59 29l-1065 1339q-3 6 -11 4t-8 -10v-1325q0 -17 -11 -27t-26 -10h-47z" />
    <glyph glyph-name="Ncaron" unicode="&#x147;" horiz-adv-x="1792" 
d="M1231 2011l-313 -231q-20 -16 -46 0l-309 231q-23 16 -4 39l25 31q18 20 41 6l239 -174q31 -23 62 -2l243 176q23 14 41 -6l25 -31q19 -23 -4 -39zM1528 1597q35 0 37 -36v-1524q-1 -17 -11 -27t-26 -10h-35q-37 0 -59 29l-1065 1337q-3 6 -11 4t-8 -10v-1323
q0 -17 -11 -27t-26 -10h-47q-35 0 -37 37v1524q1 16 11 26t26 10h35q35 0 59 -28l1065 -1340q4 -6 12 -4q7 2 7 11v1325q0 16 11 26t26 10h47z" />
    <glyph glyph-name="ncaron" unicode="&#x148;" horiz-adv-x="1796" 
d="M1233 2011l-313 -231q-20 -16 -46 0l-309 231q-23 16 -4 39l25 31q18 20 41 6l239 -174q31 -23 62 -2l243 176q23 14 41 -6l25 -31q19 -23 -4 -39zM266 0q-35 0 -37 37v1524q1 16 11 26t26 10h35q37 0 59 -28l1065 -1338q4 -6 12 -4q7 2 7 11v1323q0 16 11 26t26 10h49
q14 0 25 -10t12 -26v-1524q1 -17 -11 -27t-26 -10h-37q-35 0 -59 29l-1065 1339q-3 6 -11 4t-8 -10v-1325q0 -17 -11 -27t-26 -10h-47z" />
    <glyph glyph-name="Eng" unicode="&#x14a;" horiz-adv-x="1789" 
d="M1442 1561q0 36 37 36h47q14 0 25 -10t12 -26v-1641q0 -264 -159 -414t-382 -149q-176 0 -296 92t-171 225q-4 14 2 28t18 19l46 15q35 10 49 -23q41 -102 132 -170t224 -67q172 0 294 114t122 330v66q0 29 -19 51l-1056 1329q-3 6 -11 4t-8 -10v-1323q0 -37 -37 -37h-47
q-14 0 -25 10t-12 27v1524q-1 16 11 26t26 10h35q35 0 59 -28l1065 -1340q4 -6 12 -4q7 2 7 11v1325z" />
    <glyph glyph-name="eng" unicode="&#x14b;" horiz-adv-x="1789" 
d="M1442 1561q0 36 37 36h47q14 0 25 -10t12 -26v-1641q0 -264 -159 -414t-382 -149q-176 0 -296 92t-171 225q-4 14 2 28t18 19l46 15q35 10 49 -23q41 -102 132 -170t224 -67q172 0 294 114t122 330v66q0 29 -19 51l-1056 1329q-3 6 -11 4t-8 -10v-1323q0 -37 -37 -37h-47
q-14 0 -25 10t-12 27v1524q-1 16 11 26t26 10h35q35 0 59 -28l1065 -1340q4 -6 12 -4q7 2 7 11v1325z" />
    <glyph glyph-name="Omacron" unicode="&#x14c;" 
d="M948 1507q-293 0 -502 -208q-208 -209 -208 -501t208 -500t502 -208q293 0 501 208t208 500t-208 500t-501 209zM947 -31q-345 0 -589 243t-244 586q0 342 244 586t589 244t589 -244t244 -586t-244 -586q-244 -243 -589 -243zM651 1798q-35 0 -37 37v27q0 14 10 25t27 11
h596q13 0 25 -11t12 -25v-27q0 -17 -11 -27t-26 -10h-596z" />
    <glyph glyph-name="omacron" unicode="&#x14d;" 
d="M948 1507q-293 0 -502 -208q-208 -209 -208 -501t208 -500t502 -208q293 0 501 208t208 500t-208 500t-501 209zM947 -31q-345 0 -589 243t-244 586q0 342 244 586t589 244t589 -244t244 -586t-244 -586q-244 -243 -589 -243zM651 1798q-35 0 -37 37v27q0 14 10 25t27 11
h596q13 0 25 -11t12 -25v-27q0 -17 -11 -27t-26 -10h-596z" />
    <glyph glyph-name="Obreve" unicode="&#x14e;" 
d="M946 1763q-111 -1 -200 57t-144 154q-16 33 14 49l21 13q31 16 51 -15q92 -153 259 -153t259 153q20 31 51 15l21 -13q31 -16 14 -49q-55 -94 -145 -152t-201 -59zM948 1507q-293 0 -502 -208q-208 -209 -208 -501t208 -500t502 -208q293 0 501 208t208 500t-208 500
t-501 209zM947 -31q-345 0 -589 243t-244 586q0 342 244 586t589 244t589 -244t244 -586t-244 -586q-244 -243 -589 -243z" />
    <glyph glyph-name="obreve" unicode="&#x14f;" 
d="M946 1763q-111 -1 -200 57t-144 154q-16 33 14 49l21 13q31 16 51 -15q92 -153 259 -153t259 153q20 31 51 15l21 -13q31 -16 14 -49q-55 -94 -145 -152t-201 -59zM948 1507q-293 0 -502 -208q-208 -209 -208 -501t208 -500t502 -208q293 0 501 208t208 500t-208 500
t-501 209zM947 -31q-345 0 -589 243t-244 586q0 342 244 586t589 244t589 -244t244 -586t-244 -586q-244 -243 -589 -243z" />
    <glyph glyph-name="Ohungarumlaut" unicode="&#x150;" 
d="M1466 2101l-307 -295q-27 -25 -53 2l-12 15q-27 27 -2 53l292 307q25 27 52 0l30 -31q27 -26 0 -51zM1010 2101l-308 -295q-27 -25 -53 2l-14 15q-27 27 -2 53l295 307q25 27 51 0l31 -31q27 -26 0 -51zM948 1507q-293 0 -502 -208q-208 -209 -208 -501t208 -500
t502 -208q293 0 501 208t208 500t-208 500t-501 209zM947 -31q-345 0 -589 243t-244 586q0 342 244 586t589 244t589 -244t244 -586t-244 -586q-244 -243 -589 -243z" />
    <glyph glyph-name="ohungarumlaut" unicode="&#x151;" 
d="M1466 2101l-307 -295q-27 -25 -53 2l-12 15q-27 27 -2 53l292 307q25 27 52 0l30 -31q27 -26 0 -51zM1010 2101l-308 -295q-27 -25 -53 2l-14 15q-27 27 -2 53l295 307q25 27 51 0l31 -31q27 -26 0 -51zM948 1507q-293 0 -502 -208q-208 -209 -208 -501t208 -500
t502 -208q293 0 501 208t208 500t-208 500t-501 209zM947 -31q-345 0 -589 243t-244 586q0 342 244 586t589 244t589 -244t244 -586t-244 -586q-244 -243 -589 -243z" />
    <glyph glyph-name="OE" unicode="&#x152;" horiz-adv-x="2400" 
d="M1001 1479q-350 0 -555 -194q-204 -195 -204 -487t204 -486t555 -193h144q29 0 29 28v1303q0 29 -29 29h-144zM2234 0h-1233q-407 0 -645 227t-238 571t239 571q239 228 644 228h1233q14 0 26 -10t11 -26v-45q0 -16 -11 -26t-26 -11h-911q-29 0 -29 -29v-580
q0 -29 29 -28h766q17 0 27 -12t10 -25v-41q0 -14 -10 -26t-27 -11h-766q-29 0 -29 -29v-551q0 -29 29 -28h911q14 0 26 -10t11 -27v-45q0 -16 -11 -27q-12 -10 -26 -10z" />
    <glyph glyph-name="oe" unicode="&#x153;" horiz-adv-x="2398" 
d="M1001 1479q-350 0 -555 -194q-204 -195 -204 -487t204 -486t555 -193h144q29 0 29 28v1303q0 29 -29 29h-144zM2234 0h-1233q-407 0 -645 227t-238 571t239 571q239 228 644 228h1233q14 0 26 -10t11 -26v-45q0 -16 -11 -26t-26 -11h-911q-29 0 -29 -29v-580
q0 -29 29 -28h766q17 0 27 -12t10 -25v-41q0 -14 -10 -26t-27 -11h-766q-29 0 -29 -29v-551q0 -29 29 -28h911q14 0 26 -10t11 -27v-45q0 -16 -11 -27q-12 -10 -26 -10z" />
    <glyph glyph-name="Racute" unicode="&#x154;" horiz-adv-x="1626" 
d="M1360 1081q0 168 -115 285t-315 117h-551q-29 0 -29 -29v-745q0 -29 29 -29h551q202 0 316 116t114 285zM229 37v1524q1 16 11 26t26 10h668q250 0 397 -148t148 -366q0 -166 -89 -297t-249 -188q-24 -10 -11 -33l383 -534q6 -11 1 -21t-17 -10h-74q-37 0 -57 31
l-369 518q-16 16 -36 16h-582q-29 0 -29 -28v-500q0 -17 -11 -27t-26 -10h-47q-16 0 -26 10t-11 27zM625 1825l454 276q23 14 39 -10l31 -55q14 -23 -10 -39l-467 -254q-23 -14 -39 10l-19 33q-16 25 11 39z" />
    <glyph glyph-name="racute" unicode="&#x155;" horiz-adv-x="1626" 
d="M1360 1081q0 168 -115 285t-315 117h-551q-29 0 -29 -29v-745q0 -29 29 -29h551q202 0 316 116t114 285zM229 37v1524q1 16 11 26t26 10h668q250 0 397 -148t148 -366q0 -166 -89 -297t-249 -188q-24 -10 -11 -33l383 -534q6 -11 1 -21t-17 -10h-74q-37 0 -57 31
l-369 518q-16 16 -36 16h-582q-29 0 -29 -28v-500q0 -17 -11 -27t-26 -10h-47q-16 0 -26 10t-11 27zM625 1825l454 276q23 14 39 -10l31 -55q14 -23 -10 -39l-467 -254q-23 -14 -39 10l-19 33q-16 25 11 39z" />
    <glyph glyph-name="Rcommaaccent" unicode="&#x156;" horiz-adv-x="1626" 
d="M975 -238q0 -160 -201 -340q-25 -20 -43 3l-2 4q-23 23 2 43q104 111 137 188q10 25 -18 35q-25 6 -43 29q-19 22 -19 56t27 60t65 27q38 0 66 -29t29 -76zM1360 1081q0 168 -115 285t-315 117h-551q-29 0 -29 -29v-745q0 -29 29 -29h551q202 0 316 116t114 285zM229 37
v1524q1 16 11 26t26 10h668q250 0 397 -148t148 -366q0 -166 -89 -297t-249 -188q-24 -10 -11 -33l383 -534q6 -11 1 -21t-17 -10h-74q-37 0 -57 31l-369 518q-16 16 -36 16h-582q-29 0 -29 -28v-500q0 -17 -11 -27t-26 -10h-47q-16 0 -26 10t-11 27z" />
    <glyph glyph-name="rcommaaccent" unicode="&#x157;" horiz-adv-x="1626" 
d="M975 -238q0 -160 -201 -340q-25 -20 -43 3l-2 4q-23 23 2 43q104 111 137 188q10 25 -18 35q-25 6 -43 29q-19 22 -19 56t27 60t65 27q38 0 66 -29t29 -76zM1360 1081q0 168 -115 285t-315 117h-551q-29 0 -29 -29v-745q0 -29 29 -29h551q202 0 316 116t114 285zM229 37
v1524q1 16 11 26t26 10h668q250 0 397 -148t148 -366q0 -166 -89 -297t-249 -188q-24 -10 -11 -33l383 -534q6 -11 1 -21t-17 -10h-74q-37 0 -57 31l-369 518q-16 16 -36 16h-582q-29 0 -29 -28v-500q0 -17 -11 -27t-26 -10h-47q-16 0 -26 10t-11 27z" />
    <glyph glyph-name="Rcaron" unicode="&#x158;" horiz-adv-x="1626" 
d="M1214 2011l-313 -231q-20 -16 -45 0l-309 231q-23 16 -4 39l24 31q18 20 41 6l240 -174q31 -23 61 -2l244 176q23 14 41 -6l25 -31q18 -23 -5 -39zM1360 1081q0 168 -115 285t-315 117h-551q-29 0 -29 -29v-745q0 -29 29 -29h551q202 0 316 116t114 285zM229 37v1524
q1 16 11 26t26 10h668q250 0 397 -148t148 -366q0 -166 -89 -297t-249 -188q-24 -10 -11 -33l383 -534q6 -11 1 -21t-17 -10h-74q-37 0 -57 31l-369 518q-16 16 -36 16h-582q-29 0 -29 -28v-500q0 -17 -11 -27t-26 -10h-47q-16 0 -26 10t-11 27z" />
    <glyph glyph-name="rcaron" unicode="&#x159;" horiz-adv-x="1626" 
d="M1214 2011l-313 -231q-20 -16 -45 0l-309 231q-23 16 -4 39l24 31q18 20 41 6l240 -174q31 -23 61 -2l244 176q23 14 41 -6l25 -31q18 -23 -5 -39zM1360 1081q0 168 -115 285t-315 117h-551q-29 0 -29 -29v-745q0 -29 29 -29h551q202 0 316 116t114 285zM229 37v1524
q1 16 11 26t26 10h668q250 0 397 -148t148 -366q0 -166 -89 -297t-249 -188q-24 -10 -11 -33l383 -534q6 -11 1 -21t-17 -10h-74q-37 0 -57 31l-369 518q-16 16 -36 16h-582q-29 0 -29 -28v-500q0 -17 -11 -27t-26 -10h-47q-16 0 -26 10t-11 27z" />
    <glyph glyph-name="Sacute" unicode="&#x15a;" horiz-adv-x="1441" 
d="M744 -31q-263 1 -435 107t-186 278q-2 16 11 32t30 13h35q39 -4 43 -41q18 -124 152 -200t349 -76t335 82t120 205t-85 195q-85 73 -253 129q-56 19 -158 50q-339 104 -447 202q-48 44 -85 113t-37 152q0 188 155 303q156 115 410 115t420 -108t178 -279q2 -13 -8 -29
t-24 -16h-45q-37 0 -41 41q-16 125 -144 202t-336 77q-206 0 -322 -82t-116 -202t68 -180q37 -34 79 -65t145 -65q208 -71 320 -104q111 -33 179 -70q160 -86 205 -152q73 -101 71 -211q0 -188 -160 -302t-423 -114zM442 1825l455 276q23 14 39 -10l31 -55q14 -23 -11 -39
l-467 -254q-23 -14 -38 10l-19 33q-17 25 10 39z" />
    <glyph glyph-name="sacute" unicode="&#x15b;" horiz-adv-x="1441" 
d="M744 -31q-263 1 -435 107t-186 278q-2 16 11 32t30 13h35q39 -4 43 -41q18 -124 152 -200t349 -76t335 82t120 205t-85 195q-85 73 -253 129q-56 19 -158 50q-339 104 -447 202q-48 44 -85 113t-37 152q0 188 155 303q156 115 410 115t420 -108t178 -279q2 -13 -8 -29
t-24 -16h-45q-37 0 -41 41q-16 125 -144 202t-336 77q-206 0 -322 -82t-116 -202t68 -180q37 -34 79 -65t145 -65q208 -71 320 -104q111 -33 179 -70q160 -86 205 -152q73 -101 71 -211q0 -188 -160 -302t-423 -114zM442 1825l455 276q23 14 39 -10l31 -55q14 -23 -11 -39
l-467 -254q-23 -14 -38 10l-19 33q-17 25 10 39z" />
    <glyph glyph-name="Scircumflex" unicode="&#x15c;" horiz-adv-x="1441" 
d="M744 -31q-263 1 -435 107t-186 278q-2 16 11 32t30 13h35q39 -4 43 -41q18 -124 152 -200t349 -76t335 82t120 205t-85 195q-85 73 -253 129q-56 19 -158 50q-339 104 -447 202q-48 44 -85 113t-37 152q0 188 155 303q156 115 410 115t420 -108t178 -279q2 -13 -8 -29
t-24 -16h-45q-37 0 -41 41q-16 125 -144 202t-336 77q-206 0 -322 -82t-116 -202t68 -180q37 -34 79 -65t145 -65q208 -71 320 -104q111 -33 179 -70q160 -86 205 -152q73 -101 71 -211q0 -188 -160 -302t-423 -114zM727 2081l301 -219q27 -23 6 -52l-16 -18q-20 -29 -53 -8
l-244 176q-23 18 -45 0l-240 -174q-31 -23 -53 6l-16 18q-20 29 6 52l297 219q28 25 57 0z" />
    <glyph glyph-name="scircumflex" unicode="&#x15d;" horiz-adv-x="1441" 
d="M744 -31q-263 1 -435 107t-186 278q-2 16 11 32t30 13h35q39 -4 43 -41q18 -124 152 -200t349 -76t335 82t120 205t-85 195q-85 73 -253 129q-56 19 -158 50q-339 104 -447 202q-48 44 -85 113t-37 152q0 188 155 303q156 115 410 115t420 -108t178 -279q2 -13 -8 -29
t-24 -16h-45q-37 0 -41 41q-16 125 -144 202t-336 77q-206 0 -322 -82t-116 -202t68 -180q37 -34 79 -65t145 -65q208 -71 320 -104q111 -33 179 -70q160 -86 205 -152q73 -101 71 -211q0 -188 -160 -302t-423 -114zM727 2081l301 -219q27 -23 6 -52l-16 -18q-20 -29 -53 -8
l-244 176q-23 18 -45 0l-240 -174q-31 -23 -53 6l-16 18q-20 29 6 52l297 219q28 25 57 0z" />
    <glyph glyph-name="Scedilla" unicode="&#x15e;" horiz-adv-x="1443" 
d="M743 82q215 0 335 82t120 205t-85 195q-85 73 -253 129q-56 19 -158 50q-339 104 -447 202q-48 44 -85 113t-37 152q0 188 155 303q156 115 410 115t420 -108t178 -279q2 -13 -8 -29t-24 -16h-45q-37 0 -41 41q-16 125 -144 202t-336 77q-206 0 -322 -82t-116 -202
t68 -180q37 -34 79 -65t145 -65q208 -71 320 -104q111 -33 179 -70q160 -86 205 -152q73 -101 71 -211q0 -176 -140 -286t-378 -126q-31 -4 -37 -30l-22 -62q-5 -24 20 -31q113 -12 172 -72t59 -140t-66 -143q-67 -62 -175 -62t-228 51q-34 11 -8 63q14 35 49 19
q95 -41 177 -41t124 38t44 91q0 53 -50 92t-153 37q-25 -2 -47 20q-18 23 -9 45l33 95q4 8 -2 17t-16 11q-233 15 -386 119t-165 264q-2 16 11 32t30 13h35q39 -4 43 -41q18 -124 152 -200t349 -76z" />
    <glyph glyph-name="scedilla" unicode="&#x15f;" horiz-adv-x="1443" 
d="M743 82q215 0 335 82t120 205t-85 195q-85 73 -253 129q-56 19 -158 50q-339 104 -447 202q-48 44 -85 113t-37 152q0 188 155 303q156 115 410 115t420 -108t178 -279q2 -13 -8 -29t-24 -16h-45q-37 0 -41 41q-16 125 -144 202t-336 77q-206 0 -322 -82t-116 -202
t68 -180q37 -34 79 -65t145 -65q208 -71 320 -104q111 -33 179 -70q160 -86 205 -152q73 -101 71 -211q0 -176 -140 -286t-378 -126q-31 -4 -37 -30l-22 -62q-5 -24 20 -31q113 -12 172 -72t59 -140t-66 -143q-67 -62 -175 -62t-228 51q-34 11 -8 63q14 35 49 19
q95 -41 177 -41t124 38t44 91q0 53 -50 92t-153 37q-25 -2 -47 20q-18 23 -9 45l33 95q4 8 -2 17t-16 11q-233 15 -386 119t-165 264q-2 16 11 32t30 13h35q39 -4 43 -41q18 -124 152 -200t349 -76z" />
    <glyph glyph-name="Scaron" unicode="&#x160;" horiz-adv-x="1441" 
d="M1034 2011l-313 -231q-20 -16 -45 0l-309 231q-23 16 -5 39l25 31q18 20 41 6l240 -174q31 -23 61 -2l244 176q23 14 41 -6l24 -31q19 -23 -4 -39zM744 -31q-263 1 -435 107t-186 278q-2 16 11 32t30 13h35q39 -4 43 -41q18 -124 152 -200t349 -76t335 82t120 205
t-85 195q-85 73 -253 129q-56 19 -158 50q-339 104 -447 202q-48 44 -85 113t-37 152q0 188 155 303q156 115 410 115t420 -108t178 -279q2 -13 -8 -29t-24 -16h-45q-37 0 -41 41q-16 125 -144 202t-336 77q-206 0 -322 -82t-116 -202t68 -180q37 -34 79 -65t145 -65
q208 -71 320 -104q111 -33 179 -70q160 -86 205 -152q73 -101 71 -211q0 -188 -160 -302t-423 -114z" />
    <glyph glyph-name="scaron" unicode="&#x161;" horiz-adv-x="1441" 
d="M744 -31q-263 1 -435 107t-186 278q-2 16 11 32t30 13h35q39 -4 43 -41q18 -124 152 -200t349 -76t335 82t120 205t-85 195q-85 73 -253 129q-56 19 -158 50q-339 104 -447 202q-48 44 -85 113t-37 152q0 188 155 303q156 115 410 115t420 -108t178 -279q2 -13 -8 -29
t-24 -16h-45q-37 0 -41 41q-16 125 -144 202t-336 77q-206 0 -322 -82t-116 -202t68 -180q37 -34 79 -65t145 -65q208 -71 320 -104q111 -33 179 -70q160 -86 205 -152q73 -101 71 -211q0 -188 -160 -302t-423 -114zM1034 2011l-313 -231q-20 -16 -45 0l-309 231
q-23 16 -5 39l25 31q18 20 41 6l240 -174q31 -23 61 -2l244 176q23 14 41 -6l24 -31q19 -23 -4 -39z" />
    <glyph glyph-name="Tcommaaccent" unicode="&#x162;" horiz-adv-x="1384" 
d="M786 -238q0 -160 -200 -340q-25 -20 -43 3l-2 4q-23 23 2 43q104 111 137 188q10 25 -18 35q-25 6 -44 29q-18 22 -18 56t27 60t65 27q38 0 66 -29t28 -76zM602 1479h-510q-14 0 -25 10t-12 27v45q-1 16 11 26t26 10h1200q14 0 26 -10t11 -26v-45q0 -16 -11 -26t-26 -11
h-512q-29 0 -28 -29v-1413q0 -17 -12 -27t-25 -10h-47q-16 0 -27 10q-10 10 -10 27v1413q0 29 -29 29z" />
    <glyph glyph-name="tcommaaccent" unicode="&#x163;" horiz-adv-x="1384" 
d="M786 -238q0 -160 -200 -340q-25 -20 -43 3l-2 4q-23 23 2 43q104 111 137 188q10 25 -18 35q-25 6 -44 29q-18 22 -18 56t27 60t65 27q38 0 66 -29t28 -76zM602 1479h-510q-14 0 -25 10t-12 27v45q-1 16 11 26t26 10h1200q14 0 26 -10t11 -26v-45q0 -16 -11 -26t-26 -11
h-512q-29 0 -28 -29v-1413q0 -17 -12 -27t-25 -10h-47q-16 0 -27 10q-10 10 -10 27v1413q0 29 -29 29z" />
    <glyph glyph-name="Tcaron" unicode="&#x164;" horiz-adv-x="1384" 
d="M602 1479h-510q-14 0 -25 10t-12 27v45q-1 16 11 26t26 10h1200q14 0 26 -10t11 -26v-45q0 -16 -11 -26t-26 -11h-512q-29 0 -28 -29v-1413q0 -17 -12 -27t-25 -10h-47q-16 0 -27 10q-10 10 -10 27v1413q0 29 -29 29zM1026 2011l-313 -231q-20 -16 -45 0l-310 231
q-23 16 -4 39l25 31q18 20 41 6l239 -174q31 -23 62 -2l244 176q23 14 41 -6l24 -31q19 -23 -4 -39z" />
    <glyph glyph-name="tcaron" unicode="&#x165;" horiz-adv-x="1384" 
d="M602 1479h-510q-14 0 -25 10t-12 27v45q-1 16 11 26t26 10h1200q14 0 26 -10t11 -26v-45q0 -16 -11 -26t-26 -11h-512q-29 0 -28 -29v-1413q0 -17 -12 -27t-25 -10h-47q-16 0 -27 10q-10 10 -10 27v1413q0 29 -29 29zM1026 2011l-313 -231q-20 -16 -45 0l-310 231
q-23 16 -4 39l25 31q18 20 41 6l239 -174q31 -23 62 -2l244 176q23 14 41 -6l24 -31q19 -23 -4 -39z" />
    <glyph glyph-name="Tbar" unicode="&#x166;" horiz-adv-x="1400" 
d="M762 37q0 -37 -37 -37h-49q-16 0 -27 10q-10 10 -10 27v686q0 29 -29 29h-223q-14 0 -26 11q-11 11 -11 25v25q0 13 11 25t26 12h223q29 0 29 29v571q0 29 -29 29h-510q-14 0 -25 10t-12 27v45q-1 16 11 26t26 10h1200q14 0 26 -10t11 -26v-45q0 -16 -11 -26t-26 -11
h-509q-29 0 -29 -29v-571q0 -29 29 -29h221q16 0 26 -11t11 -26v-25q-1 -14 -11 -25t-26 -11h-221q-29 0 -29 -29v-686z" />
    <glyph glyph-name="tbar" unicode="&#x167;" horiz-adv-x="1400" 
d="M762 37q0 -37 -37 -37h-49q-16 0 -27 10q-10 10 -10 27v686q0 29 -29 29h-223q-14 0 -26 11q-11 11 -11 25v25q0 13 11 25t26 12h223q29 0 29 29v571q0 29 -29 29h-510q-14 0 -25 10t-12 27v45q-1 16 11 26t26 10h1200q14 0 26 -10t11 -26v-45q0 -16 -11 -26t-26 -11
h-509q-29 0 -29 -29v-571q0 -29 29 -29h221q16 0 26 -11t11 -26v-25q-1 -14 -11 -25t-26 -11h-221q-29 0 -29 -29v-686z" />
    <glyph glyph-name="Utilde" unicode="&#x168;" horiz-adv-x="1746" 
d="M685 1952q-38 0 -70 -41t-40 -107q-4 -37 -40 -37h-19q-14 -1 -24 11t-9 26q7 102 61 177t154 75q50 0 96 -24t124 -100q78 -78 130 -78t82 40q30 41 35 107q4 37 41 37h21q14 0 24 -12t9 -25q-8 -102 -58 -177t-149 -75q-51 0 -90 24t-108 85t-100 78q-32 16 -70 16z
M287 1597q35 0 37 -36v-953q0 -232 144 -376t405 -144t405 143q143 144 143 377v953q1 16 11 26t26 10h47q13 0 25 -10t12 -26v-957q0 -279 -176 -457t-494 -178t-493 178q-176 178 -176 457v957q0 16 11 26t26 10h47z" />
    <glyph glyph-name="utilde" unicode="&#x169;" horiz-adv-x="1746" 
d="M685 1952q-38 0 -70 -41t-40 -107q-4 -37 -40 -37h-19q-14 -1 -24 11t-9 26q7 102 61 177t154 75q50 0 96 -24t124 -100q78 -78 130 -78t82 40q30 41 35 107q4 37 41 37h21q14 0 24 -12t9 -25q-8 -102 -58 -177t-149 -75q-51 0 -90 24t-108 85t-100 78q-32 16 -70 16z
M287 1597q35 0 37 -36v-953q0 -232 144 -376t405 -144t405 143q143 144 143 377v953q1 16 11 26t26 10h47q13 0 25 -10t12 -26v-957q0 -279 -176 -457t-494 -178t-493 178q-176 178 -176 457v957q0 16 11 26t26 10h47z" />
    <glyph glyph-name="Umacron" unicode="&#x16a;" horiz-adv-x="1753" 
d="M1212 1835q0 -37 -36 -37h-596q-14 0 -26 10q-11 10 -11 27v27q0 14 11 25q12 11 26 11h596q16 0 26 -11t10 -25v-27zM291 1597q35 0 37 -36v-953q0 -232 144 -376t406 -144t404 144q143 144 143 376v953q1 16 11 26t26 10h47q13 0 25 -10t12 -26v-957q0 -279 -176 -457
t-493 -178t-494 178q-176 178 -176 457v957q0 16 11 26t26 10h47z" />
    <glyph glyph-name="umacron" unicode="&#x16b;" horiz-adv-x="1753" 
d="M1212 1835q0 -37 -36 -37h-596q-14 0 -26 10q-11 10 -11 27v27q0 14 11 25q12 11 26 11h596q16 0 26 -11t10 -25v-27zM291 1597q35 0 37 -36v-953q0 -232 144 -376t406 -144t404 144q143 144 143 376v953q1 16 11 26t26 10h47q13 0 25 -10t12 -26v-957q0 -279 -176 -457
t-493 -178t-494 178q-176 178 -176 457v957q0 16 11 26t26 10h47z" />
    <glyph glyph-name="Ubreve" unicode="&#x16c;" horiz-adv-x="1753" 
d="M874 1763q-112 -1 -200 57t-144 154q-16 33 15 49l20 13q31 16 51 -15q92 -153 259 -153t260 153q20 31 51 15l20 -13q31 -16 15 -49q-55 -94 -145 -152t-202 -59zM291 1597q35 0 37 -36v-953q0 -232 144 -376t406 -144t404 144q143 144 143 376v953q1 16 11 26t26 10h47
q13 0 25 -10t12 -26v-957q0 -279 -176 -457t-493 -178t-494 178q-176 178 -176 457v957q0 16 11 26t26 10h47z" />
    <glyph glyph-name="ubreve" unicode="&#x16d;" horiz-adv-x="1753" 
d="M874 1763q-112 -1 -200 57t-144 154q-16 33 15 49l20 13q31 16 51 -15q92 -153 259 -153t260 153q20 31 51 15l20 -13q31 -16 15 -49q-55 -94 -145 -152t-202 -59zM291 1597q35 0 37 -36v-953q0 -232 144 -376t406 -144t404 144q143 144 143 376v953q1 16 11 26t26 10h47
q13 0 25 -10t12 -26v-957q0 -279 -176 -457t-493 -178t-494 178q-176 178 -176 457v957q0 16 11 26t26 10h47z" />
    <glyph glyph-name="Uring" unicode="&#x16e;" horiz-adv-x="1753" 
d="M291 1597q35 0 37 -36v-953q0 -232 144 -376t406 -144t404 144q143 144 143 376v953q1 16 11 26t26 10h47q13 0 25 -10t12 -26v-957q0 -279 -176 -457t-493 -178t-494 178q-176 178 -176 457v957q0 16 11 26t26 10h47zM876 2103q-60 0 -104 -43t-43 -103q0 -59 43 -103
q44 -44 104 -44t103 43t43 103t-43 103q-43 44 -103 44zM1110 1958q0 -98 -68 -167t-167 -69q-98 0 -166 68t-68 167t68 167t166 68q99 0 167 -68t68 -166z" />
    <glyph glyph-name="uring" unicode="&#x16f;" horiz-adv-x="1753" 
d="M291 1597q35 0 37 -36v-953q0 -232 144 -376t406 -144t404 144q143 144 143 376v953q1 16 11 26t26 10h47q13 0 25 -10t12 -26v-957q0 -279 -176 -457t-493 -178t-494 178q-176 178 -176 457v957q0 16 11 26t26 10h47zM878 2103q-60 0 -104 -43t-43 -103q0 -59 43 -103
q44 -44 104 -44t103 43t43 103t-43 103q-43 44 -103 44zM1112 1958q0 -98 -68 -167t-167 -69q-98 0 -166 68t-68 167t68 167t166 68q99 0 167 -68t68 -166z" />
    <glyph glyph-name="Uhungarumlaut" unicode="&#x170;" horiz-adv-x="1753" 
d="M291 1597q35 0 37 -36v-953q0 -232 144 -376t406 -144t404 144q143 144 143 376v953q1 16 11 26t26 10h47q13 0 25 -10t12 -26v-957q0 -279 -176 -457t-493 -178t-494 178q-176 178 -176 457v957q0 16 11 26t26 10h47zM1393 2101l-308 -295q-27 -25 -53 2l-12 15
q-27 27 -2 53l293 307q25 27 51 0l31 -31q27 -26 0 -51zM936 2101l-307 -295q-27 -25 -54 2l-14 15q-27 27 -2 53l295 307q25 27 51 0l31 -31q27 -26 0 -51z" />
    <glyph glyph-name="uhungarumlaut" unicode="&#x171;" horiz-adv-x="1753" 
d="M291 1597q35 0 37 -36v-953q0 -232 144 -376t406 -144t404 144q143 144 143 376v953q1 16 11 26t26 10h47q13 0 25 -10t12 -26v-957q0 -279 -176 -457t-493 -178t-494 178q-176 178 -176 457v957q0 16 11 26t26 10h47zM1393 2101l-308 -295q-27 -25 -53 2l-12 15
q-27 27 -2 53l293 307q25 27 51 0l31 -31q27 -26 0 -51zM936 2101l-307 -295q-27 -25 -54 2l-14 15q-27 27 -2 53l295 307q25 27 51 0l31 -31q27 -26 0 -51z" />
    <glyph glyph-name="Uogonek" unicode="&#x172;" horiz-adv-x="1744" 
d="M287 1597q35 0 37 -36v-953q0 -232 144 -376t405 -144t405 143q143 144 143 377v953q1 16 11 26t26 10h47q13 0 25 -10t12 -26v-957q0 -219 -112 -381t-318 -221q-25 -6 -47 -25q-184 -160 -184 -280q0 -61 49 -89t133 -18q37 4 43 -32l4 -23q2 -15 -7 -27t-24 -14
q-127 -16 -209 34t-82 150q0 133 156 277q4 4 2 10t-16 5t-58 -1q-317 0 -493 178t-176 457v957q0 16 11 26t26 10h47z" />
    <glyph glyph-name="uogonek" unicode="&#x173;" horiz-adv-x="1744" 
d="M287 1597q35 0 37 -36v-953q0 -232 144 -376t405 -144t405 143q143 144 143 377v953q1 16 11 26t26 10h47q13 0 25 -10t12 -26v-957q0 -219 -112 -381t-318 -221q-25 -6 -47 -25q-184 -160 -184 -280q0 -61 49 -89t133 -18q37 4 43 -32l4 -23q2 -15 -7 -27t-24 -14
q-127 -16 -209 34t-82 150q0 133 156 277q4 4 2 10t-16 5t-58 -1q-317 0 -493 178t-176 457v957q0 16 11 26t26 10h47z" />
    <glyph glyph-name="Wcircumflex" unicode="&#x174;" horiz-adv-x="2320" 
d="M1188 2081l301 -219q27 -23 6 -52l-16 -18q-20 -29 -54 -8l-243 176q-23 18 -45 0l-240 -174q-31 -23 -53 6l-17 18q-20 29 7 52l296 219q29 25 58 0zM659 0h-59q-35 0 -49 35l-490 1528q-5 12 3 23t22 11h57q37 0 47 -34l433 -1356q2 -6 8 -6t8 6l448 1356q14 35 50 34
h45q35 0 49 -34l448 -1356q3 -6 9 -6t8 6l434 1356q10 35 47 34h57q14 0 22 -11t3 -23l-490 -1528q-14 -35 -49 -35h-59q-35 0 -49 35l-445 1341q-2 6 -8 6t-8 -6l-442 -1341q-14 -35 -50 -35z" />
    <glyph glyph-name="wcircumflex" unicode="&#x175;" horiz-adv-x="2320" 
d="M1188 2081l301 -219q27 -23 6 -52l-16 -18q-20 -29 -54 -8l-243 176q-23 18 -45 0l-240 -174q-31 -23 -53 6l-17 18q-20 29 7 52l296 219q29 25 58 0zM659 0h-59q-35 0 -49 35l-490 1528q-5 12 3 23t22 11h57q37 0 47 -34l433 -1356q2 -6 8 -6t8 6l448 1356q14 35 50 34
h45q35 0 49 -34l448 -1356q3 -6 9 -6t8 6l434 1356q10 35 47 34h57q14 0 22 -11t3 -23l-490 -1528q-14 -35 -49 -35h-59q-35 0 -49 35l-445 1341q-2 6 -8 6t-8 -6l-442 -1341q-14 -35 -50 -35z" />
    <glyph glyph-name="ycircumflex" unicode="&#x177;" horiz-adv-x="1624" 
d="M840 2081l301 -219q27 -23 6 -52l-17 -18q-20 -29 -53 -8l-243 176q-23 18 -46 0l-239 -174q-31 -23 -53 6l-17 18q-20 29 6 52l297 219q29 25 58 0zM872 37q0 -37 -36 -37h-48q-14 0 -25 10t-11 27v518q0 29 -17 51l-686 961q-7 10 -1 20t18 10h71q37 0 58 -30l600 -838
q16 -20 32 0l603 838q20 31 57 30h72q12 0 17 -10t-1 -20l-686 -959q-16 -23 -17 -51v-520z" />
    <glyph glyph-name="Ydieresis" unicode="&#x178;" horiz-adv-x="1624" 
d="M872 37q0 -37 -36 -37h-48q-14 0 -25 10t-11 27v518q0 29 -17 51l-686 961q-7 10 -1 20t18 10h71q37 0 58 -30l600 -838q16 -20 32 0l603 838q20 31 57 30h72q12 0 17 -10t-1 -20l-686 -959q-16 -23 -17 -51v-520zM1034 1798q-38 0 -66 27t-28 65t28 67q28 28 66 28
t67 -28q27 -28 27 -67q0 -40 -28 -66t-66 -26zM588 1798q-39 0 -67 27q-27 27 -27 65t27 67q28 28 67 28q40 0 66 -28t26 -67q0 -40 -26 -66t-66 -26z" />
    <glyph glyph-name="Zacute" unicode="&#x179;" horiz-adv-x="1392" 
d="M1270 119q35 0 37 -37v-45q-1 -17 -11 -27t-26 -10h-1166q-14 0 -25 10t-11 27v18q0 39 22 66l1028 1335q6 8 3 16t-13 7h-969q-35 0 -37 37v45q0 16 10 26t27 10h1135q35 0 37 -36v-19q0 -39 -23 -65l-1030 -1336q-6 -8 -3 -15t13 -7h1002zM432 1825l455 276
q23 14 39 -10l30 -55q14 -23 -10 -39l-467 -254q-23 -14 -39 10l-18 33q-17 25 10 39z" />
    <glyph glyph-name="zacute" unicode="&#x17a;" horiz-adv-x="1392" 
d="M1270 119q35 0 37 -37v-45q-1 -17 -11 -27t-26 -10h-1166q-14 0 -25 10t-11 27v18q0 39 22 66l1028 1335q6 8 3 16t-13 7h-969q-35 0 -37 37v45q0 16 10 26t27 10h1135q35 0 37 -36v-19q0 -39 -23 -65l-1030 -1336q-6 -8 -3 -15t13 -7h1002zM432 1825l455 276
q23 14 39 -10l30 -55q14 -23 -10 -39l-467 -254q-23 -14 -39 10l-18 33q-17 25 10 39z" />
    <glyph glyph-name="Zdotaccent" unicode="&#x17b;" horiz-adv-x="1392" 
d="M1270 119q35 0 37 -37v-45q-1 -17 -11 -27t-26 -10h-1166q-14 0 -25 10t-11 27v18q0 39 22 66l1028 1335q6 8 3 16t-13 7h-969q-35 0 -37 37v45q0 16 10 26t27 10h1135q35 0 37 -36v-19q0 -39 -23 -65l-1030 -1336q-6 -8 -3 -15t13 -7h1002zM690 1778q-38 0 -66 26
t-28 66q0 38 28 66t66 28t66 -28q26 -28 26 -66t-26 -66q-27 -26 -66 -26z" />
    <glyph glyph-name="zdotaccent" unicode="&#x17c;" horiz-adv-x="1392" 
d="M1270 119q35 0 37 -37v-45q-1 -17 -11 -27t-26 -10h-1166q-14 0 -25 10t-11 27v18q0 39 22 66l1028 1335q6 8 3 16t-13 7h-969q-35 0 -37 37v45q0 16 10 26t27 10h1135q35 0 37 -36v-19q0 -39 -23 -65l-1030 -1336q-6 -8 -3 -15t13 -7h1002zM690 1778q-38 0 -66 26
t-28 66q0 38 28 66t66 28t66 -28q26 -28 26 -66t-26 -66q-27 -26 -66 -26z" />
    <glyph glyph-name="Zcaron" unicode="&#x17d;" horiz-adv-x="1390" 
d="M1024 2011l-313 -231q-20 -16 -45 0l-310 231q-23 16 -4 39l25 31q18 20 41 6l239 -174q31 -23 62 -2l244 176q23 14 41 -6l24 -31q19 -23 -4 -39zM1270 119q35 0 37 -37v-45q-1 -17 -11 -27t-26 -10h-1166q-14 0 -25 10t-11 27v18q0 39 22 66l1028 1335q6 8 3 16t-13 7
h-969q-35 0 -37 37v45q0 16 10 26t27 10h1135q35 0 37 -36v-19q0 -39 -23 -65l-1030 -1336q-6 -8 -3 -15t13 -7h1002z" />
    <glyph glyph-name="zcaron" unicode="&#x17e;" horiz-adv-x="1392" 
d="M1270 119q35 0 37 -37v-45q-1 -17 -11 -27t-26 -10h-1166q-14 0 -25 10t-11 27v18q0 39 22 66l1028 1335q6 8 3 16t-13 7h-969q-35 0 -37 37v45q0 16 10 26t27 10h1135q35 0 37 -36v-19q0 -39 -23 -65l-1030 -1336q-6 -8 -3 -15t13 -7h1002zM1024 2011l-313 -231
q-20 -16 -45 0l-310 231q-23 16 -4 39l25 31q18 20 41 6l239 -174q31 -23 62 -2l244 176q23 14 41 -6l24 -31q19 -23 -4 -39z" />
    <glyph glyph-name="AEacute" unicode="&#x1fc;" horiz-adv-x="2557" 
d="M586 475h717q29 0 28 29v899q0 8 -7 10t-11 -4l-738 -911q-6 -8 -3 -16t14 -7zM2429 1516q0 -37 -37 -37h-911q-29 0 -29 -29v-580q0 -29 29 -28h766q14 0 25 -12t12 -25v-41q0 -14 -12 -26t-25 -11h-766q-29 0 -29 -29v-551q0 -29 29 -28h911q16 0 26 -10t11 -27v-45
q0 -16 -10 -27q-11 -10 -27 -10h-1024q-16 0 -27 10q-10 10 -10 27v295q0 29 -28 28h-809q-29 0 -48 -22l-249 -309q-23 -29 -60 -29h-84q-10 0 -15 10t1 19l1249 1540q23 29 60 28h1044q37 0 37 -36v-45zM1356 1825l454 276q23 14 39 -10l31 -55q14 -23 -10 -39l-467 -254
q-23 -14 -39 10l-18 33q-17 25 10 39z" />
    <glyph glyph-name="aeacute" unicode="&#x1fd;" horiz-adv-x="2555" 
d="M586 475h717q29 0 28 29v899q0 8 -7 10t-11 -4l-738 -911q-6 -8 -3 -16t14 -7zM2429 1516q0 -37 -37 -37h-911q-29 0 -29 -29v-580q0 -29 29 -28h766q14 0 25 -12t12 -25v-41q0 -14 -12 -26t-25 -11h-766q-29 0 -29 -29v-551q0 -29 29 -28h911q16 0 26 -10t11 -27v-45
q0 -16 -10 -27q-11 -10 -27 -10h-1024q-16 0 -27 10q-10 10 -10 27v295q0 29 -28 28h-809q-29 0 -48 -22l-249 -309q-23 -29 -60 -29h-84q-10 0 -15 10t1 19l1249 1540q23 29 60 28h1044q37 0 37 -36v-45zM1356 1825l454 276q23 14 39 -10l31 -55q14 -23 -10 -39l-467 -254
q-23 -14 -39 10l-18 33q-17 25 10 39z" />
    <glyph glyph-name="Oslashacute" unicode="&#x1fe;" 
d="M948 1507q-293 0 -502 -208q-208 -208 -208 -489t176 -480q20 -18 39 0l921 999q18 18 -4 39q-193 139 -422 139zM948 90q293 0 501 208t208 488t-178 480q-16 20 -37 0l-922 -998q-18 -18 4 -39q188 -139 424 -139zM115 810q-1 332 243 574q244 244 590 244
q279 0 504 -172q20 -16 43 2l102 113q23 27 62 26h51q10 0 15 -9t-3 -17l-159 -174q-23 -18 0 -41q217 -238 217 -570t-244 -574q-244 -243 -588 -243q-283 0 -508 170q-20 16 -43 -2l-100 -110q-23 -27 -61 -27h-52q-10 0 -15 9t3 18l158 172q23 18 0 41q-215 238 -215 570
zM690 1825l455 276q23 14 39 -10l30 -55q14 -23 -10 -39l-467 -254q-23 -14 -39 10l-18 33q-17 25 10 39z" />
    <glyph glyph-name="oslashacute" unicode="&#x1ff;" 
d="M948 1507q-293 0 -502 -208q-208 -208 -208 -489t176 -480q20 -18 39 0l921 999q18 18 -4 39q-193 139 -422 139zM948 90q293 0 501 208t208 488t-178 480q-16 20 -37 0l-922 -998q-18 -18 4 -39q188 -139 424 -139zM115 810q-1 332 243 574q244 244 590 244
q279 0 504 -172q20 -16 43 2l102 113q23 27 62 26h51q10 0 15 -9t-3 -17l-159 -174q-23 -18 0 -41q217 -238 217 -570t-244 -574q-244 -243 -588 -243q-283 0 -508 170q-20 16 -43 -2l-100 -110q-23 -27 -61 -27h-52q-10 0 -15 9t3 18l158 172q23 18 0 41q-215 238 -215 570
zM690 1825l455 276q23 14 39 -10l30 -55q14 -23 -10 -39l-467 -254q-23 -14 -39 10l-18 33q-17 25 10 39z" />
    <glyph glyph-name="Scommaaccent" unicode="&#x218;" horiz-adv-x="1441" 
d="M838 -238q0 -160 -201 -340q-25 -20 -43 3l-2 4q-23 23 2 43q104 111 137 188q10 25 -18 35q-25 6 -43 29q-18 22 -18 56t26 60t64 27q38 0 67 -29t29 -76zM744 -31q-263 1 -435 107t-186 278q-2 16 11 32t30 13h35q39 -4 43 -41q18 -124 152 -200t349 -76t335 82
t120 205t-85 195q-85 73 -253 129q-56 19 -158 50q-339 104 -447 202q-48 44 -85 113t-37 152q0 188 155 303q156 115 410 115t420 -108t178 -279q2 -13 -8 -29t-24 -16h-45q-37 0 -41 41q-16 125 -144 202t-336 77q-206 0 -322 -82t-116 -202t68 -180q37 -34 79 -65
t145 -65q208 -71 320 -104q111 -33 179 -70q160 -86 205 -152q73 -101 71 -211q0 -188 -160 -302t-423 -114z" />
    <glyph glyph-name="scommaaccent" unicode="&#x219;" horiz-adv-x="1441" 
d="M838 -238q0 -160 -201 -340q-25 -20 -43 3l-2 4q-23 23 2 43q104 111 137 188q10 25 -18 35q-25 6 -43 29q-18 22 -18 56t26 60t64 27q38 0 67 -29t29 -76zM744 -31q-263 1 -435 107t-186 278q-2 16 11 32t30 13h35q39 -4 43 -41q18 -124 152 -200t349 -76t335 82
t120 205t-85 195q-85 73 -253 129q-56 19 -158 50q-339 104 -447 202q-48 44 -85 113t-37 152q0 188 155 303q156 115 410 115t420 -108t178 -279q2 -13 -8 -29t-24 -16h-45q-37 0 -41 41q-16 125 -144 202t-336 77q-206 0 -322 -82t-116 -202t68 -180q37 -34 79 -65
t145 -65q208 -71 320 -104q111 -33 179 -70q160 -86 205 -152q73 -101 71 -211q0 -188 -160 -302t-423 -114z" />
    <glyph glyph-name="circumflex" unicode="&#x2c6;" horiz-adv-x="727" 
d="M391 2081l301 -219q27 -23 6 -52l-16 -18q-20 -29 -53 -8l-244 176q-23 18 -45 0l-240 -174q-31 -23 -53 6l-16 18q-20 29 6 52l297 219q28 25 57 0z" />
    <glyph glyph-name="caron" unicode="&#x2c7;" horiz-adv-x="727" 
d="M698 2011l-313 -231q-20 -16 -45 0l-309 231q-23 16 -4 39l24 31q18 20 41 6l240 -174q31 -23 61 -2l244 176q23 14 41 -6l24 -31q19 -23 -4 -39z" />
    <glyph glyph-name="breve" unicode="&#x2d8;" horiz-adv-x="722" 
d="M360 1763q-112 -1 -200 57t-144 154q-16 33 15 49l20 13q31 16 51 -15q92 -153 259 -153t260 153q20 31 51 15l20 -13q31 -16 15 -49q-55 -94 -145 -152t-202 -59z" />
    <glyph glyph-name="dotaccent" unicode="&#x2d9;" horiz-adv-x="186" 
d="M94 1778q-38 0 -66 26t-28 66q0 38 28 66t66 28t66 -28q26 -28 26 -66t-26 -66q-27 -26 -66 -26z" />
    <glyph glyph-name="ring" unicode="&#x2da;" horiz-adv-x="468" 
d="M235 2103q-59 0 -103 -43t-44 -103q0 -59 43 -103t103 -44t104 43q43 43 43 103t-43 103q-43 44 -103 44zM469 1958q-1 -98 -69 -167t-166 -69t-166 68t-68 167t68 167t166 68t166 -68t69 -166z" />
    <glyph glyph-name="ogonek" unicode="&#x2db;" horiz-adv-x="327" 
d="M0 -323q0 99 69 183t177 171q25 16 39 -6l4 -2q14 -23 -4 -41q-193 -164 -193 -285q0 -61 49 -89t133 -18q37 4 43 -32l5 -23q2 -15 -8 -27t-23 -14q-127 -16 -209 34t-82 149z" />
    <glyph glyph-name="tilde" unicode="&#x2dc;" horiz-adv-x="808" 
d="M218 1952q-38 0 -70 -41t-39 -107q-4 -37 -41 -37h-19q-14 -1 -24 11t-9 26q8 102 62 177t153 75q51 0 97 -24t124 -100q78 -78 130 -78t82 40q31 41 34 107q4 37 41 37h21q14 0 24 -12t9 -25q-7 -102 -57 -177t-150 -75q-51 0 -90 24t-108 85t-100 78q-32 16 -70 16z
" />
    <glyph glyph-name="hungarumlaut" unicode="&#x2dd;" horiz-adv-x="884" 
d="M858 2101l-307 -295q-27 -25 -53 2l-13 15q-27 27 -2 53l293 307q25 27 51 0l31 -31q27 -26 0 -51zM401 2101l-307 -295q-27 -25 -53 2l-14 15q-27 27 -2 53l294 307q25 27 52 0l30 -31q27 -26 0 -51z" />
    <glyph glyph-name="Wgrave" unicode="&#x1e80;" horiz-adv-x="2320" 
d="M969 2097l442 -268q31 -18 12 -51l-10 -17q-18 -33 -51 -14l-451 246q-33 18 -14 51l23 39q18 32 49 14zM659 0h-59q-35 0 -49 35l-490 1528q-5 12 3 23t22 11h57q37 0 47 -34l433 -1356q2 -6 8 -6t8 6l448 1356q14 35 50 34h45q35 0 49 -34l448 -1356q3 -6 9 -6t8 6
l434 1356q10 35 47 34h57q14 0 22 -11t3 -23l-490 -1528q-14 -35 -49 -35h-59q-35 0 -49 35l-445 1341q-2 6 -8 6t-8 -6l-442 -1341q-14 -35 -50 -35z" />
    <glyph glyph-name="wgrave" unicode="&#x1e81;" horiz-adv-x="2320" 
d="M969 2097l442 -268q31 -18 12 -51l-10 -17q-18 -33 -51 -14l-451 246q-33 18 -14 51l23 39q18 32 49 14zM659 0h-59q-35 0 -49 35l-490 1528q-5 12 3 23t22 11h57q37 0 47 -34l433 -1356q2 -6 8 -6t8 6l448 1356q14 35 50 34h45q35 0 49 -34l448 -1356q3 -6 9 -6t8 6
l434 1356q10 35 47 34h57q14 0 22 -11t3 -23l-490 -1528q-14 -35 -49 -35h-59q-35 0 -49 35l-445 1341q-2 6 -8 6t-8 -6l-442 -1341q-14 -35 -50 -35z" />
    <glyph glyph-name="Wacute" unicode="&#x1e82;" horiz-adv-x="2320" 
d="M659 0h-59q-35 0 -49 35l-490 1528q-5 12 3 23t22 11h57q37 0 47 -34l433 -1356q2 -6 8 -6t8 6l448 1356q14 35 50 34h45q35 0 49 -34l448 -1356q3 -6 9 -6t8 6l434 1356q10 35 47 34h57q14 0 22 -11t3 -23l-490 -1528q-14 -35 -49 -35h-59q-35 0 -49 35l-445 1341
q-2 6 -8 6t-8 -6l-442 -1341q-14 -35 -50 -35zM903 1825l455 276q23 14 39 -10l30 -55q14 -23 -10 -39l-467 -254q-23 -14 -39 10l-18 33q-17 25 10 39z" />
    <glyph glyph-name="wacute" unicode="&#x1e83;" horiz-adv-x="2320" 
d="M659 0h-59q-35 0 -49 35l-490 1528q-5 12 3 23t22 11h57q37 0 47 -34l433 -1356q2 -6 8 -6t8 6l448 1356q14 35 50 34h45q35 0 49 -34l448 -1356q3 -6 9 -6t8 6l434 1356q10 35 47 34h57q14 0 22 -11t3 -23l-490 -1528q-14 -35 -49 -35h-59q-35 0 -49 35l-445 1341
q-2 6 -8 6t-8 -6l-442 -1341q-14 -35 -50 -35zM903 1825l455 276q23 14 39 -10l30 -55q14 -23 -10 -39l-467 -254q-23 -14 -39 10l-18 33q-17 25 10 39z" />
    <glyph glyph-name="Wdieresis" unicode="&#x1e84;" horiz-adv-x="2320" 
d="M659 0h-59q-35 0 -49 35l-490 1528q-5 12 3 23t22 11h57q37 0 47 -34l433 -1356q2 -6 8 -6t8 6l448 1356q14 35 50 34h45q35 0 49 -34l448 -1356q3 -6 9 -6t8 6l434 1356q10 35 47 34h57q14 0 22 -11t3 -23l-490 -1528q-14 -35 -49 -35h-59q-35 0 -49 35l-445 1341
q-2 6 -8 6t-8 -6l-442 -1341q-14 -35 -50 -35zM1384 1798q-38 0 -66 27t-28 65t28 67q28 28 66 28t67 -28q28 -28 28 -67q0 -40 -28 -66t-67 -26zM938 1798q-39 0 -67 27q-27 27 -27 65t27 67q28 28 67 28t66 -28q26 -28 26 -67q0 -40 -26 -66t-66 -26z" />
    <glyph glyph-name="wdieresis" unicode="&#x1e85;" horiz-adv-x="2320" 
d="M659 0h-59q-35 0 -49 35l-490 1528q-5 12 3 23t22 11h57q37 0 47 -34l433 -1356q2 -6 8 -6t8 6l448 1356q14 35 50 34h45q35 0 49 -34l448 -1356q3 -6 9 -6t8 6l434 1356q10 35 47 34h57q14 0 22 -11t3 -23l-490 -1528q-14 -35 -49 -35h-59q-35 0 -49 35l-445 1341
q-2 6 -8 6t-8 -6l-442 -1341q-14 -35 -50 -35zM1384 1798q-38 0 -66 27t-28 65t28 67q28 28 66 28t67 -28q28 -28 28 -67q0 -40 -28 -66t-67 -26zM938 1798q-39 0 -67 27q-27 27 -27 65t27 67q28 28 67 28t66 -28q26 -28 26 -67q0 -40 -26 -66t-66 -26z" />
    <glyph glyph-name="uni1E9E" unicode="&#x1e9e;" horiz-adv-x="1863" 
d="M1223 -33q-311 0 -527 244q-10 9 -8 25t14 24l37 25q29 23 56 -9q178 -197 422 -196q188 0 305 104q116 104 116 272t-158 276t-405 59q-37 -6 -59 22l-17 25q-20 29 7 55l485 446q8 5 6 15t-12 14q-305 125 -592 125t-428 -148t-141 -382v-926q0 -17 -10 -27t-27 -10
h-43q-14 0 -26 10q-11 10 -11 27v932q0 264 160 444q80 90 219 142t323 53q346 0 703 -156q33 -14 33 -51v-27q0 -39 -27 -61l-432 -398q-4 -6 -2 -12t10 -6q242 20 402 -111q160 -130 161 -338q0 -208 -148 -344t-386 -137z" />
    <glyph glyph-name="Ygrave" unicode="&#x1ef2;" horiz-adv-x="1624" 
d="M621 2097l442 -268q31 -18 12 -51l-10 -17q-18 -33 -51 -14l-451 246q-33 18 -14 51l22 39q19 32 50 14zM872 37q0 -37 -36 -37h-48q-14 0 -25 10t-11 27v518q0 29 -17 51l-686 961q-7 10 -1 20t18 10h71q37 0 58 -30l600 -838q16 -20 32 0l603 838q20 31 57 30h72
q12 0 17 -10t-1 -20l-686 -959q-16 -23 -17 -51v-520z" />
    <glyph glyph-name="ygrave" unicode="&#x1ef3;" horiz-adv-x="1624" 
d="M872 37q0 -37 -36 -37h-48q-14 0 -25 10t-11 27v518q0 29 -17 51l-686 961q-7 10 -1 20t18 10h71q37 0 58 -30l600 -838q16 -20 32 0l603 838q20 31 57 30h72q12 0 17 -10t-1 -20l-686 -959q-16 -23 -17 -51v-520zM621 2097l442 -268q31 -18 12 -51l-10 -17
q-18 -33 -51 -14l-451 246q-33 18 -14 51l22 39q19 32 50 14z" />
    <glyph glyph-name="endash" unicode="&#x2013;" horiz-adv-x="1288" 
d="M213 723h862q13 0 25 -11t12 -26v-41q0 -14 -11 -25t-26 -12h-862q-17 0 -27 12t-10 25v41q0 14 10 26q11 11 27 11z" />
    <glyph glyph-name="emdash" unicode="&#x2014;" horiz-adv-x="1617" 
d="M215 723h1188q14 0 25 -11t12 -26v-41q0 -14 -12 -25t-25 -12h-1188q-13 0 -25 12t-12 25v41q0 14 11 26q12 11 26 11z" />
    <glyph glyph-name="quoteleft" unicode="&#x2018;" horiz-adv-x="563" 
d="M143 1253q0 178 224 373q25 25 51 -2l2 -4q25 -25 -2 -51q-113 -113 -146 -203q-10 -25 19 -35q29 -6 49 -33q20 -28 20 -66t-32 -69t-75 -31q-44 0 -77 34q-33 32 -33 87z" />
    <glyph glyph-name="quoteright" unicode="&#x2019;" horiz-adv-x="569" 
d="M446 1507q0 -178 -223 -372q-25 -25 -51 2l-2 4q-25 25 2 51q113 113 145 203q10 25 -18 35q-29 6 -49 32t-20 66t31 70q32 30 76 30q45 0 77 -33t32 -88z" />
    <glyph glyph-name="quotesinglbase" unicode="&#x201a;" horiz-adv-x="499" 
d="M356 63q0 -178 -223 -372q-25 -25 -51 2l-2 4q-25 25 2 51q113 113 145 203q10 25 -18 35q-29 6 -49 32t-20 66q0 39 31 70q32 30 76 30t77 -32q32 -34 32 -89z" />
    <glyph glyph-name="quotedblleft" unicode="&#x201c;" horiz-adv-x="933" 
d="M514 1253q0 178 223 373q28 28 54 -6q25 -25 -3 -51q-113 -113 -145 -203q-10 -25 19 -35q29 -6 49 -33q20 -28 20 -66t-32 -69q-31 -31 -75 -31t-77 34q-33 32 -33 87zM143 1253q0 178 224 373q25 25 51 -2l2 -4q25 -25 -2 -51q-113 -113 -146 -203q-10 -25 19 -35
q29 -6 49 -33q20 -28 20 -66t-32 -69t-75 -31q-44 0 -77 34q-33 32 -33 87z" />
    <glyph glyph-name="quotedblright" unicode="&#x201d;" horiz-adv-x="940" 
d="M817 1507q0 -178 -223 -372q-25 -25 -51 2l-2 4q-25 25 2 51q113 113 145 203q10 25 -18 35q-29 6 -49 32q-21 26 -21 66t32 70t76 30t76 -33t33 -88zM446 1507q0 -178 -223 -372q-25 -25 -51 2l-2 4q-25 25 2 51q113 113 145 203q10 25 -18 35q-29 6 -49 32t-20 66
t31 70q32 30 76 30q45 0 77 -33t32 -88z" />
    <glyph glyph-name="quotedblbase" unicode="&#x201e;" horiz-adv-x="876" 
d="M727 63q0 -178 -223 -372q-25 -25 -51 2l-2 4q-25 25 2 51q113 113 145 203q10 25 -18 35q-29 6 -50 32q-20 27 -20 66t32 70q32 30 76 30t76 -33q33 -33 33 -88zM356 63q0 -178 -223 -372q-25 -25 -51 2l-2 4q-25 25 2 51q113 113 145 203q10 25 -18 35q-29 6 -49 32
t-20 66q0 39 31 70q32 30 76 30t77 -32q32 -34 32 -89z" />
    <glyph glyph-name="dagger" unicode="&#x2020;" horiz-adv-x="942" 
d="M111 1024q0 37 36 37h236q29 0 29 29v305q0 32 -25 60t-25 69q0 40 32 72t75 32t74 -32t31 -72t-24 -69q-24 -28 -24 -60v-305q0 -29 29 -29h240q36 0 36 -37v-33q0 -35 -36 -37h-240q-29 0 -29 -28v-1190q0 -14 -11 -26t-26 -11h-40q-14 0 -26 11q-11 11 -11 26v1190
q0 29 -29 28h-236q-16 0 -26 10t-10 27v33z" />
    <glyph glyph-name="daggerdbl" unicode="&#x2021;" horiz-adv-x="960" 
d="M119 1024q0 37 37 37h237q29 0 29 29v303q0 32 -25 60t-25 70q0 41 32 73q30 32 73 32t75 -32t32 -72t-25 -68q-25 -27 -24 -61v-305q0 -29 28 -29h242q14 0 25 -10t12 -27v-33q0 -16 -12 -26t-25 -11h-242q-29 0 -28 -28v-267q0 -29 28 -28h242q14 0 25 -10t12 -27v-33
q0 -16 -12 -26t-25 -11h-242q-29 0 -28 -28v-760q1 -14 -11 -26t-26 -11h-39q-16 0 -27 11q-10 11 -10 26v760q0 29 -29 28h-237q-16 0 -26 10t-11 27v33q0 37 37 37h237q29 0 29 28v267q0 29 -29 28h-237q-16 0 -26 10t-11 27v33z" />
    <glyph glyph-name="bullet" unicode="&#x2022;" horiz-adv-x="927" 
d="M465 403q-111 0 -187 76t-77 187q0 110 77 186q78 76 188 76t186 -76t75 -186q1 -110 -75 -187q-76 -76 -187 -76z" />
    <glyph glyph-name="ellipsis" unicode="&#x2026;" horiz-adv-x="1208" 
d="M963 -25q-43 0 -75 31t-32 74t32 74q32 30 75 30t73 -30t31 -75q-1 -44 -31 -74t-73 -30zM606 -25q-43 0 -75 31t-31 74q0 43 31 74q32 30 75 30t74 -30t31 -75q0 -44 -31 -74t-74 -30zM248 -25q-43 0 -75 31t-32 74t32 74q32 30 75 30t74 -30q30 -30 30 -75
q0 -44 -30 -74t-74 -30z" />
    <glyph glyph-name="perthousand" unicode="&#x2030;" horiz-adv-x="2981" 
d="M2257 354q0 -108 78 -186q79 -78 187 -78t186 78t79 186q-1 108 -79 188q-78 79 -186 79t-186 -79q-79 -79 -79 -188zM2521 -23q-159 0 -267 110q-108 109 -108 267t109 267t267 109t266 -110q110 -108 110 -266t-110 -268t-267 -109zM475 0h-65q-12 0 -18 10q-5 10 3 21
l1106 1536q25 31 60 30h65q12 0 17 -10t-3 -20l-1105 -1536q-25 -31 -60 -31zM1311 354q0 -108 78 -186q79 -78 187 -78t186 78t79 186q-1 108 -79 188q-78 79 -186 79t-186 -79q-79 -79 -79 -188zM1575 -23q-159 0 -267 110q-108 109 -108 267t109 267t267 109t266 -110
q110 -108 110 -266t-110 -268t-267 -109zM201 1251q0 -109 78 -187q79 -78 187 -79q108 0 186 79q78 80 79 188q-1 108 -79 187t-186 79t-186 -79q-79 -79 -79 -188zM840 1252q0 -158 -108 -268t-266 -110q-156 0 -266 111t-110 267t109 266q109 108 267 108t266 -108
t108 -266z" />
    <glyph glyph-name="guilsinglleft" unicode="&#x2039;" horiz-adv-x="837" 
d="M123 737v23q0 39 27 61l462 414q8 8 18 3t9 -15v-78q0 -39 -27 -62l-352 -315q-18 -18 0 -37l352 -315q27 -23 27 -62v-78q1 -10 -9 -15t-18 3l-462 412q-27 23 -27 61z" />
    <glyph glyph-name="guilsinglright" unicode="&#x203a;" horiz-adv-x="837" 
d="M715 762v-23q0 -39 -27 -61l-463 -414q-8 -8 -17 -3t-9 15v78q0 39 26 62l353 315q18 18 0 37l-353 315q-27 23 -26 62v78q0 10 9 15t17 -3l463 -412q27 -23 27 -61z" />
    <glyph glyph-name="fraction" unicode="&#x2044;" horiz-adv-x="1116" 
d="M115 0h-60q-12 0 -18 10t0 21l909 1536q16 31 55 30h60q12 0 18 -10t0 -20l-909 -1536q-16 -31 -55 -31z" />
    <glyph glyph-name="zerosuperior" unicode="&#x2070;" horiz-adv-x="1064" 
d="M531 1524q-146 0 -233 -126t-87 -320t87 -320t233 -125q146 0 235 127q88 128 88 320t-88 318q-89 126 -235 126zM530 539q-196 -1 -306 155t-110 384t111 384t305 156t308 -156q112 -156 112 -384t-112 -384q-113 -155 -308 -155z" />
    <glyph glyph-name="foursuperior" unicode="&#x2074;" horiz-adv-x="976" 
d="M752 748v-152q0 -14 -12 -26t-25 -11h-21q-14 0 -25 11t-12 26v152q0 29 -28 28h-527q-14 0 -24 10t-10 25v4q0 35 16 62l408 688q16 33 55 32h33q12 0 18 -11t0 -21l-397 -674q-4 -9 1 -17t13 -8h414q29 0 28 29v213q-1 14 11 26t26 11h21q14 0 25 -11t12 -26v-213
q0 -29 28 -29h88q16 0 26 -11t11 -26v-16q0 -13 -10 -25t-27 -12h-88q-28 1 -28 -28z" />
    <glyph glyph-name="fivesuperior" unicode="&#x2075;" horiz-adv-x="962" 
d="M283 1597h473q14 0 25 -10t12 -26v-23q1 -14 -11 -26t-26 -11h-410q-29 0 -33 -28l-55 -324q-2 -8 5 -12t13 0q106 69 249 69t243 -94t100 -234t-112 -240q-113 -99 -279 -99q-236 0 -375 188q-20 29 11 49l20 10q33 20 53 -10q106 -143 291 -143q125 0 209 72t84 174
t-73 171q-73 68 -203 68t-240 -92q-31 -25 -64 -8l-12 6q-33 18 -26 53l88 484q8 36 43 36z" />
    <glyph glyph-name="sixsuperior" unicode="&#x2076;" horiz-adv-x="940" 
d="M460 1174q-134 0 -216 -109q-56 -73 -56 -175t83 -180t203 -77q120 0 203 78q83 79 83 193t-83 192t-217 78zM571 1597h43q12 0 18 -10t-3 -18l-236 -309q-4 -6 -1 -12q4 -6 28 -1q24 6 65 6q156 0 264 -100q107 -100 107 -251t-112 -257t-270 -106t-268 106
q-112 105 -112 243t78 240l340 441q24 28 59 28z" />
    <glyph glyph-name="sevensuperior" unicode="&#x2077;" horiz-adv-x="862" 
d="M74 1561q0 36 37 36h661q14 0 24 -10t11 -24v-4q0 -37 -16 -70l-467 -897q-16 -33 -54 -33h-34q-12 0 -18 11t-3 22l465 885q6 8 1 16t-15 8h-555q-16 0 -27 11q-10 11 -10 26v23z" />
    <glyph glyph-name="eightsuperior" unicode="&#x2078;" horiz-adv-x="993" 
d="M496 1532q-104 0 -176 -55t-72 -137t70 -136q70 -55 178 -55q106 0 178 55t72 136t-73 137q-73 55 -177 55zM496 1071q-123 -1 -206 -65t-83 -158t83 -158t206 -63q122 0 206 63q84 64 84 158t-84 158t-206 65zM496 539q-160 0 -273 87t-112 216q0 178 186 260q8 4 8 11
t-8 11q-143 72 -143 219q0 117 100 196t242 79t243 -79q102 -79 103 -196q0 -147 -148 -219q-8 -4 -8 -11t8 -11q86 -39 137 -107t52 -153q1 -129 -113 -216t-274 -87z" />
    <glyph glyph-name="ninesuperior" unicode="&#x2079;" horiz-adv-x="940" 
d="M180 1253q0 -115 83 -193t217 -77q134 0 216 109q56 74 56 175t-83 179t-203 78t-203 -78t-83 -193zM369 559h-43q-12 0 -18 9q-5 9 3 20l236 309q4 6 1 12q-4 6 -28 0t-65 -6q-156 1 -264 101q-107 100 -107 250t112 257t270 107t268 -106q112 -106 112 -244t-78 -240
l-340 -440q-24 -29 -59 -29z" />
    <glyph glyph-name="Euro" unicode="&#x20ac;" horiz-adv-x="1964" 
d="M115 614q0 37 37 37h110q30 0 23 40q-6 41 -6 105t6 103t-23 39h-110q-16 0 -27 10q-10 10 -10 27v18q0 13 10 25t27 12h131q31 0 36 27q83 251 301 411t492 160q213 0 396 -101t296 -274q8 -10 5 -25t-17 -22l-41 -22q-33 -18 -53 12q-98 143 -252 227t-354 84
t-381 -125q-180 -125 -260 -325q-4 -7 2 -17t16 -10h602q13 0 25 -11t12 -26v-18q0 -17 -11 -27t-26 -10h-629q-28 0 -34 -39q-16 -114 2 -219q8 -29 34 -29h541q13 0 25 -10t12 -27v-18q0 -14 -11 -26t-26 -11h-514q-10 0 -16 -9t-2 -18q82 -198 261 -320
q180 -122 380 -122t354 84t250 229q23 29 53 13l43 -25q14 -6 17 -21t-5 -26q-113 -172 -296 -273t-398 -102q-272 0 -488 157t-302 406q-6 27 -37 27h-133q-16 0 -27 11q-10 11 -10 26v18z" />
    <glyph glyph-name="trademark" unicode="&#x2122;" horiz-adv-x="1691" 
d="M627 1597q35 0 37 -36v-23q0 -14 -10 -26t-27 -11h-162q-29 0 -29 -28v-455q0 -14 -11 -26t-26 -11h-22q-16 0 -27 11q-10 11 -10 26v455q0 28 -29 28h-161q-14 0 -26 11q-11 11 -11 26v23q0 16 11 26t26 10h477zM1462 1597q37 0 37 -36v-543q0 -14 -10 -26t-27 -11h-22
q-14 0 -26 11q-11 11 -11 26v397q0 6 -5 8t-9 -4l-203 -336q-18 -25 -45 -24h-4q-29 0 -47 24l-203 336q-2 6 -8 4t-7 -8v-397q0 -14 -10 -26t-26 -11h-23q-14 0 -26 11q-11 11 -11 26v543q0 16 11 26t26 10h29q39 0 55 -30l225 -373q4 -10 14 -10t15 10l227 373
q16 31 56 30h28z" />
    <glyph glyph-name="minus" unicode="&#x2212;" horiz-adv-x="1265" 
d="M223 805h819q14 0 26 -11t11 -26v-41q0 -13 -11 -25t-26 -12h-819q-14 0 -25 11t-12 26v41q0 14 12 26t25 11z" />
    <glyph glyph-name="leftspur" unicode="&#xe001;" horiz-adv-x="133" 
d="M17 798q0 16 10 25l106 95v-236l-104 92q-12 8 -12 24z" />
    <glyph glyph-name="rightspur" unicode="&#xe002;" horiz-adv-x="133" 
d="M0 918l106 -95q10 -8 10 -24t-12 -25l-104 -92v236z" />
    <glyph glyph-name="leftspurA" unicode="&#xe003;" horiz-adv-x="167" 
d="M35 864l133 43l-96 -215l-58 127q-6 12 0 27q7 14 21 18z" />
    <glyph glyph-name="rightspurA" unicode="&#xe004;" horiz-adv-x="167" 
d="M0 907l133 -43q15 -4 21 -18t0 -27l-58 -127z" />
    <glyph glyph-name="leftspurS" unicode="&#xe005;" horiz-adv-x="225" 
d="M59 676l-59 129l225 -74l-119 -69q-31 -17 -47 14z" />
    <glyph glyph-name="rightspurS" unicode="&#xe006;" horiz-adv-x="225" 
d="M166 918l59 -130l-225 74l119 70q31 17 47 -14z" />
    <glyph glyph-name="leftspurV" unicode="&#xe007;" horiz-adv-x="167" 
d="M14 774l58 131l96 -213l-133 39q-15 3 -21 17t0 26z" />
    <glyph glyph-name="rightspurV" unicode="&#xe008;" horiz-adv-x="167" 
d="M96 905l58 -131q6 -12 0 -25t-21 -18l-133 -39z" />
    <glyph glyph-name="leftspurW" unicode="&#xe009;" horiz-adv-x="159" 
d="M18 791l74 120l68 -225l-127 57q-33 17 -15 48z" />
    <glyph glyph-name="rightspurW" unicode="&#xe010;" horiz-adv-x="159" 
d="M70 911l71 -120q18 -31 -14 -48l-127 -57z" />
    <glyph glyph-name="leftspurZ" unicode="&#xe012;" horiz-adv-x="176" 
d="M35 911l141 11l-145 -185l-25 137q-5 32 29 37z" />
    <glyph glyph-name="rightspurZ" unicode="&#xe013;" horiz-adv-x="176" 
d="M141 686l-141 -10l145 186l25 -137q2 -14 -6 -26q-9 -11 -23 -13z" />
    <glyph glyph-name="numbersignsuperior" unicode="&#xe909;" horiz-adv-x="1079" 
d="M672 1219h-213q-29 0 -33 -29l-43 -225q-2 -9 6 -19t19 -10h213q29 0 32 29l43 225q2 10 -6 20t-18 9zM156 1274q0 35 37 37h126q29 0 35 28l41 222q8 37 43 36h25q14 0 23 -11t8 -25l-41 -222q-2 -10 5 -19t17 -9h213q29 0 35 28l41 222q8 37 43 36h27q14 0 23 -11
t7 -25l-41 -222q-2 -10 5 -19t18 -9h108q16 -1 26 -11t11 -26v-19q0 -14 -10 -25t-27 -11h-125q-29 0 -32 -29l-43 -225q-2 -9 6 -19t18 -10h109q14 0 25 -11t12 -26v-18q0 -17 -12 -27t-25 -10h-127q-29 0 -33 -29l-41 -219q-8 -37 -43 -37h-25q-14 0 -23 11t-7 26l41 219
q2 9 -6 19t-19 10h-215q-29 0 -33 -29l-41 -219q-8 -37 -43 -37h-24q-14 0 -24 11q-9 11 -7 26l41 219q2 9 -6 19t-19 10h-108q-14 0 -26 10q-11 10 -11 27v18q0 13 11 25t26 12h127q29 0 33 29l43 225q2 10 -6 20t-19 9h-110q-16 0 -27 11q-10 11 -10 25v19z" />
    <glyph glyph-name="percentsuperior" unicode="&#xe910;" horiz-adv-x="1398" 
d="M324 559h-35q-12 0 -18 9q-5 9 3 20l738 981q25 29 59 28h37q12 0 17 -10t-3 -18l-739 -981q-25 -29 -59 -29zM1233 793q0 67 -48 115t-117 48t-116 -48t-47 -116t47 -115q47 -48 116 -48t117 48t48 116zM1319 792q0 -103 -74 -176t-177 -73q-103 1 -176 73t-73 176
t73 177t176 73t177 -74t74 -176zM328 1530q-68 0 -115 -48t-47 -116t47 -115t115 -47t116 47t48 115t-48 116t-116 48zM329 1118q-103 0 -176 72t-73 176t73 177t176 73t176 -73t73 -177t-73 -176t-176 -72z" />
    <glyph glyph-name="sterlingsuperior" unicode="&#xe911;" horiz-adv-x="876" 
d="M721 559h-571q-14 0 -25 10q-10 10 -10 25v2q0 31 28 53q109 74 109 219q0 39 -5 72t-34 33h-57q-16 0 -27 11q-10 11 -10 26v12q0 14 10 26t27 11h34q10 0 18 8q7 8 3 18q-51 162 -51 236q0 137 89 217t214 80t208 -68t97 -180q2 -14 -9 -25t-26 -14h-16q-37 -2 -43 35
q-12 76 -68 118t-143 42q-85 0 -147 -54t-62 -153q0 -55 26 -135t31 -99q6 -27 37 -26h236q14 0 25 -11t12 -26v-12q1 -14 -11 -26t-26 -11h-217q-29 0 -25 -37t4 -64q0 -119 -51 -194q-4 -8 0 -15t12 -8h414q17 0 27 -10t10 -27v-22q0 -14 -10 -26q-11 -11 -27 -11z" />
    <glyph glyph-name="Eurosuperior" unicode="&#xe912;" horiz-adv-x="1304" 
d="M728 635q233 0 372 182q20 31 53 12l18 -10q31 -20 11 -49q-74 -106 -191 -168t-271 -63q-154 0 -293 97q-138 97 -196 255q-10 27 -41 27h-63q-33 0 -33 32v4q0 33 33 33h49q10 0 19 8q8 9 5 25t-3 55t2 55t-6 23q-8 8 -19 8h-45q-14 0 -25 10q-10 10 -10 25v4
q0 12 10 22t25 11h59q29 0 39 27q55 158 197 258t296 100t271 -62t191 -172q20 -29 -11 -49l-20 -10q-33 -18 -53 12q-131 185 -371 185q-121 0 -231 -73t-164 -189q-8 -27 16 -27h363q12 0 22 -10t10 -23v-4q0 -14 -10 -24t-22 -11h-383q-10 0 -20 -9t-13 -23
q-2 -13 -2 -53t4 -60q4 -29 31 -29h327q33 0 33 -33v-4q0 -33 -33 -32h-303q-10 0 -15 -8t-1 -19q56 -115 164 -185t228 -71z" />
    <glyph glyph-name="fraction.alt" unicode="&#xe999;" horiz-adv-x="1091" 
d="M90 0h-35q-12 0 -18 10t0 21l909 1536q16 31 55 30h35q12 0 18 -10t1 -20l-910 -1536q-16 -31 -55 -31z" />
    <glyph glyph-name="commaaccent" unicode="&#xf6c3;" horiz-adv-x="346" 
d="M336 -238q0 -160 -201 -340q-25 -20 -43 3l-2 4q-23 23 2 43q104 111 137 188q10 25 -18 35q-25 6 -43 29q-18 22 -18 56t26 60t65 27q39 0 67 -29t28 -76z" />
    <glyph glyph-name="centsuperior" unicode="&#xf6e0;" horiz-adv-x="894" 
d="M483 1274q-119 0 -199 -79t-79 -191q-1 -112 79 -192q80 -79 201 -79t201 94q27 27 57 11l19 -13q12 -6 14 -20t-6 -25q-88 -113 -229 -137q-29 -8 -29 -35v-45q0 -14 -10 -25t-27 -12h-18q-13 0 -25 12t-12 25v49q0 31 -29 37q-123 29 -203 128t-80 227t80 225
q80 98 203 127q29 6 29 37v51q0 14 11 25t26 12h18q17 1 27 -11t10 -26v-47q0 -29 29 -35q137 -23 227 -135q23 -27 -8 -47l-17 -9q-31 -18 -57 9q-84 94 -203 94z" />
    <glyph glyph-name="dollarsuperior" unicode="&#xf6e4;" horiz-adv-x="882" 
d="M451 1630q36 0 36 -37v-51q0 -27 29 -33q100 -16 167 -66t81 -126q2 -11 -8 -25t-23 -14h-16q-37 0 -51 46t-78 79t-160 33q-98 0 -156 -39t-57 -104q0 -65 58 -99t208 -79q150 -44 209 -87q88 -60 88 -156t-70 -156t-192 -75q-29 -4 -29 -31v-47q0 -14 -10 -25t-26 -12
h-19q-14 0 -25 12t-12 25v49q1 27 -28 33q-104 15 -174 67t-84 128q-2 14 9 28t27 13h11q39 -2 49 -39q16 -55 82 -88t169 -33t162 39q60 39 60 92t-38 88t-73 48q-35 12 -84 28t-79 25q-157 46 -224 107t-67 146q0 86 68 145q69 58 186 74q29 4 28 31v49q-1 17 11 27t26 10
h19z" />
    <glyph glyph-name="apple" unicode="&#xf8ff;" horiz-adv-x="1523" 
d="M614 336q141 0 277 107q135 109 214 261t79 285q0 63 -41 101q25 -37 24 -84q0 -211 -174 -431q-188 -231 -401 -231q-59 0 -100 18q40 -26 122 -26zM635 479h-8q0 45 -33 72q18 -20 18 -55v-15q-32 2 -32 42t-28 69t-73 29t-73 -32t-27 -85q0 -53 50 -90t138 -37
q139 0 276 108q136 109 215 261t79 284q0 59 -37 98t-89 39q-52 1 -90 -33t-38 -85q0 -106 118 -119q-31 -123 -59 -174q-27 209 -119 307q90 -119 107 -330l-29 -41q0 156 -51 287t-131 172q-12 23 24 31l70 12q18 4 21 14q2 10 -15 21l-59 39q-35 31 6 47l63 28
q32 9 20 26q-5 7 -20 11l-63 27q-23 10 -21 29q12 6 15 16l35 61q10 18 21 18q11 -1 15 -20l21 -67q14 -47 45 -10l47 53q12 16 22 13t13 -23l4 -72q2 -19 15 -25t28 6l57 44q13 12 23 6t8 -27l-10 -70q-2 -20 10 -28t29 2l63 33q18 8 26 0t1 -29l-23 -64q-6 -20 3 -30
t28 -4l70 14q20 6 26 -2t-4 -27l-37 -59q-12 -15 -6 -29t27 -12l72 4q20 0 24 -10t-8 -25l-49 -53q-14 -14 -10 -28t24 -15l70 -12q41 -10 6 -39l-57 -39q-15 -9 -15 -23t21 -22l63 -27q18 -8 19 -18q0 -10 -19 -19l-63 -26q-19 -8 -21 -22t15 -25l57 -41q16 -10 15 -22
t-21 -15l-70 -13q-20 -2 -24 -16t10 -29l49 -49q12 -14 8 -24t-24 -11l-72 4q-21 0 -27 -12t6 -28l37 -62q10 -15 4 -25t-26 -6l-70 19q-17 6 -27 -5t-4 -30l23 -68q8 -18 0 -25t-27 1l-63 31q-17 10 -29 1t-10 -30l10 -68q2 -20 -6 -25t-25 7l-57 43q-16 12 -28 6t-15 -27
l-4 -69q-2 -19 -12 -23t-23 10l-47 56q-33 33 -45 -10l-21 -68q-4 -20 -16 -21q-12 0 -20 17l-35 61q-20 41 -47 0l-31 -61q-8 -16 -20 -17q-12 0 -17 21l-20 68q-12 43 -45 10l-48 -56q-29 -31 -34 13l-4 69q-2 20 -16 26t-29 -5l-54 -43q-16 -12 -26 -7t-7 25l11 68
q1 20 -11 30t-30 -1l-62 -31q-18 -8 -26 -1t0 25l22 68q8 18 -2 30t-28 5l-70 -19q-20 -4 -27 5q-6 9 4 26l39 62q10 16 4 28t-26 12l-72 -4q-20 1 -24 11t8 24l51 49q12 15 8 29t-25 16l-67 13q-14 2 -24 11t16 26l57 41q2 2 5 4t5 4l2 4q18 16 37 -12l33 -64q21 -38 37 4
l18 70q8 24 23 21q14 -3 22 -13l47 -53q31 -31 35 12l4 70q9 44 43 18l58 -43q16 -12 25 -7t5 25l-8 70q-2 21 9 29t28 -2l64 -29q18 -8 26 -1t2 26l-22 67q-8 19 1 29t27 4l15 -2q41 -78 71 -203t29 -217q-29 -37 -94 -37z" />
    <glyph glyph-name="yensuperior" horiz-adv-x="1157" 
d="M664 877h239q13 -1 25 -11t12 -26v-15q0 -14 -11 -25t-26 -12h-239q-29 0 -29 -28v-164q0 -14 -10 -26t-27 -11h-31q-14 0 -25 11t-12 26v164q0 29 -28 28h-238q-14 0 -25 12t-12 25v15q-1 16 11 26t26 11h238q29 0 28 28v8q0 29 -16 52l-35 45q-16 23 -45 22h-170
q-14 0 -25 10t-12 27v14q-1 13 11 25t26 12h107q8 0 12 8t0 15l-313 426q-8 8 -3 18t17 10h51q35 0 60 -28l372 -504q16 -20 33 0l373 504q25 29 59 28h51q11 0 17 -10t-2 -18l-314 -426q-4 -7 0 -15t13 -8h106q13 0 25 -11t12 -26v-14q0 -17 -11 -27t-26 -10h-172
q-29 0 -45 -22l-35 -49q-16 -23 -16 -52v-4q0 -28 29 -28z" />
    </font>
</defs>
</svg>
