<?xml version="1.0" encoding="UTF-8" standalone="no"?>
<svg width="87px" height="79px" viewBox="0 0 87 79" version="1.1" xmlns="http://www.w3.org/2000/svg" xmlns:xlink="http://www.w3.org/1999/xlink">
    <!-- Generator: Sketch 3.6.1 (26313) - http://www.bohemiancoding.com/sketch -->
    <title>poli-groups-photo</title>
    <desc>Created with Sketch.</desc>
    <defs>
        <path id="path-1" d="M87,0 L0,0 L0,30.4999576 L0,60.9999153 L87,60.9999153 L87,30.4999576 L87,0 Z"></path>
    </defs>
    <g id="kit" stroke="none" stroke-width="1" fill="none" fill-rule="evenodd">
        <g id="poli-groups-photo">
            <g id="Page-1" transform="translate(0.000000, 9.000000)">
                <path d="M3.41176471,21.1804708 L3.41176471,44.9026931 L29.0247353,44.9026931 C26.3456471,41.6798597 24.7352941,37.5479569 24.7352941,33.0415819 C24.7352941,28.5352069 26.3456471,24.4033042 29.0247353,21.1804708 L3.41176471,21.1804708 Z M57.9752647,21.1804708 C60.6543529,24.4033042 62.2647059,28.5352069 62.2647059,33.0415819 C62.2647059,37.5479569 60.6543529,41.6798597 57.9752647,44.9026931 L83.5882353,44.9026931 L83.5882353,21.1804708 L57.9752647,21.1804708 Z" id="Fill-1" fill="#FFD852"></path>
                <path d="M43.5,27.9583333 C40.6733529,27.9583333 38.3823529,30.2339722 38.3823529,33.0416667 C38.3823529,35.8493611 40.6733529,38.125 43.5,38.125 C46.3266471,38.125 48.6176471,35.8493611 48.6176471,33.0416667 C48.6176471,30.2339722 46.3266471,27.9583333 43.5,27.9583333" id="Fill-3" fill="#FF5534"></path>
                <path d="M50.3235294,38.1249153 L50.3115882,38.1249153 C49.8288235,38.7620264 49.2590588,39.3279708 48.6176471,39.8074986 L48.6176471,39.8193597 L50.3235294,39.8193597 L50.3235294,38.1249153 Z M41.7941176,43.2082486 L43.5,43.2082486 L43.5,41.5138042 L41.7941176,41.5138042 L41.7941176,43.2082486 Z M34.9705882,44.9026931 L34.9705882,45.7202625 C35.4559118,46.0430542 35.9651176,46.3302625 36.4871176,46.5971375 L36.6764706,46.5971375 L36.6764706,44.9026931 L34.9705882,44.9026931 Z M52.0294118,36.4304708 L51.3146471,36.4304708 C51.1858529,36.7244569 51.0365882,37.0074292 50.8762353,37.2827764 C50.8668529,37.2988736 50.8566176,37.3141236 50.8463824,37.3302208 C50.6868824,37.6004847 50.5120294,37.8597347 50.3235294,38.1096653 L50.3235294,38.1249153 L52.0294118,38.1249153 L52.0294118,36.4304708 Z M52.0294118,43.2082486 L53.7352941,43.2082486 L53.7352941,41.5138042 L52.0294118,41.5138042 L52.0294118,43.2082486 Z M48.6176471,39.8193597 L48.6022941,39.8193597 C48.3506765,40.0065958 48.0896765,40.1802764 47.8175882,40.3387069 C47.8013824,40.3488736 47.7860294,40.3590403 47.7689706,40.3683597 C47.4926176,40.5276375 47.2077353,40.6759014 46.9117647,40.8038319 L46.9117647,41.5138042 L48.6176471,41.5138042 L48.6176471,39.8193597 Z M53.7352941,41.5138042 L55.4411765,41.5138042 L55.4411765,39.8193597 L53.7352941,39.8193597 L53.7352941,41.5138042 Z M48.6176471,43.2082486 L50.3235294,43.2082486 L50.3235294,41.5138042 L48.6176471,41.5138042 L48.6176471,43.2082486 Z M50.3235294,41.5138042 L52.0294118,41.5138042 L52.0294118,39.8193597 L50.3235294,39.8193597 L50.3235294,41.5138042 Z M52.0294118,36.4304708 L53.7352941,36.4304708 L53.7352941,34.7360264 L52.0294118,34.7360264 L52.0294118,36.4304708 Z M52.0294118,39.8193597 L53.7352941,39.8193597 L53.7352941,38.1249153 L52.0294118,38.1249153 L52.0294118,39.8193597 Z M55.4411765,39.8193597 L57.1470588,39.8193597 L57.1470588,38.1249153 L55.4411765,38.1249153 L55.4411765,39.8193597 Z M53.7352941,38.1249153 L55.4411765,38.1249153 L55.4411765,36.4304708 L53.7352941,36.4304708 L53.7352941,38.1249153 Z M33.2647059,38.1249153 L34.9705882,38.1249153 L34.9705882,36.4304708 L33.2647059,36.4304708 L33.2647059,38.1249153 Z M50.3235294,44.9026931 L52.0294118,44.9026931 L52.0294118,43.2082486 L50.3235294,43.2082486 L50.3235294,44.9026931 Z M29.8529412,39.8193597 L29.8529412,40.0074431 C30.1216176,40.5259431 30.4107647,41.0317347 30.7357353,41.5138042 L31.5588235,41.5138042 L31.5588235,39.8193597 L29.8529412,39.8193597 Z M33.2647059,43.2082486 L33.2647059,44.3858875 C33.4608824,44.5604153 33.6545,44.7374847 33.8600588,44.9026931 L34.9705882,44.9026931 L34.9705882,43.2082486 L33.2647059,43.2082486 Z M29.8529412,38.1249153 L31.5588235,38.1249153 L31.5588235,36.4304708 L29.8529412,36.4304708 L29.8529412,38.1249153 Z M38.3823529,46.5971375 L40.0882353,46.5971375 L40.0882353,44.9026931 L38.3823529,44.9026931 L38.3823529,46.5971375 Z M31.5588235,41.5138042 L31.5588235,42.6168875 C31.7251471,42.8210681 31.9034118,43.0133875 32.0791176,43.2082486 L33.2647059,43.2082486 L33.2647059,41.5138042 L31.5588235,41.5138042 Z M41.7941176,46.5971375 L43.5,46.5971375 L43.5,44.9026931 L41.7941176,44.9026931 L41.7941176,46.5971375 Z M36.6764706,41.5138042 L38.3823529,41.5138042 L38.3823529,39.8193597 L36.6764706,39.8193597 L36.6764706,41.5138042 Z M48.6176471,46.5971375 L50.3235294,46.5971375 L50.3235294,44.9026931 L48.6176471,44.9026931 L48.6176471,46.5971375 Z M38.3823529,43.2082486 L40.0882353,43.2082486 L40.0882353,41.5138042 L38.3823529,41.5138042 L38.3823529,43.2082486 Z M46.9117647,44.9026931 L48.6176471,44.9026931 L48.6176471,43.2082486 L46.9117647,43.2082486 L46.9117647,44.9026931 Z M45.2058824,46.5971375 L46.9117647,46.5971375 L46.9117647,44.9026931 L45.2058824,44.9026931 L45.2058824,46.5971375 Z M34.9705882,39.8193597 L36.6764706,39.8193597 L36.6764706,38.1249153 L34.9705882,38.1249153 L34.9705882,39.8193597 Z M31.5588235,36.4304708 L33.2647059,36.4304708 L33.2647059,34.7360264 L31.5588235,34.7360264 L31.5588235,36.4304708 Z M45.2058824,43.2082486 L46.9117647,43.2082486 L46.9117647,41.5138042 L45.2058824,41.5138042 L45.2058824,43.2082486 Z M36.6764706,46.6877903 C37.2274706,46.9597486 37.7963824,47.1995125 38.3823529,47.4053875 L38.3823529,46.5971375 L36.6764706,46.5971375 L36.6764706,46.6877903 Z M29.0392353,38.1249153 C29.2465,38.7069569 29.4878824,39.2720542 29.7616765,39.8193597 L29.8529412,39.8193597 L29.8529412,38.1249153 L29.0392353,38.1249153 Z M40.0882353,47.9010125 C40.3125588,47.9509986 40.5394412,47.9942069 40.7663235,48.0365681 C41.1057941,48.0975681 41.4469706,48.1543319 41.7941176,48.1924569 L41.7941176,46.5971375 L40.0882353,46.5971375 L40.0882353,47.9010125 Z M28.2468529,34.7360264 C28.3116765,35.3121375 28.4140294,35.8755403 28.5402647,36.4304708 L29.8529412,36.4304708 L29.8529412,34.7360264 L28.2468529,34.7360264 Z M43.5,44.9026931 L45.2058824,44.9026931 L45.2058824,43.2082486 L43.5,43.2082486 L43.5,44.9026931 Z M43.5,48.2915819 C43.9460882,48.2915819 44.3845,48.2627764 44.8203529,48.2254986 C44.9491471,48.2136375 45.0779412,48.2060125 45.2058824,48.1924569 L45.2058824,46.5971375 L43.5,46.5971375 L43.5,48.2915819 Z M29.8529412,34.7360264 L31.5588235,34.7360264 L31.5588235,33.0415819 L29.8529412,33.0415819 L29.8529412,34.7360264 Z M57.9607647,38.1249153 C58.1569412,37.5733736 58.3266765,37.0091236 58.4597353,36.4304708 L57.1470588,36.4304708 L57.1470588,38.1249153 L57.9607647,38.1249153 Z M57.1504706,40.0006653 C57.1811765,39.9413597 57.2084706,39.8795125 57.2383235,39.8193597 L57.1470588,39.8193597 L57.1470588,40.0074431 C57.1479118,40.0049014 57.1487647,40.0032069 57.1504706,40.0006653 L57.1504706,40.0006653 Z M46.9117647,47.9010125 C47.4943235,47.7688458 48.0623824,47.6010958 48.6176471,47.4053875 L48.6176471,46.5971375 L46.9117647,46.5971375 L46.9117647,47.9010125 Z M56.2642647,41.5138042 L55.4411765,41.5138042 L55.4411765,42.6168875 C55.7303235,42.2610542 56.0075294,41.8950542 56.2642647,41.5138042 L56.2642647,41.5138042 Z M35.6853529,36.4304708 C35.4482353,35.8916375 35.2622941,35.3265403 35.1420294,34.7360264 L34.9705882,34.7360264 L34.9705882,36.4304708 L35.6853529,36.4304708 Z M50.5128824,46.5971375 L50.3235294,46.5971375 L50.3235294,46.6877903 C50.3857941,46.6564431 50.4506176,46.6293319 50.5128824,46.5971375 L50.5128824,46.5971375 Z M54.9200294,43.2082486 L53.7352941,43.2082486 L53.7352941,44.3858875 C54.1515294,44.0148042 54.5472941,43.6216931 54.9200294,43.2082486 L54.9200294,43.2082486 Z M53.1399412,44.9026931 L52.0294118,44.9026931 L52.0294118,45.7202625 C52.4132353,45.4652486 52.7817059,45.1899014 53.1399412,44.9026931 L53.1399412,44.9026931 Z M33.2647059,34.7360264 L34.9705882,34.7360264 L34.9705882,33.0415819 L33.2647059,33.0415819 L33.2647059,34.7360264 Z M36.6764706,44.9026931 L38.3823529,44.9026931 L38.3823529,43.2082486 L36.6764706,43.2082486 L36.6764706,44.9026931 Z M34.9705882,43.2082486 L36.6764706,43.2082486 L36.6764706,41.5138042 L34.9705882,41.5138042 L34.9705882,43.2082486 Z M33.2647059,41.5138042 L34.9705882,41.5138042 L34.9705882,39.8193597 L33.2647059,39.8193597 L33.2647059,41.5138042 Z M55.4411765,36.4304708 L57.1470588,36.4304708 L57.1470588,34.7360264 L55.4411765,34.7360264 L55.4411765,36.4304708 Z M31.5588235,39.8193597 L33.2647059,39.8193597 L33.2647059,38.1249153 L31.5588235,38.1249153 L31.5588235,39.8193597 Z M40.0882353,44.9026931 L41.7941176,44.9026931 L41.7941176,43.2082486 L40.0882353,43.2082486 L40.0882353,44.9026931 Z M58.8529412,33.0415819 L57.1470588,33.0415819 L57.1470588,34.7360264 L58.7531471,34.7360264 C58.8145588,34.1794014 58.8529412,33.6151514 58.8529412,33.0415819 L58.8529412,33.0415819 Z M45.2058824,41.3435125 C44.9303824,41.3994292 44.6497647,41.4417903 44.3657353,41.4705958 C44.0808529,41.4994014 43.7925588,41.5138042 43.5,41.5138042 L45.2058824,41.5138042 L45.2058824,41.3435125 Z M36.6764706,38.1096653 L36.6764706,38.1249153 L36.6884118,38.1249153 C36.6841471,38.1198319 36.6807353,38.1147486 36.6764706,38.1096653 L36.6764706,38.1096653 Z M53.7352941,34.7360264 L55.4411765,34.7360264 L55.4411765,33.0415819 L53.7352941,33.0415819 L53.7352941,34.7360264 Z M41.7941176,41.3435125 C41.2004706,41.2240542 40.6307059,41.0393597 40.0882353,40.8038319 L40.0882353,41.5138042 L41.7941176,41.5138042 L41.7941176,41.3435125 Z M38.3866176,39.8108875 C38.3849118,39.8100403 38.3840588,39.8091931 38.3823529,39.8074986 L38.3823529,39.8193597 L38.3977059,39.8193597 C38.3942941,39.8168181 38.3900294,39.8134292 38.3866176,39.8108875 L38.3866176,39.8108875 Z" id="Fill-5" fill-opacity="0.15" fill="#000000"></path>
                <path d="M76.7647059,26.2638889 L83.5882353,26.2638889 L83.5882353,24.5694444 L76.7647059,24.5694444 L76.7647059,26.2638889 Z M80.1764706,29.6527778 L83.5882353,29.6527778 L83.5882353,27.9583333 L80.1764706,27.9583333 L80.1764706,29.6527778 Z M3.41176471,53.375 L10.2352941,53.375 L10.2352941,51.6805556 L3.41176471,51.6805556 L3.41176471,53.375 Z M3.41176471,49.9861111 L6.82352941,49.9861111 L6.82352941,48.2916667 L3.41176471,48.2916667 L3.41176471,49.9861111 Z" id="Fill-7" fill-opacity="0.15" fill="#313D4B"></path>
                <g id="Group-11">
                    <mask id="mask-2" fill="white">
                        <use xlink:href="#path-1"></use>
                    </mask>
                    <g id="Clip-10"></g>
                    <path d="M63.9705882,9.31935972 C62.5572647,9.31935972 61.4117647,10.4571792 61.4117647,11.8610264 C61.4117647,13.2648736 62.5572647,14.4026931 63.9705882,14.4026931 C65.3839118,14.4026931 66.5294118,13.2648736 66.5294118,11.8610264 C66.5294118,10.4571792 65.3839118,9.31935972 63.9705882,9.31935972 L63.9705882,9.31935972 Z M43.5,48.2915819 C35.0209118,48.2915819 28.1470588,41.4638181 28.1470588,33.0415819 C28.1470588,24.6193458 35.0209118,17.7915819 43.5,17.7915819 C51.9790882,17.7915819 58.8529412,24.6193458 58.8529412,33.0415819 C58.8529412,41.4638181 51.9790882,48.2915819 43.5,48.2915819 L43.5,48.2915819 Z M43.5,14.4026931 C33.1367647,14.4026931 24.7352941,22.7478319 24.7352941,33.0415819 C24.7352941,43.3353319 33.1367647,51.6804708 43.5,51.6804708 C53.8632353,51.6804708 62.2647059,43.3353319 62.2647059,33.0415819 C62.2647059,22.7478319 53.8632353,14.4026931 43.5,14.4026931 L43.5,14.4026931 Z M83.5882353,54.2221375 C83.5882353,56.0911097 82.0580588,57.6110264 80.1764706,57.6110264 L6.82352941,57.6110264 C4.94194118,57.6110264 3.41176471,56.0911097 3.41176471,54.2221375 L3.41176471,15.2499153 C3.41176471,13.3809431 4.94194118,11.8610264 6.82352941,11.8610264 L15.5132941,11.8610264 C19.6295882,11.8610264 22.8571176,9.82854028 24.9340294,5.64495694 C24.9340294,5.64495694 25.7682059,3.38880417 28.1470588,3.38880417 L80.1764706,3.38880417 C82.0580588,3.38880417 83.5882353,4.90872083 83.5882353,6.77769306 L83.5882353,54.2221375 Z M80.1764706,-8.47222223e-05 L28.1470588,-8.47222223e-05 C25.5020882,-8.47222223e-05 22.8937941,1.79602639 21.7909412,4.32583194 C20.7554706,6.75905417 18.3399412,8.4721375 15.5132941,8.4721375 L14.5,8.4721375 C15.9133235,8.4721375 17.0588235,7.33431806 17.0588235,5.93047083 C17.0588235,4.52662361 15.9133235,3.38880417 14.5,3.38880417 L9.38235294,3.38880417 C7.96902941,3.38880417 6.82352941,4.52662361 6.82352941,5.93047083 C6.82352941,7.33431806 7.96902941,8.4721375 9.38235294,8.4721375 L6.82352941,8.4721375 C3.05523529,8.4721375 0,11.5068875 0,15.2499153 L0,54.2221375 C0,57.9651653 3.05523529,60.9999153 6.82352941,60.9999153 L80.1764706,60.9999153 C83.9447647,60.9999153 87,57.9651653 87,54.2221375 L87,6.77769306 C87,3.03466528 83.9447647,-8.47222223e-05 80.1764706,-8.47222223e-05 L80.1764706,-8.47222223e-05 Z M43.5,38.1249153 C40.6733529,38.1249153 38.3823529,35.8492764 38.3823529,33.0415819 C38.3823529,30.2338875 40.6733529,27.9582486 43.5,27.9582486 C46.3266471,27.9582486 48.6176471,30.2338875 48.6176471,33.0415819 C48.6176471,35.8492764 46.3266471,38.1249153 43.5,38.1249153 L43.5,38.1249153 Z M43.5,24.5693597 C38.7892059,24.5693597 34.9705882,28.3623736 34.9705882,33.0415819 C34.9705882,37.7207903 38.7892059,41.5138042 43.5,41.5138042 C48.2107941,41.5138042 52.0294118,37.7207903 52.0294118,33.0415819 C52.0294118,28.3623736 48.2107941,24.5693597 43.5,24.5693597 L43.5,24.5693597 Z M38.3823529,11.0138042 L48.6176471,11.0138042 C50.0309706,11.0138042 51.1764706,9.87598472 51.1764706,8.4721375 C51.1764706,7.06829028 50.0309706,5.93047083 48.6176471,5.93047083 L38.3823529,5.93047083 C36.9690294,5.93047083 35.8235294,7.06829028 35.8235294,8.4721375 C35.8235294,9.87598472 36.9690294,11.0138042 38.3823529,11.0138042 L38.3823529,11.0138042 Z M75.0588235,13.5554708 C74.1163235,13.5554708 73.3529412,12.7972069 73.3529412,11.8610264 C73.3529412,10.9248458 74.1163235,10.1665819 75.0588235,10.1665819 C76.0013235,10.1665819 76.7647059,10.9248458 76.7647059,11.8610264 C76.7647059,12.7972069 76.0013235,13.5554708 75.0588235,13.5554708 L75.0588235,13.5554708 Z M75.0588235,6.77769306 C72.2321765,6.77769306 69.9411765,9.05333194 69.9411765,11.8610264 C69.9411765,14.6687208 72.2321765,16.9443597 75.0588235,16.9443597 C77.8854706,16.9443597 80.1764706,14.6687208 80.1764706,11.8610264 C80.1764706,9.05333194 77.8854706,6.77769306 75.0588235,6.77769306 L75.0588235,6.77769306 Z" id="Fill-9" fill-opacity="0.7" fill="#484848" mask="url(#mask-2)"></path>
                </g>
            </g>
        </g>
    </g>
</svg>