<?xml version="1.0" encoding="UTF-8" standalone="no"?>
<svg width="71px" height="79px" viewBox="0 0 71 79" version="1.1" xmlns="http://www.w3.org/2000/svg" xmlns:xlink="http://www.w3.org/1999/xlink">
    <!-- Generator: Sketch 3.6.1 (26313) - http://www.bohemiancoding.com/sketch -->
    <title>poli-groups-hellowood</title>
    <desc>Created with Sketch.</desc>
    <defs>
        <path id="path-1" d="M71,35.4999606 L71,0 L0,0 L0,35.4999606 L0,70.9999211 L71,70.9999211 L71,35.4999606 L71,35.4999606 Z"></path>
    </defs>
    <g id="kit" stroke="none" stroke-width="1" fill="none" fill-rule="evenodd">
        <g id="poli-groups-hellowood">
            <g id="Page-1" transform="translate(0.000000, 4.000000)">
                <g id="Group-3" transform="translate(0.000000, 0.000079)">
                    <mask id="mask-2" fill="white">
                        <use xlink:href="#path-1"></use>
                    </mask>
                    <g id="Clip-2"></g>
                    <path d="M7.88888889,61.5332544 C7.01795556,61.5332544 6.31111111,62.2400989 6.31111111,63.1110322 C6.31111111,63.9827544 7.01795556,64.68881 7.88888889,64.68881 C8.76061111,64.68881 9.46666667,63.9827544 9.46666667,63.1110322 C9.46666667,62.2400989 8.76061111,61.5332544 7.88888889,61.5332544 L7.88888889,61.5332544 Z M46.0821556,44.6399878 L46.0821556,44.6399878 C45.7965778,44.35441 45.4021333,44.1776989 44.9666667,44.1776989 C44.0957333,44.1776989 43.3888889,44.8845433 43.3888889,45.7554767 C43.3888889,46.1909433 43.5656,46.5853878 43.8511778,46.8709656 L43.8511778,46.8709656 L59.6289556,62.6487433 C59.9137444,62.9343211 60.3089778,63.1110322 60.7444444,63.1110322 C61.6161667,63.1110322 62.3222222,62.4049767 62.3222222,61.5332544 C62.3222222,61.0977878 62.1455111,60.7033433 61.8599333,60.4177656 L46.0821556,44.6399878 Z M60.7444444,67.8443656 C59.0017889,67.8443656 57.4232222,67.1375211 56.2817,65.99521 L35.0132556,44.7275544 L33.2216889,42.9351989 L29.4594778,39.1737767 C28.9908778,38.7051767 28.6011667,38.1600544 28.2974444,37.5628656 C28.1948889,37.36091 28.1041667,37.1510656 28.0229111,36.9372767 C28.0126556,36.9096656 28.0024,36.8812656 27.9921444,36.8536544 C27.9250889,36.6690544 27.8675,36.4789322 27.8178,36.2864433 C27.8051778,36.2383211 27.7917667,36.1901989 27.7799333,36.1420767 C27.7381222,35.9637878 27.7073556,35.7815544 27.6805333,35.5977433 C27.6726444,35.5409433 27.6608111,35.4849322 27.6545,35.4273433 C27.6276778,35.1922544 27.6111111,34.9532211 27.6111111,34.7110322 C27.6111111,34.5390544 27.6237333,34.3694433 27.6371444,34.2006211 C27.6505556,34.0570433 27.6671222,33.9134656 27.6884222,33.7714656 C28.1207333,30.8841322 30.5031778,28.6405322 33.4552,28.4235878 C33.6098222,28.4125433 33.7644444,28.3999211 33.9222222,28.3999211 C34.1959667,28.3999211 34.4641889,28.4227989 34.7276778,28.4567211 C34.7907889,28.4653989 34.8523222,28.4756544 34.9146444,28.48591 C35.1481556,28.5229878 35.3785111,28.5703211 35.6033444,28.6334322 C35.6278,28.6405322 35.6530444,28.6452656 35.6767111,28.6523656 C36.2194667,28.8109322 36.7322444,29.03971 37.204,29.3276544 C37.6323667,29.5895656 38.0315444,29.8956544 38.3849667,30.2482878 L41.7969111,33.6602322 L41.7969111,33.6602322 L44.0704889,35.93381 L44.0704889,35.93381 L65.2071889,57.07051 L65.2071889,57.07051 C66.3495,58.2128211 67.0555556,59.7905989 67.0555556,61.5332544 C67.0555556,65.0185656 64.2297556,67.8443656 60.7444444,67.8443656 L60.7444444,67.8443656 Z M11.2361444,66.4582878 C10.3794111,67.3142322 9.19607778,67.8443656 7.88888889,67.8443656 C5.27451111,67.8443656 3.15555556,65.72541 3.15555556,63.1110322 C3.15555556,61.8038433 3.68568889,60.62051 4.54163333,59.7637767 L25.9323556,39.7733322 C26.3062889,40.3634211 26.7370222,40.9132767 27.2285,41.4047544 L31.0656556,45.24191 L11.2361444,66.4582878 Z M44.9516778,21.9830989 C46.0158889,23.6003211 47.3988111,24.9832433 49.0168222,26.0482433 L43.9687222,31.3700878 L40.6167333,28.01731 C40.2854,27.6859767 39.9233,27.3877767 39.5462111,27.10851 L44.9516778,21.9830989 Z M55.4691444,3.25882111 L53.8195778,4.90838778 C50.4305111,8.29745444 50.4305111,13.7912767 53.8195778,17.1803433 C57.2086444,20.56941 62.7024667,20.56941 66.0915333,17.1803433 L67.7411,15.5307767 C67.0823778,21.0001433 62.4468667,25.2443656 56.8,25.2443656 C55.3721111,25.2443656 54.0136444,24.9635211 52.7624667,24.46731 C52.4311333,24.3371433 52.1069,24.1919878 51.7921333,24.0318433 C51.7558444,24.01291 51.7219222,23.9923989 51.6856333,23.9742544 C49.6968444,22.9313433 48.0677889,21.3022878 47.0256667,19.31271 C47.0067333,19.2779989 46.9870111,19.2440767 46.9688667,19.2085767 C46.8079333,18.89381 46.6627778,18.5687878 46.5326111,18.2366656 C46.0364,16.9862767 45.7555556,15.62781 45.7555556,14.1999211 C45.7555556,8.55305444 49.9997778,3.91754333 55.4691444,3.25882111 L55.4691444,3.25882111 Z M7.43133333,11.6368211 L3.55315556,4.98885444 L4.98893333,3.55307667 L11.6369,7.43125444 L7.43133333,11.6368211 Z M46.2494,33.6507656 L52.0548333,27.57001 C53.5403111,28.0977767 55.1330778,28.3999211 56.8,28.3999211 C64.6423444,28.3999211 71,22.0422656 71,14.1999211 C71,12.0091767 70.4895889,9.94307667 69.6036667,8.08997667 L63.3028111,14.3916211 C62.4460778,15.2475656 61.2627444,15.7776989 59.9555556,15.7776989 C57.3411778,15.7776989 55.2222222,13.6587433 55.2222222,11.0443656 C55.2222222,9.73717667 55.7523556,8.55384333 56.6083,7.69711 L62.9099444,1.39625444 C61.0568444,0.510332222 58.9907444,-7.88888888e-05 56.8,-7.88888888e-05 C48.9576556,-7.88888888e-05 42.6,6.35757667 42.6,14.1999211 C42.6,15.8668433 42.9021444,17.45961 43.4299111,18.9450878 L36.4348333,25.5922656 C35.6333222,25.3713767 34.7939444,25.2443656 33.9222222,25.2443656 C31.9350111,25.2443656 30.0937444,25.85891 28.5704,26.9049767 L12.8691444,10.6617544 L15.3154889,8.21541 L15.3154889,8.21541 C15.6010667,7.92983222 15.7777778,7.53538778 15.7777778,7.09992111 C15.7777778,6.51851 15.4598556,6.01598778 14.9920444,5.74224333 L14.9952,5.73751 L5.52853333,0.215287778 L5.52537778,0.220021111 C5.29186667,0.0835433333 5.02364444,-7.88888888e-05 4.73333333,-7.88888888e-05 C4.29786667,-7.88888888e-05 3.90263333,0.176632222 3.61784444,0.46221 L0.462288889,3.61776556 C0.176711111,3.90334333 0,4.29778778 0,4.73325444 C0,5.02356556 0.0836222222,5.29178778 0.2201,5.52529889 L0.214577778,5.52845444 L5.73758889,14.9951211 L5.74232222,14.9919656 C6.01606667,15.4597767 6.51858889,15.7776989 7.1,15.7776989 C7.53546667,15.7776989 7.92991111,15.6009878 8.21548889,15.31541 L10.6373778,12.8935211 L26.3070778,29.10361 C25.1489889,30.6742878 24.4555556,32.6094322 24.4555556,34.7110322 C24.4555556,35.3642322 24.5218222,36.0024433 24.6480444,36.6177767 L2.31065556,57.5327989 C0.882766667,58.9606878 0,60.93291 0,63.1110322 C0,67.4680656 3.53185556,70.9999211 7.88888889,70.9999211 C10.0670111,70.9999211 12.0392333,70.1171544 13.4671222,68.6892656 L33.3226667,47.49971 L54.0507222,68.2269767 L54.0507222,68.2269767 C55.7634,69.9404433 58.1300667,70.9999211 60.7444444,70.9999211 C65.9732,70.9999211 70.2111111,66.7612211 70.2111111,61.5332544 C70.2111111,58.9188767 69.1516333,56.55221 67.4381667,54.8387433 L46.2494,33.6507656 Z" id="Fill-1" fill-opacity="0.7" fill="#484848" mask="url(#mask-2)"></path>
                </g>
                <path d="M60.7445233,63.1111111 C60.3090567,63.1111111 59.9146122,62.9344 59.6290344,62.6488222 L43.8512567,46.8710444 L43.8512567,46.8710444 C43.5656789,46.5854667 43.3889678,46.1910222 43.3889678,45.7555556 C43.3889678,44.8846222 44.0950233,44.1777778 44.9667456,44.1777778 C45.4022122,44.1777778 45.7966567,44.3544889 46.0822344,44.6400667 L61.8600122,60.4178444 C62.14559,60.7034222 62.3223011,61.0978667 62.3223011,61.5333333 C62.3223011,62.4050556 61.6162456,63.1111111 60.7445233,63.1111111 M65.2072678,57.0705889 L65.2072678,57.0705889 L38.3850456,30.2483667 C37.2427344,29.1068444 35.6649567,28.4 33.9223011,28.4 C30.43699,28.4 27.61119,31.2258 27.61119,34.7111111 C27.61119,36.4537667 28.3172456,38.0315444 29.4595567,39.1738556 L56.2817789,65.9952889 C57.4233011,67.1376 59.0018678,67.8444444 60.7445233,67.8444444 C64.2298344,67.8444444 67.0556344,65.0186444 67.0556344,61.5333333 C67.0556344,59.7906778 66.3495789,58.2129 65.2072678,57.0705889" id="Fill-4" fill="#FFD852"></path>
                <path d="M66.09177,17.1806589 C64.5210922,18.7513367 62.3516478,19.7224589 59.9557922,19.7224589 C55.1632922,19.7224589 51.2780144,15.8371811 51.2780144,11.0446811 C51.2780144,8.64803667 52.2491367,6.47859222 53.8198144,4.90870333 L55.4875256,3.24099222 C50.0079033,3.89103667 45.7557922,8.54548111 45.7557922,14.2002367 C45.7557922,20.2999256 50.7005478,25.2446811 56.8002367,25.2446811 C62.4549922,25.2446811 67.1094367,20.99257 67.7594811,15.5129478 L66.09177,17.1806589 Z" id="Fill-6" fill="#FF5534"></path>
                <path d="M25.2444444,41.0223011 L24.5565333,41.0223011 L23.6666667,41.8443233 L23.6666667,42.6000789 L25.2444444,42.6000789 L25.2444444,41.0223011 Z M23.6666667,45.7556344 L25.2444444,45.7556344 L25.2444444,44.1778567 L23.6666667,44.1778567 L23.6666667,45.7556344 Z M25.2444444,47.3334122 L26.8222222,47.3334122 L26.8222222,45.7556344 L25.2444444,45.7556344 L25.2444444,47.3334122 Z M30.0006556,44.1778567 L29.9777778,44.1778567 L29.9777778,45.7556344 L30.6144111,45.7556344 L31.0774889,45.25469 L30.0006556,44.1778567 Z M28.4,47.3334122 L29.1557556,47.3334122 L29.9777778,46.4435456 L29.9777778,45.7556344 L28.4,45.7556344 L28.4,47.3334122 Z M28.4,42.6000789 L28.4,42.5772011 L27.2285,41.4049122 C27.1078,41.2842122 27.0020889,41.1501011 26.8884889,41.0223011 L26.8222222,41.0223011 L26.8222222,42.6000789 L28.4,42.6000789 Z M22.8493778,42.6000789 L22.0888889,43.3029789 L22.0888889,44.1778567 L23.6666667,44.1778567 L23.6666667,42.6000789 L22.8493778,42.6000789 Z M29.9777778,44.1778567 L29.9777778,44.1549789 L28.4228778,42.6000789 L28.4,42.6000789 L28.4,44.1778567 L29.9777778,44.1778567 Z M26.8222222,45.7556344 L28.4,45.7556344 L28.4,44.1778567 L26.8222222,44.1778567 L26.8222222,45.7556344 Z M26.8222222,48.91119 L27.6963111,48.91119 L28.4,48.1507011 L28.4,47.3334122 L26.8222222,47.3334122 L26.8222222,48.91119 Z M26.8222222,40.9473567 C26.4964111,40.5726344 26.1903222,40.1805567 25.9228889,39.7585011 L25.2444444,40.3856678 L25.2444444,41.0223011 L26.8222222,41.0223011 L26.8222222,40.9473567 Z M25.2444444,44.1778567 L26.8222222,44.1778567 L26.8222222,42.6000789 L25.2444444,42.6000789 L25.2444444,44.1778567 Z" id="Fill-8" fill-opacity="0.15" fill="#000000"></path>
            </g>
        </g>
    </g>
</svg>