<?xml version="1.0" encoding="UTF-8" standalone="no"?>
<svg width="82px" height="79px" viewBox="0 0 82 79" version="1.1" xmlns="http://www.w3.org/2000/svg" xmlns:xlink="http://www.w3.org/1999/xlink">
    <!-- Generator: Sketch 3.6.1 (26313) - http://www.bohemiancoding.com/sketch -->
    <title>poli-groups-draw</title>
    <desc>Created with Sketch.</desc>
    <defs>
        <path id="path-1" d="M81.167995,22.8913043 L0,22.8913043 L0,0.148454348 L81.167995,0.148454348 L81.167995,22.8913043 L81.167995,22.8913043 Z"></path>
        <path id="path-3" d="M0.0419298969,0.836804348 L0.0419298969,56.8321565 L55.8357443,56.8321565 L55.8357443,0.836804348 L0.0419298969,0.836804348 Z"></path>
    </defs>
    <g id="kit" stroke="none" stroke-width="1" fill="none" fill-rule="evenodd">
        <g id="poli-groups-draw">
            <g id="Page-1">
                <path d="M39.8197918,12.4992457 L34.2522454,18.0830283 L39.4698124,23.314963 L45.0373588,17.7320283 L39.8197918,12.4992457 Z" id="Fill-1" fill="#FF5534"></path>
                <g id="Group-12" transform="translate(0.000000, 0.011361)">
                    <g id="Group-4" transform="translate(0.000000, 54.260870)">
                        <mask id="mask-2" fill="white">
                            <use xlink:href="#path-1"></use>
                        </mask>
                        <g id="Clip-3"></g>
                        <path d="M80.3652412,18.0155413 C61.497633,6.23245435 51.2721485,6.14343261 31.1170557,16.6217152 C20.4714268,22.1554761 11.8546639,18.8124978 7.27449897,14.3037587 C3.6572,10.7420413 2.63177732,6.03999783 3.9420866,2.14847609 L3.13054021,2.47488913 C3.12377732,2.47743261 3.11701443,2.48082391 3.10940619,2.48336739 L3.08658144,2.49269348 L3.08489072,2.48760652 C2.92511753,2.53847609 2.75604536,2.57069348 2.57767423,2.57069348 C1.64439588,2.57069348 0.886952577,1.8110413 0.886952577,0.874193478 C0.886952577,0.69615 0.922457732,0.527432609 0.973179381,0.365497826 L0.970643299,0.36465 C-1.11486186,5.65084565 0.142189691,12.0561717 4.91256082,16.7505848 C8.28555052,20.0715196 13.487901,22.8913891 19.8754474,22.8913891 C23.7421278,22.8913891 28.0441691,22.0062587 32.6378598,19.6755848 C51.7726021,9.96288913 60.790066,9.80858478 78.5849113,20.922737 C79.3787052,21.4178674 80.4218804,21.17115 80.9147258,20.3674109 C81.4067258,19.5653674 81.1598804,18.5123674 80.3652412,18.0155413 L80.3652412,18.0155413 Z M1.05095258,0.148454348 C1.05010722,0.150997826 1.04841649,0.152693478 1.04757113,0.155236957 C1.04334433,0.166258696 1.03996289,0.177280435 1.03489072,0.188302174 C1.03658144,0.18491087 1.03827216,0.180671739 1.03996289,0.177280435 L1.05095258,0.148454348 Z" id="Fill-2" fill="#FFD852" mask="url(#mask-2)"></path>
                    </g>
                    <path d="M23.0452124,38.1408978 L21.8498722,36.9420717 L20.654532,38.1408978 L21.8498722,39.3397239 L23.0452124,38.1408978 Z M19.4583464,36.9420717 L18.2630062,38.1408978 L19.4583464,39.3397239 L20.654532,38.1408978 L19.4583464,36.9420717 Z M20.654532,40.53855 L21.4965113,41.3838326 L22.6918515,40.1841587 L21.8498722,39.3397239 L20.654532,40.53855 Z M20.654532,35.7432457 L19.4583464,34.5435717 L18.2630062,35.7432457 L19.4583464,36.9420717 L20.654532,35.7432457 Z M15.8723258,38.1408978 L17.067666,39.3397239 L18.2630062,38.1408978 L17.067666,36.9420717 L15.8723258,38.1408978 Z M18.2630062,40.53855 L19.4583464,41.7382239 L20.654532,40.53855 L19.4583464,39.3397239 L18.2630062,40.53855 Z M17.4725938,34.9505283 L16.278099,36.1493543 L17.067666,36.9420717 L18.2630062,35.7432457 L17.4725938,34.9505283 Z" id="Fill-5" fill-opacity="0.15" fill="#000000"></path>
                    <path d="M13.2210206,39.1643087 L12.0256804,40.3631348 L17.2424021,45.5959174 L18.4385876,44.3970913 L13.2210206,39.1643087 Z" id="Fill-7" fill-opacity="0.15" fill="#000000"></path>
                    <g id="Group-11" transform="translate(0.845361, 0.000000)">
                        <mask id="mask-4" fill="white">
                            <use xlink:href="#path-3"></use>
                        </mask>
                        <g id="Clip-10"></g>
                        <path d="M47.7321155,11.6599826 L45.0506309,8.96898261 L49.0728577,4.93333043 L51.7534969,7.62348261 L47.7321155,11.6599826 Z M14.4130639,47.645113 L9.19549691,42.4089391 L39.0012289,12.4959391 L44.2179505,17.732113 L14.4130639,47.645113 Z M7.41854845,45.4246565 L11.4078062,49.4280913 L4.7590433,52.0978957 L7.41854845,45.4246565 Z M55.8357443,7.62348261 C55.8357443,7.15548261 55.6463835,6.73072174 55.3403629,6.4238087 L55.3403629,6.4238087 L50.2681979,1.33346087 C49.9621773,1.02654783 49.5394969,0.836634783 49.0728577,0.836634783 C48.6062186,0.836634783 48.1826928,1.02654783 47.8775175,1.33346087 L42.3716825,6.8595913 C41.2143835,6.5052 39.9091464,6.77141739 38.994466,7.68961304 C38.9716412,7.71250435 38.9564247,7.73963478 38.9344454,7.76337391 L5.60947629,41.2092652 L5.60947629,41.2092652 C5.42011546,41.3991783 5.28232165,41.6374174 5.19947629,41.9002435 L5.1927134,41.8977 L0.194094845,54.4378957 C0.180569072,54.4692652 0.168734021,54.5006348 0.156898969,54.5328522 L0.120548454,54.6244174 L0.12731134,54.626113 C0.0765896907,54.7880478 0.0419298969,54.9567652 0.0419298969,55.1348087 C0.0419298969,56.0725043 0.798527835,56.8321565 1.73265155,56.8321565 C1.91017732,56.8321565 2.07840412,56.7965478 2.23902268,56.7456783 L2.24155876,56.7533087 L2.33285773,56.7168522 C2.36413608,56.7041348 2.39625979,56.693113 2.42669278,56.6787 L14.9219711,51.6629609 L14.9194351,51.6553304 C15.1814969,51.5722435 15.4190433,51.4348957 15.6084041,51.2441348 L15.6084041,51.2441348 L48.9333732,17.7990913 C48.9570433,17.7770478 48.9840948,17.761787 49.0069196,17.7388957 C49.9216,16.8207 50.1878887,15.5108087 49.8345278,14.349287 L55.3403629,8.82400435 C55.6463835,8.51624348 55.8357443,8.09233043 55.8357443,7.62348261 L55.8357443,7.62348261 Z" id="Fill-9" fill-opacity="0.7" fill="#484848" mask="url(#mask-4)"></path>
                    </g>
                </g>
            </g>
        </g>
    </g>
</svg>