<?xml version="1.0" encoding="UTF-8" standalone="no"?>
<svg width="166px" height="60px" viewBox="0 0 166 60" version="1.1" xmlns="http://www.w3.org/2000/svg" xmlns:xlink="http://www.w3.org/1999/xlink" xmlns:sketch="http://www.bohemiancoding.com/sketch/ns">
    <!-- Generator: Sketch 3.3.2 (12043) - http://www.bohemiancoding.com/sketch -->
    <title>poli-brand-typo</title>
    <desc>Created with Sketch.</desc>
    <defs></defs>
    <g id="kit" stroke="none" stroke-width="1" fill="none" fill-rule="evenodd" sketch:type="MSPage">
        <g id="poli-brand-typo" sketch:type="MSArtboardGroup" fill="#FFFFFF">
            <path d="M0,0 L166,0 L166,60 L0,60 L0,0 Z M28.328,50 C28.952,50 29.48,49.472 29.48,48.848 L29.48,42.464 C29.48,41.936 29.912,41.504 30.44,41.504 L36.392,41.504 C46.328,41.504 51.08,34.832 51.08,26.912 C51.08,19.376 46.328,12.56 36.392,12.56 L21.032,12.56 C20.408,12.56 19.88,13.088 19.88,13.712 L19.88,48.848 C19.88,49.472 20.408,50 21.032,50 L28.328,50 Z M75.872,50.72 C86.816,50.72 95.744,41.984 95.744,31.28 C95.744,20.576 86.816,11.84 75.872,11.84 C65.072,11.84 56,20.576 56,31.28 C56,41.984 65.072,50.72 75.872,50.72 Z M129.08,50 C129.704,50 130.232,49.472 130.232,48.848 L130.232,41.888 C130.232,41.264 129.704,40.736 129.08,40.736 L113.24,40.736 C112.712,40.736 112.28,40.304 112.28,39.776 L112.28,13.712 C112.28,13.088 111.752,12.56 111.128,12.56 L103.88,12.56 C103.256,12.56 102.728,13.088 102.728,13.712 L102.728,48.848 C102.728,49.472 103.256,50 103.88,50 L129.08,50 Z M136.736,48.848 C136.736,49.472 137.264,50 137.888,50 L145.184,50 C145.808,50 146.336,49.472 146.336,48.848 L146.336,13.712 C146.336,13.088 145.808,12.56 145.184,12.56 L137.888,12.56 C137.264,12.56 136.736,13.088 136.736,13.712 L136.736,48.848 Z M41.384,26.96 C41.384,30.272 39.896,32.768 35.864,32.768 L30.44,32.768 C29.912,32.768 29.48,32.336 29.48,31.808 L29.48,22.256 C29.48,21.728 29.912,21.296 30.44,21.296 L35.864,21.296 C39.896,21.296 41.384,23.984 41.384,26.96 Z M75.872,21.104 C81.632,21.104 86.048,25.616 86.048,31.28 C86.048,36.944 81.632,41.456 75.872,41.456 C70.256,41.456 65.696,36.944 65.696,31.28 C65.696,25.616 70.256,21.104 75.872,21.104 Z" id="Rectangle-342" sketch:type="MSShapeGroup"></path>
        </g>
    </g>
</svg>