<?xml version="1.0" encoding="UTF-8" standalone="no"?>
<svg width="13px" height="11px" viewBox="0 0 13 11" version="1.1" xmlns="http://www.w3.org/2000/svg" xmlns:xlink="http://www.w3.org/1999/xlink" xmlns:sketch="http://www.bohemiancoding.com/sketch/ns">
    <!-- Generator: Sketch 3.4.3 (16618) - http://www.bohemiancoding.com/sketch -->
    <title>poli-address-phone-icon</title>
    <desc>Created with Sketch.</desc>
    <defs></defs>
    <g id="kit" stroke="none" stroke-width="1" fill="none" fill-rule="evenodd" sketch:type="MSPage">
        <g id="poli-address-phone-icon" sketch:type="MSArtboardGroup" fill="#FFFFFF">
            <g id="Fill-2-+-Fill-3-+-Fill-4" sketch:type="MSLayerGroup">
                <path d="M11.7994301,8.24327245 C11.7792773,8.14238487 11.7062236,8.00366446 11.63317,7.93556534 C11.63317,7.93556534 9.17453551,5.53696327 9.17453551,4.2531689 C9.17453551,3.28464819 8.970489,3.01225174 8.970489,3.01225174 C8.970489,2.90884197 8.88987803,2.82560972 8.79163342,2.82560972 L7.79407272,2.82560972 C7.69582811,2.82560972 7.61773624,2.90884197 7.61773624,3.01225174 L7.41117064,3.46876801 C7.41117064,3.57217777 7.33307876,3.65541002 7.23483415,3.65541002 L5.60498119,3.65541002 C5.50925567,3.65541002 5.42864471,3.57217777 5.42864471,3.46876801 L5.22207911,3.01225174 C5.22207911,2.90884197 5.14398723,2.82560972 5.04574262,2.82560972 L4.04818192,2.82560972 C3.94993731,2.82560972 3.87184543,2.90884197 3.87184543,3.01225174 C3.87184543,3.01225174 3.66527984,3.28464819 3.66527984,4.2531689 C3.66527984,5.53696327 1.20664539,7.93556534 1.20664539,7.93556534 C1.13611079,8.00366446 1.06053801,8.14238487 1.04038527,8.24327245 L0.728017782,9.79946327 C0.70786504,9.89782866 0.770842357,9.98106091 0.866567879,9.98106091 L1.15878263,9.98106091 L1.56687564,10.5132429 C1.60970022,10.6242192 1.73565485,10.715018 1.84901402,10.715018 L10.9908013,10.715018 C11.1041605,10.715018 11.2301151,10.6242192 11.2729397,10.5132429 L11.6810327,9.98106091 L11.9732475,9.98106091 C12.068973,9.98106091 12.1319503,9.89782866 12.1117976,9.79946327 L11.7994301,8.24327245 Z M6.70967742,10.1539529 C8.09929711,10.1539529 9.22580645,9.01744498 9.22580645,7.61549138 C9.22580645,6.21353778 8.09929711,5.07702984 6.70967742,5.07702984 C5.32005773,5.07702984 4.19354839,6.21353778 4.19354839,7.61549138 C4.19354839,9.01744498 5.32005773,10.1539529 6.70967742,10.1539529 Z" id="Fill-2" sketch:type="MSShapeGroup"></path>
                <path d="M12.7642426,4.17245884 C12.7012652,3.65036564 12.3435541,2.58600174 11.9455374,2.24046179 C11.7641628,2.08408605 11.6482845,1.99328724 11.524849,1.76881239 C11.4140089,1.56451505 11.3182834,1.35769552 11.1318705,1.2214973 C10.8547703,1.01972215 10.5323265,0.896134872 10.2124017,0.792725108 C9.33575744,0.505195522 7.65552263,0.310986943 6.51437365,0.318553511 C5.37070557,0.318553511 3.506577,0.505195522 2.62741366,0.792725108 C2.30748889,0.896134872 1.98504502,1.01972215 1.71046392,1.2214973 C1.52153197,1.35769552 1.42580645,1.56451505 1.31496637,1.76881239 C1.19153083,1.99328724 1.07565257,2.08408605 0.894277898,2.24046179 C0.496261256,2.58600174 0.138550097,3.65036564 0.0755727801,4.17245884 C0.0125954634,4.71220736 1.59710475,4.73238487 2.29993161,4.66680795 C2.63245184,4.63654168 3.03802576,4.59366446 3.27733956,4.30109049 C3.40581329,4.14219256 3.40581329,3.86222955 3.42092785,3.67054316 C3.44611877,3.34770292 3.39069873,2.62887895 3.80634903,2.54312452 C4.17161746,2.46998103 5.67299669,2.41953724 6.42116722,2.41197067 C7.16681865,2.41953724 8.66819788,2.46998103 9.03346632,2.54312452 C9.44911661,2.62887895 9.39369657,3.34770292 9.4188875,3.67054316 C9.43400205,3.86222955 9.43400205,4.14219256 9.56247578,4.30109049 C9.80178958,4.59366446 10.2073635,4.63654168 10.5398837,4.66680795 C11.2452297,4.73238487 12.8272199,4.71220736 12.7642426,4.17245884" id="Fill-3" sketch:type="MSShapeGroup"></path>
                <path d="M4.78260664,7.61645773 C4.78260664,6.6806985 5.53929803,5.92307692 6.47176476,5.92307692 C7.40637509,5.92307692 8.16306648,6.6806985 8.16306648,7.61645773 C8.16306648,8.55007073 7.40637509,9.30769231 6.47176476,9.30769231 C5.53929803,9.30769231 4.78260664,8.55007073 4.78260664,7.61645773 L4.78260664,7.61645773 Z" id="Fill-4" sketch:type="MSShapeGroup"></path>
            </g>
        </g>
    </g>
</svg>