<?xml version="1.0" encoding="UTF-8" standalone="no"?>
<svg width="13px" height="13px" viewBox="0 0 13 13" version="1.1" xmlns="http://www.w3.org/2000/svg" xmlns:xlink="http://www.w3.org/1999/xlink" xmlns:sketch="http://www.bohemiancoding.com/sketch/ns">
    <!-- Generator: Sketch 3.4.3 (16618) - http://www.bohemiancoding.com/sketch -->
    <title>poli-address-email-icon</title>
    <desc>Created with Sketch.</desc>
    <defs></defs>
    <g id="kit" stroke="none" stroke-width="1" fill="none" fill-rule="evenodd" sketch:type="MSPage">
        <g id="poli-address-email-icon" sketch:type="MSArtboardGroup" fill="#FFFFFF">
            <path d="M7.52599814,6.38993001 C7.37209842,7.47301874 6.62372331,8.35064349 5.89345404,8.35064349 C5.28087279,8.35064349 4.9549675,7.90155791 4.9549675,7.19123956 L4.9549675,7.15014676 C4.97609099,5.72951005 5.96587744,4.54075412 7.2181987,4.54075412 C7.4505571,4.54075412 7.66179201,4.57597652 7.81569174,4.61413412 L7.59238626,5.99074283 L7.52599814,6.38993001 L7.52599814,6.38993001 Z M9.4814299,5.38902687 L9.79224698,3.51343418 C9.33054782,3.2698126 8.37093779,3.06434861 7.52599814,3.06434861 C4.76183844,3.06434861 3.01462396,5.11898848 3.01462396,7.41724994 C3.01462396,7.51998194 3.02065924,7.61977873 3.02669452,7.71664033 C3.1413649,9.06683224 4.01949861,9.86520659 5.16620241,9.86520659 C6.20125348,9.86520659 7.04619313,9.36035222 7.66179201,8.42402348 L7.69800371,8.42402348 C7.79456825,9.39557462 8.44939647,9.86520659 9.35167131,9.86520659 C11.4247911,9.86520659 13,8.1451795 13,5.40076767 C13,5.28923007 12.9939647,5.18062768 12.9879294,5.07202529 C12.8249768,2.10453827 10.4591458,0 7.181987,0 C2.86072423,0 0,3.3079702 0,7.11785956 C0,7.41724994 0.0211234912,7.70489953 0.0573351903,7.98374351 C0.461699164,11.1273425 3.06290622,13 5.99001857,13 C7.35399257,13 8.35283194,12.8326936 9.50557103,12.3278392 L9.17966574,11.2652969 C8.41016713,11.6380673 7.35399257,11.8435313 6.37325905,11.8435313 C3.82636955,11.8435313 1.93129062,10.4493114 1.55106778,7.92503951 C1.50278552,7.61684353 1.47864438,7.29103635 1.47864438,6.95055317 C1.47864438,3.36373899 4.03156917,1.13885753 6.98885794,1.13885753 C9.81940576,1.13885753 11.4157382,2.82953263 11.5666202,5.10137729 C11.5726555,5.21878528 11.5786908,5.33619327 11.5786908,5.45653646 C11.5786908,7.62271393 10.5406221,8.65003387 9.71680594,8.61187627 C9.17966574,8.59132987 9.04387187,8.0894107 9.21587744,6.98577557 L9.4814299,5.38902687 L9.4814299,5.38902687 Z" id="Fill-1" sketch:type="MSShapeGroup"></path>
        </g>
    </g>
</svg>