<?xml version="1.0" encoding="UTF-8" standalone="no"?>
<svg width="85px" height="79px" viewBox="0 0 85 79" version="1.1" xmlns="http://www.w3.org/2000/svg" xmlns:xlink="http://www.w3.org/1999/xlink">
    <!-- Generator: Sketch 3.6.1 (26313) - http://www.bohemiancoding.com/sketch -->
    <title>poli-groups-reading</title>
    <desc>Created with Sketch.</desc>
    <defs>
        <path id="path-1" d="M0.000299029125,76.2524272 L76.275901,76.2524272 L76.275901,0.000149514563 L0.000299029125,0.000149514563 L0.000299029125,76.2524272 L0.000299029125,76.2524272 Z"></path>
    </defs>
    <g id="kit" stroke="none" stroke-width="1" fill="none" fill-rule="evenodd">
        <g id="poli-groups-reading">
            <g id="Page-1" transform="translate(8.000000, 0.000000)">
                <path d="M61.3651126,10.8910893 L56.4415981,15.8146039 L61.0556175,20.4278757 L65.979132,15.5051087 L61.3651126,10.8910893 Z" id="Fill-1" fill="#FF5534"></path>
                <g id="Group-7" transform="translate(0.000000, 0.617495)">
                    <mask id="mask-2" fill="white">
                        <use xlink:href="#path-1"></use>
                    </mask>
                    <g id="Clip-3"></g>
                    <path d="M9,60.6272689 L43.6956522,60.6272689 L43.6956522,58.8011819 L9,58.8011819 L9,60.6272689 Z M9,55.149008 L51,55.149008 L51,53.3229211 L9,53.3229211 L9,55.149008 Z M25.463087,47.8857472 C25.463087,47.8711385 25.4667391,47.8583558 25.4676522,47.8446602 L9,47.8446602 L9,49.6707472 L26.9056957,49.6707472 C26.0821304,49.4945298 25.463087,48.7622689 25.463087,47.8857472 L25.463087,47.8857472 Z" id="Fill-2" fill="#F6D44A" mask="url(#mask-2)"></path>
                    <path d="M43.3592233,31.8359864 L42.3021553,32.8930544 L43.3592233,33.9501223 L44.4162913,32.8930544 L43.3592233,31.8359864 Z M46.5311748,32.8930544 L45.4733592,31.8359864 L44.4162913,32.8930544 L45.4733592,33.9501223 L46.5311748,32.8930544 Z M44.4162913,35.0079379 L45.1616214,35.7525204 L46.2186893,34.6954524 L45.4733592,33.9501223 L44.4162913,35.0079379 Z M40.1872718,32.8930544 L41.2450874,33.9501223 L42.3021553,32.8930544 L41.2450874,31.8359864 L40.1872718,32.8930544 Z M42.3021553,35.0079379 L43.3592233,36.0650058 L44.4162913,35.0079379 L43.3592233,33.9501223 L42.3021553,35.0079379 Z M41.6031748,30.0799379 L40.5461068,31.1377534 L41.2450874,31.8359864 L42.3021553,30.7789184 L41.6031748,30.0799379 Z M44.4162913,30.7789184 L43.3592233,29.7218505 L42.3021553,30.7789184 L43.3592233,31.8359864 L44.4162913,30.7789184 Z" id="Fill-4" fill-opacity="0.15" fill="#000000" mask="url(#mask-2)"></path>
                    <path d="M53.8252427,29.8295757 L53.8252427,68.7766243 L7.47572816,68.7766243 L7.47572816,22.4271097 L46.5476214,22.4271097 L48.042767,20.9319641 L5.98058252,20.9319641 L5.98058252,70.2717699 L55.3203883,70.2717699 L55.3203883,28.3344301 L53.8252427,29.8295757 Z M41.399835,39.4665369 L42.4569029,38.4094689 L37.8428835,33.7954495 L36.7858155,34.8525175 L41.399835,39.4665369 Z" id="Fill-5" fill-opacity="0.15" fill="#000000" mask="url(#mask-2)"></path>
                    <path d="M69.109668,9.54366408 L66.738367,7.17086796 L70.2953184,3.61242136 L72.6658718,5.9844699 L69.109668,9.54366408 Z M58.3109786,70.2719942 C58.3109786,71.9233825 56.9720757,73.2622854 55.3206874,73.2622854 L5.98088155,73.2622854 C4.32874563,73.2622854 2.99059029,71.9233825 2.99059029,70.2719942 L2.99059029,20.9321883 C2.99059029,19.2808 4.32874563,17.9418971 5.98088155,17.9418971 L49.5038233,17.9418971 L31.8596097,35.5988194 L31.8753087,35.6145184 C31.7093476,35.7827223 31.570299,35.9770913 31.4970369,36.2080913 L31.4910563,36.2058485 L27.0706583,47.2631981 C27.0586971,47.2908583 27.0482311,47.3185184 27.037765,47.3469262 L27.0056194,47.4276641 L27.0116,47.4291592 C26.9667456,47.5719456 26.9360951,47.7207126 26.9360951,47.8777029 C26.9360951,48.7045184 27.6051728,49.3743437 28.4312408,49.3743437 C28.5882311,49.3743437 28.7377456,49.3451883 28.8797845,49.300334 L28.8812796,49.3048194 L28.9014641,49.2965961 C28.9074447,49.2943534 28.9134252,49.2913631 28.9194058,49.2891204 L40.0948718,44.8163922 L40.0926291,44.8096641 C40.3236291,44.7364019 40.5179981,44.5973534 40.6862019,44.4313922 L40.701901,44.4470913 L58.3109786,26.8260524 L58.3109786,70.2719942 Z M36.9872117,42.8457903 L31.1075515,45.1998971 L33.4594155,39.3157515 L36.9872117,42.8457903 Z M61.3887359,10.2807709 L66.0020078,14.8977806 L39.644833,41.2736447 L35.0308136,36.656635 L61.3887359,10.2807709 Z M75.8378233,7.04228544 C76.1084447,6.77166408 76.275901,6.39787767 76.275901,5.9844699 C76.275901,5.57180971 76.1084447,5.19727573 75.8378233,4.92665437 L75.8378233,4.92665437 L71.3523864,0.438227184 C71.081765,0.167605825 70.7079786,0.000149514563 70.2953184,0.000149514563 C69.8826583,0.000149514563 69.5088718,0.167605825 69.2382505,0.438227184 L69.2382505,0.438227184 L64.367066,5.31240194 C63.3443864,5.00066408 62.1908816,5.2339068 61.3827553,6.04278058 C61.3573379,6.06819806 61.3386485,6.0973534 61.3139786,6.12277087 L52.4918718,14.9516058 L5.98088155,14.9516058 C2.67735728,14.9516058 0.000299029125,17.6294117 0.000299029125,20.9321883 L0.000299029125,70.2719942 C0.000299029125,73.5747709 2.67735728,76.2525767 5.98088155,76.2525767 L55.3206874,76.2525767 C58.6234641,76.2525767 61.3012699,73.5747709 61.3012699,70.2719942 L61.3012699,23.834266 L70.157765,14.9710427 C70.1831825,14.9471204 70.2123379,14.9284311 70.2370078,14.9037612 C71.0458816,14.0941398 71.281367,12.9391398 70.9688816,11.914965 L75.8378233,7.04303301 L75.8378233,7.04228544 Z" id="Fill-6" fill-opacity="0.7" fill="#4A4A4A" mask="url(#mask-2)"></path>
                </g>
            </g>
        </g>
    </g>
</svg>