<?xml version="1.0" encoding="UTF-8" standalone="no"?>
<svg width="78px" height="79px" viewBox="0 0 78 79" version="1.1" xmlns="http://www.w3.org/2000/svg" xmlns:xlink="http://www.w3.org/1999/xlink">
    <!-- Generator: Sketch 3.6.1 (26313) - http://www.bohemiancoding.com/sketch -->
    <title>poli-groups-theater</title>
    <desc>Created with Sketch.</desc>
    <defs></defs>
    <g id="kit" stroke="none" stroke-width="1" fill="none" fill-rule="evenodd">
        <g id="poli-groups-theater">
            <g id="szinhaz" transform="translate(0.000000, 4.000000)">
                <path d="M46.5974416,15.9552202 C52.1499507,16.903308 57.4048923,17.5981778 62.5591861,18.7440434 C66.7276314,19.6709517 70.6563347,21.3808734 74.0921139,24.0426204 C76.7292744,26.0854941 77.9989373,28.4722209 77.2368895,31.9939121 C75.9994214,37.7138961 75.3877202,43.5737261 74.0367888,49.2628754 C71.6196782,59.4414258 65.5014158,66.6240313 55.3125428,69.6919236 C48.5675758,71.7229618 42.5743418,69.6835142 37.5419506,64.8686363 C34.3656054,61.8293984 32.276069,58.0909302 30.8691875,54.0668522 C29.3438416,54.0668522 27.892575,54.1577989 26.4559992,54.0519021 C18.5951542,53.4716499 12.931995,49.226123 8.34314192,43.1953008 C4.96143757,38.7507502 3.63457419,33.5826754 2.80907449,28.1937746 C2.12673226,23.7383229 1.33248966,19.2971984 0.458854051,14.875073 C0.0256308121,12.6823865 0.463855185,10.8039643 2.05796667,9.32794993 C3.41952542,8.0671552 4.85672633,6.76867368 6.49147203,5.93925264 C16.3243268,0.94933358 26.7263731,-0.855895236 37.6566641,0.967086866 C39.2067031,1.22559962 40.7223593,1.93697688 42.1414311,2.65863236 C43.8071213,3.50580669 44.703262,4.99770559 45.0083312,6.8686527 C45.5246983,10.0327865 46.109831,13.1860192 46.5974416,15.9552202 L46.5974416,15.9552202 Z M30.3062473,3.92472193 C30.2821794,4.05522415 30.2581114,4.18541491 30.2340435,4.31591713 C25.4082617,4.27293549 20.6968808,5.06747288 16.0783335,6.37747847 C12.5181512,7.38754698 9.0689315,8.69724111 6.09638243,10.9976931 C4.81609211,11.9884511 4.21783145,13.0729588 4.57916339,14.8697781 C5.69191572,20.4047542 6.43927269,26.0132351 7.57671812,31.5422934 C9.2224038,39.5415501 13.9144053,45.3478088 21.3198346,48.7327686 C26.2528282,50.9880587 31.2961593,50.6488776 35.5855695,47.1461855 C42.2273881,41.722401 45.1283584,34.5083379 44.1478236,26.0465615 C43.4514157,20.0356728 42.0761038,14.1045181 41.1011952,8.12228383 C40.8767693,6.74624847 40.2453762,5.86356758 38.974463,5.58885885 C36.0997486,4.96780532 33.197528,4.47164771 30.3062473,3.92472193 L30.3062473,3.92472193 Z M34.6303529,52.545053 C36.3895018,57.2219536 38.8494346,61.2164429 42.9672434,64.0242651 C46.3064381,66.3007346 50.0557258,67.0077515 53.8378334,65.8540994 C62.4429097,63.2294163 67.8560122,57.2758364 69.9911839,48.6664273 C71.3849375,43.0467339 71.9894495,37.2370491 73.1803446,31.5609811 C73.6360729,29.388851 72.9365393,28.0442733 71.265848,26.9775188 C69.956176,26.1415571 68.6555685,25.1663722 67.2061774,24.6970003 C63.2162101,23.4050595 59.1862338,22.1891151 55.1003072,21.2547317 C52.6635046,20.6975277 50.0916714,20.727428 47.5451565,20.4897831 C47.5451565,20.9887439 47.5104611,21.2014718 47.5504702,21.3989382 C48.2925135,25.072311 48.8285725,28.7506671 48.2249981,32.5137407 C48.1662348,32.880642 48.6057095,33.3665214 48.8895238,33.7399633 C49.509977,34.5566144 50.3951778,35.2524186 50.7518211,36.1612622 C50.9878122,36.7630052 50.7318166,37.9098051 50.2613974,38.3337038 C49.7934788,38.7554221 48.777936,38.6657213 48.0118248,38.6261658 C47.657682,38.608101 47.3254192,38.175793 46.9694009,37.9210177 C44.5401001,44.2056808 40.9533492,49.3915089 34.6303529,52.545053 L34.6303529,52.545053 Z" id="Fill-1" fill-opacity="0.7" fill="#4A4A4A"></path>
                <path d="M28.4205072,31.3180414 C30.9148228,31.3208445 33.1084453,32.1754939 35.0385705,33.6988504 C36.3626207,34.7438026 36.6045506,35.890291 35.8049943,36.9012939 C34.9973111,37.9228865 33.8861216,37.9238209 32.5351903,36.9040971 C29.0665912,34.2859547 24.8043747,35.0496574 22.4410263,38.712752 C21.5648901,40.071034 20.4261944,40.4494593 19.33751,39.7443113 C18.3041507,39.0749813 18.1284859,37.967114 18.9705518,36.5945047 C21.1241652,33.084649 24.3048865,31.34545 28.4205072,31.3180414" id="Fill-2" fill="#FF5534"></path>
                <path d="M33.1715846,21.6228788 C30.8494955,21.3976924 28.8624824,20.6324323 27.312756,18.9337232 C26.3362846,17.8632312 26.335972,16.75879 27.2771229,15.9197137 C28.2689103,15.0354755 29.3047702,15.1933863 30.1802813,16.0735755 C31.4055591,17.3054043 32.8236932,17.5804245 34.4546881,17.1960815 C34.9057278,17.0898732 35.4767948,16.8565888 35.8134337,17.0291383 C36.529221,17.3960395 37.5094433,17.8956232 37.6660413,18.5194799 C37.8210764,19.1371073 37.2900185,20.3253316 36.7167635,20.6380386 C35.6687133,21.2095698 34.3674808,21.3201385 33.1715846,21.6228788" id="Fill-3" fill-opacity="0.7" fill="#4A4A4A"></path>
                <path d="M13.6831028,24.9396285 C12.2493402,24.9374483 11.4154011,24.415128 11.2584905,23.1982493 C11.0890771,21.8841947 11.8451861,21.0662977 13.0789033,20.9519914 C15.1996967,20.7554595 16.8241276,20.045951 17.7362094,17.9485716 C18.1916252,16.9020621 19.2853107,16.7687568 20.2917889,17.2122774 C21.2704484,17.6436511 21.6445957,18.4970547 21.3351505,19.5208275 C20.5127765,22.2417521 18.5163863,23.7660429 15.9017309,24.5674325 C15.1178032,24.807569 14.2713612,24.8455673 13.6831028,24.9396285" id="Fill-4" fill-opacity="0.7" fill="#4A4A4A"></path>
                <path d="M51.4916764,57.8420728 C47.4595121,57.7137508 44.3860026,55.9527495 42.271148,52.5889691 C41.4068896,51.2141795 41.6281897,49.9328284 42.7056216,49.3239218 C43.8061836,48.7019339 44.8714252,49.1155543 45.7625648,50.5102773 C48.0111997,54.0291654 52.272791,54.8302435 55.646056,52.3665858 C55.7717095,52.2750162 55.8845476,52.1663163 56.0098885,52.0741238 C57.1651504,51.226638 58.3351032,51.2381621 59.0477649,52.1797091 C59.8995205,53.3053297 59.5722588,54.3393807 58.5932868,55.1940301 C56.5550121,56.9730962 54.1407146,57.7937963 51.4916764,57.8420728" id="Fill-5" fill="#FFD852"></path>
                <path d="M67.3112012,40.1601119 C67.0026937,40.5245215 66.6097921,41.421841 66.0471646,41.5442453 C65.3241881,41.7018446 64.2026838,41.4941 63.7091344,40.9954507 C61.469564,38.7339313 61.3707916,38.6482795 58.4588813,40.1436045 C57.5011641,40.6354016 56.627216,40.5108172 55.9164298,39.7221976 C55.1915779,38.9180049 55.1528191,37.9960799 55.8757956,37.1912643 C57.5518006,35.3253005 59.7307322,34.8092094 62.1162732,35.2122401 C64.4758707,35.6109104 66.1812575,36.9539309 67.1524152,39.1618789 C67.2327459,39.3447066 67.2208682,39.5674014 67.3112012,40.1601119" id="Fill-6" fill-opacity="0.7" fill="#4A4A4A"></path>
            </g>
        </g>
    </g>
</svg>