<?xml version="1.0" encoding="UTF-8" standalone="no"?>
<svg width="87px" height="79px" viewBox="0 0 87 79" version="1.1" xmlns="http://www.w3.org/2000/svg" xmlns:xlink="http://www.w3.org/1999/xlink">
    <!-- Generator: Sketch 3.6.1 (26313) - http://www.bohemiancoding.com/sketch -->
    <title>poli-groups-video</title>
    <desc>Created with Sketch.</desc>
    <defs>
        <path id="path-1" d="M87,30.4998306 L87,0 L0,0 L0,30.4998306 L0,60.9996611 L87,60.9996611 L87,30.4998306 L87,30.4998306 Z"></path>
    </defs>
    <g id="kit" stroke="none" stroke-width="1" fill="none" fill-rule="evenodd">
        <g id="poli-groups-video">
            <g id="Page-1" transform="translate(0.000000, 9.000000)">
                <path d="M3.41176471,45.75 L61.4117647,45.75 L61.4117647,30.5 L3.41176471,30.5 L3.41176471,45.75 Z" id="Fill-1" fill="#F6D44A"></path>
                <g id="Group-11">
                    <path d="M51.1764706,10.1666667 C49.2923235,10.1666667 47.7647059,11.6840417 47.7647059,13.5555556 C47.7647059,15.4270694 49.2923235,16.9444444 51.1764706,16.9444444 C53.0606176,16.9444444 54.5882353,15.4270694 54.5882353,13.5555556 C54.5882353,11.6840417 53.0606176,10.1666667 51.1764706,10.1666667" id="Fill-2" fill="#FF5534"></path>
                    <path d="M34.1176471,32.1944444 L35.8235294,32.1944444 L35.8235294,30.5 L34.1176471,30.5 L34.1176471,32.1944444 Z M34.1176471,35.5833333 L35.8235294,35.5833333 L35.8235294,33.8888889 L34.1176471,33.8888889 L34.1176471,35.5833333 Z M37.5294118,32.1944444 L39.2352941,32.1944444 L39.2352941,30.5 L37.5294118,30.5 L37.5294118,32.1944444 Z M40.9411765,32.1944444 L42.6470588,32.1944444 L42.6470588,30.5 L40.9411765,30.5 L40.9411765,32.1944444 Z M51.1764706,32.1944444 L52.8823529,32.1944444 L52.8823529,30.5 L51.1764706,30.5 L51.1764706,32.1944444 Z M44.3529412,32.1944444 L46.0588235,32.1944444 L46.0588235,30.5 L44.3529412,30.5 L44.3529412,32.1944444 Z M47.7647059,32.1944444 L49.4705882,32.1944444 L49.4705882,30.5 L47.7647059,30.5 L47.7647059,32.1944444 Z M37.5294118,35.5833333 L39.2352941,35.5833333 L39.2352941,33.8888889 L37.5294118,33.8888889 L37.5294118,35.5833333 Z M39.2352941,33.8888889 L40.9411765,33.8888889 L40.9411765,32.1944444 L39.2352941,32.1944444 L39.2352941,33.8888889 Z M35.8235294,33.8888889 L37.5294118,33.8888889 L37.5294118,32.1944444 L35.8235294,32.1944444 L35.8235294,33.8888889 Z M40.9411765,35.5833333 L42.6470588,35.5833333 L42.6470588,33.8888889 L40.9411765,33.8888889 L40.9411765,35.5833333 Z M42.6470588,33.8888889 L44.3529412,33.8888889 L44.3529412,32.1944444 L42.6470588,32.1944444 L42.6470588,33.8888889 Z M51.1764706,35.5833333 L52.8823529,35.5833333 L52.8823529,33.8888889 L51.1764706,33.8888889 L51.1764706,35.5833333 Z M44.3529412,35.5833333 L46.0588235,35.5833333 L46.0588235,33.8888889 L44.3529412,33.8888889 L44.3529412,35.5833333 Z M46.0588235,33.8888889 L47.7647059,33.8888889 L47.7647059,32.1944444 L46.0588235,32.1944444 L46.0588235,33.8888889 Z M47.7647059,35.5833333 L49.4705882,35.5833333 L49.4705882,33.8888889 L47.7647059,33.8888889 L47.7647059,35.5833333 Z M49.4705882,33.8888889 L51.1764706,33.8888889 L51.1764706,32.1944444 L49.4705882,32.1944444 L49.4705882,33.8888889 Z M54.5882353,32.1944444 L56.2941176,32.1944444 L56.2941176,30.5 L54.5882353,30.5 L54.5882353,32.1944444 Z M58,32.1944444 L59.7058824,32.1944444 L59.7058824,30.5 L58,30.5 L58,32.1944444 Z M54.5882353,35.5833333 L56.2941176,35.5833333 L56.2941176,33.8888889 L54.5882353,33.8888889 L54.5882353,35.5833333 Z M56.2941176,33.8888889 L58,33.8888889 L58,32.1944444 L56.2941176,32.1944444 L56.2941176,33.8888889 Z M52.8823529,33.8888889 L54.5882353,33.8888889 L54.5882353,32.1944444 L52.8823529,32.1944444 L52.8823529,33.8888889 Z M58,35.5833333 L59.7058824,35.5833333 L59.7058824,33.8888889 L58,33.8888889 L58,35.5833333 Z M59.7058824,33.8888889 L61.4117647,33.8888889 L61.4117647,32.1944444 L59.7058824,32.1944444 L59.7058824,33.8888889 Z M3.41176471,32.1944444 L5.11764706,32.1944444 L5.11764706,30.5 L3.41176471,30.5 L3.41176471,32.1944444 Z M3.41176471,35.5833333 L5.11764706,35.5833333 L5.11764706,33.8888889 L3.41176471,33.8888889 L3.41176471,35.5833333 Z M6.82352941,32.1944444 L8.52941176,32.1944444 L8.52941176,30.5 L6.82352941,30.5 L6.82352941,32.1944444 Z M10.2352941,32.1944444 L11.9411765,32.1944444 L11.9411765,30.5 L10.2352941,30.5 L10.2352941,32.1944444 Z M20.4705882,32.1944444 L22.1764706,32.1944444 L22.1764706,30.5 L20.4705882,30.5 L20.4705882,32.1944444 Z M13.6470588,32.1944444 L15.3529412,32.1944444 L15.3529412,30.5 L13.6470588,30.5 L13.6470588,32.1944444 Z M17.0588235,32.1944444 L18.7647059,32.1944444 L18.7647059,30.5 L17.0588235,30.5 L17.0588235,32.1944444 Z M6.82352941,35.5833333 L8.52941176,35.5833333 L8.52941176,33.8888889 L6.82352941,33.8888889 L6.82352941,35.5833333 Z M8.52941176,33.8888889 L10.2352941,33.8888889 L10.2352941,32.1944444 L8.52941176,32.1944444 L8.52941176,33.8888889 Z M5.11764706,33.8888889 L6.82352941,33.8888889 L6.82352941,32.1944444 L5.11764706,32.1944444 L5.11764706,33.8888889 Z M10.2352941,35.5833333 L11.9411765,35.5833333 L11.9411765,33.8888889 L10.2352941,33.8888889 L10.2352941,35.5833333 Z M11.9411765,33.8888889 L13.6470588,33.8888889 L13.6470588,32.1944444 L11.9411765,32.1944444 L11.9411765,33.8888889 Z M20.4705882,35.5833333 L22.1764706,35.5833333 L22.1764706,33.8888889 L20.4705882,33.8888889 L20.4705882,35.5833333 Z M13.6470588,35.5833333 L15.3529412,35.5833333 L15.3529412,33.8888889 L13.6470588,33.8888889 L13.6470588,35.5833333 Z M15.3529412,33.8888889 L17.0588235,33.8888889 L17.0588235,32.1944444 L15.3529412,32.1944444 L15.3529412,33.8888889 Z M17.0588235,35.5833333 L18.7647059,35.5833333 L18.7647059,33.8888889 L17.0588235,33.8888889 L17.0588235,35.5833333 Z M18.7647059,33.8888889 L20.4705882,33.8888889 L20.4705882,32.1944444 L18.7647059,32.1944444 L18.7647059,33.8888889 Z M23.8823529,32.1944444 L25.5882353,32.1944444 L25.5882353,30.5 L23.8823529,30.5 L23.8823529,32.1944444 Z M27.2941176,32.1944444 L29,32.1944444 L29,30.5 L27.2941176,30.5 L27.2941176,32.1944444 Z M30.7058824,32.1944444 L32.4117647,32.1944444 L32.4117647,30.5 L30.7058824,30.5 L30.7058824,32.1944444 Z M23.8823529,35.5833333 L25.5882353,35.5833333 L25.5882353,33.8888889 L23.8823529,33.8888889 L23.8823529,35.5833333 Z M25.5882353,33.8888889 L27.2941176,33.8888889 L27.2941176,32.1944444 L25.5882353,32.1944444 L25.5882353,33.8888889 Z M22.1764706,33.8888889 L23.8823529,33.8888889 L23.8823529,32.1944444 L22.1764706,32.1944444 L22.1764706,33.8888889 Z M27.2941176,35.5833333 L29,35.5833333 L29,33.8888889 L27.2941176,33.8888889 L27.2941176,35.5833333 Z M29,33.8888889 L30.7058824,33.8888889 L30.7058824,32.1944444 L29,32.1944444 L29,33.8888889 Z M30.7058824,35.5833333 L32.4117647,35.5833333 L32.4117647,33.8888889 L30.7058824,33.8888889 L30.7058824,35.5833333 Z M32.4117647,33.8888889 L34.1176471,33.8888889 L34.1176471,32.1944444 L32.4117647,32.1944444 L32.4117647,33.8888889 Z" id="Fill-4" fill-opacity="0.15" fill="#000000"></path>
                    <path d="M78.4705882,14.2573944 L78.4705882,46.7424361 L80.1764706,48.4368806 L80.1764706,12.56295 L78.4705882,14.2573944 Z" id="Fill-6" fill-opacity="0.15" fill="#000000"></path>
                    <g id="Group-10">
                        <mask id="mask-2" fill="white">
                            <use xlink:href="#path-1"></use>
                        </mask>
                        <g id="Clip-9"></g>
                        <path d="M83.5882353,51.8259389 L64.8235294,33.18705 L64.8235294,27.8131194 L83.5882353,9.17423056 L83.5882353,51.8259389 Z M61.4117647,54.2218833 C61.4117647,56.0942444 59.8841471,57.6107722 58,57.6107722 L6.82352941,57.6107722 C4.93938235,57.6107722 3.41176471,56.0942444 3.41176471,54.2218833 L3.41176471,6.77743889 C3.41176471,4.905925 4.93938235,3.38855 6.82352941,3.38855 L58,3.38855 C59.8841471,3.38855 61.4117647,4.905925 61.4117647,6.77743889 L61.4117647,54.2218833 Z M85.2941176,3.38855 C84.8232941,3.38855 84.3959706,3.57832778 84.0872059,3.88586944 L64.8235294,23.0203833 L64.8235294,6.77743889 C64.8235294,3.03441111 61.7682941,-0.000338888889 58,-0.000338888889 L6.82352941,-0.000338888889 C3.05523529,-0.000338888889 0,3.03441111 0,6.77743889 L0,54.2218833 C0,57.9657583 3.05523529,60.9996611 6.82352941,60.9996611 L58,60.9996611 C61.7682941,60.9996611 64.8235294,57.9657583 64.8235294,54.2218833 L64.8235294,37.9797861 L84.0880588,57.1151472 L84.0880588,57.1151472 C84.3968235,57.4218417 84.8232941,57.6107722 85.2941176,57.6107722 C86.2366176,57.6107722 87,56.8525083 87,55.9163278 L87,5.08299444 C87,4.14766111 86.2366176,3.38855 85.2941176,3.38855 L85.2941176,3.38855 Z" id="Fill-8" fill-opacity="0.7" fill="#484848" mask="url(#mask-2)"></path>
                    </g>
                </g>
            </g>
        </g>
    </g>
</svg>