<?xml version="1.0" encoding="UTF-8" standalone="no"?>
<svg width="13px" height="11px" viewBox="0 0 13 11" version="1.1" xmlns="http://www.w3.org/2000/svg" xmlns:xlink="http://www.w3.org/1999/xlink">
    <!-- Generator: Sketch 3.6.1 (26313) - http://www.bohemiancoding.com/sketch -->
    <title>poli-address-phone-icon</title>
    <desc>Created with Sketch.</desc>
    <defs>
        <path id="path-1" d="M0.664539382,8 L12.2998606,8 L12.2998606,0.0121 L0.664539382,0.0121 L0.664539382,8 L0.664539382,8 Z"></path>
    </defs>
    <g id="kit" stroke="none" stroke-width="1" fill="none" fill-rule="evenodd">
        <g id="poli-address-phone-icon">
            <g id="Page-1" transform="translate(0.000000, -1.000000)">
                <g id="Group-3" transform="translate(0.000000, 0.525900)" fill="#FFFFFF">
                    <path d="M12.1261,2.4201 C11.9411,2.2621 11.8221,2.1701 11.6961,1.9421 C11.5831,1.7361 11.4851,1.5261 11.2951,1.3881 C11.0121,1.1841 10.6831,1.0591 10.3561,0.9541 C9.4601,0.6631 7.7441,0.4671 6.5781,0.4741 C5.4101,0.4741 3.5061,0.6631 2.6081,0.9541 C2.2811,1.0591 1.9521,1.1841 1.6721,1.3881 C1.4791,1.5261 1.3811,1.7361 1.2681,1.9421 C1.1421,2.1701 1.0231,2.2621 0.8381,2.4201 C0.4311,2.7701 0.0661,3.8471 0.0021,4.3761 C-0.0629,4.9221 1.5561,4.9431 2.2741,4.8761 C2.6131,4.8461 3.0281,4.8021 3.2721,4.5061 C3.4031,4.3451 3.4031,4.0621 3.4191,3.8681 C3.4441,3.5411 3.3881,2.8131 3.8121,2.7261 C4.1861,2.6521 5.7191,2.6011 6.4831,2.5941 C7.2451,2.6011 8.7781,2.6521 9.1521,2.7261 C9.5761,2.8131 9.5191,3.5411 9.5451,3.8681 C9.5611,4.0621 9.5611,4.3451 9.6921,4.5061 C9.9361,4.8021 10.3511,4.8461 10.6901,4.8761 C11.4111,4.9431 13.0271,4.9221 12.9621,4.3761 C12.8981,3.8471 12.5321,2.7701 12.1261,2.4201" id="Fill-1"></path>
                </g>
                <path d="M6.6302,6.6637 C5.7332,6.6637 5.0022,7.3877 5.0022,8.2777 C5.0022,9.1667 5.7332,9.8897 6.6302,9.8897 C7.5282,9.8897 8.2602,9.1667 8.2602,8.2777 C8.2602,7.3877 7.5282,6.6637 6.6302,6.6637" id="Fill-4" fill="#FFFFFF"></path>
                <g id="Group-8" transform="translate(0.000000, 3.525900)">
                    <mask id="mask-2" fill="white">
                        <use xlink:href="#path-1"></use>
                    </mask>
                    <g id="Clip-7"></g>
                    <path d="M6.6302,7.1641 C5.2912,7.1641 4.2022,6.0821 4.2022,4.7521 C4.2022,3.4211 5.2912,2.3371 6.6302,2.3371 C7.9702,2.3371 9.0602,3.4211 9.0602,4.7521 C9.0602,6.0821 7.9702,7.1641 6.6302,7.1641 M11.8072,5.1861 C11.8072,5.1861 9.2962,2.7571 9.2962,1.4581 C9.2962,0.4771 9.0872,0.2011 9.0872,0.2011 C9.0872,0.0971 9.0052,0.0121 8.9042,0.0121 L7.8852,0.0121 C7.7852,0.0121 7.7052,0.0971 7.7052,0.2011 L7.4942,0.6641 C7.4942,0.7681 7.4152,0.8521 7.3142,0.8521 L5.6502,0.8521 C5.5522,0.8521 5.4692,0.7681 5.4692,0.6641 L5.2582,0.2011 C5.2582,0.0971 5.1792,0.0121 5.0782,0.0121 L4.0592,0.0121 C3.9592,0.0121 3.8792,0.0971 3.8792,0.2011 C3.8792,0.2011 3.6682,0.4771 3.6682,1.4581 C3.6682,2.7571 1.1572,5.1861 1.1572,5.1861 C1.0852,5.2551 1.0082,5.3951 0.9872,5.4971 L0.6682,7.0731 C0.6482,7.1731 0.7122,7.2571 0.8102,7.2571 L1.1082,7.2571 L1.5252,7.7961 C1.5692,7.9081 1.6972,8.0001 1.8132,8.0001 L11.1512,8.0001 C11.2662,8.0001 11.3952,7.9081 11.4392,7.7961 L11.8562,7.2571 L12.1542,7.2571 C12.2522,7.2571 12.3162,7.1731 12.2962,7.0731 L11.9772,5.4971 C11.9562,5.3951 11.8812,5.2551 11.8072,5.1861" id="Fill-6" fill="#FFFFFF" mask="url(#mask-2)"></path>
                </g>
            </g>
        </g>
    </g>
</svg>