<?xml version="1.0" encoding="UTF-8" standalone="no"?>
<svg width="11px" height="12px" viewBox="0 0 11 12" version="1.1" xmlns="http://www.w3.org/2000/svg" xmlns:xlink="http://www.w3.org/1999/xlink" xmlns:sketch="http://www.bohemiancoding.com/sketch/ns">
    <!-- Generator: Sketch 3.4.3 (16618) - http://www.bohemiancoding.com/sketch -->
    <title>poli-address-om-icon</title>
    <desc>Created with Sketch.</desc>
    <defs></defs>
    <g id="kit" stroke="none" stroke-width="1" fill="none" fill-rule="evenodd" sketch:type="MSPage">
        <g id="poli-address-om-icon" sketch:type="MSArtboardGroup" fill="#FFFFFF">
            <path d="M7.42858028,9.05358222 C7.42858028,9.18416273 7.32701766,9.28572536 7.19643715,9.28572536 L3.94643328,9.28572536 C3.81585276,9.28572536 3.71429014,9.18416273 3.71429014,9.05358222 L3.71429014,7.89286655 C3.71429014,7.76228604 3.81585276,7.66072342 3.94643328,7.66072342 L4.64286268,7.66072342 L4.64286268,5.33929208 L3.94643328,5.33929208 C3.81585276,5.33929208 3.71429014,5.23772946 3.71429014,5.10714895 L3.71429014,3.94643328 C3.71429014,3.81585276 3.81585276,3.71429014 3.94643328,3.71429014 L6.26786461,3.71429014 C6.39844513,3.71429014 6.50000775,3.81585276 6.50000775,3.94643328 L6.50000775,7.66072342 L7.19643715,7.66072342 C7.32701766,7.66072342 7.42858028,7.76228604 7.42858028,7.89286655 L7.42858028,9.05358222 Z M6.50000775,2.55357447 C6.50000775,2.68415499 6.39844513,2.78571761 6.26786461,2.78571761 L4.87500581,2.78571761 C4.7444253,2.78571761 4.64286268,2.68415499 4.64286268,2.55357447 L4.64286268,1.3928588 C4.64286268,1.26227829 4.7444253,1.16071567 4.87500581,1.16071567 L6.26786461,1.16071567 C6.39844513,1.16071567 6.50000775,1.26227829 6.50000775,1.3928588 L6.50000775,2.55357447 Z M11.1428704,5.57143521 C11.1428704,2.49553869 8.64733174,0 5.57143521,0 C2.49553869,0 0,2.49553869 0,5.57143521 C0,8.64733174 2.49553869,11.1428704 5.57143521,11.1428704 C8.64733174,11.1428704 11.1428704,8.64733174 11.1428704,5.57143521 L11.1428704,5.57143521 Z" id="info-circle---fontawesome" sketch:type="MSShapeGroup"></path>
        </g>
    </g>
</svg>